<?xml version="1.0" standalone="no"?>
<!DOCTYPE svg PUBLIC "-//W3C//DTD SVG 1.1//EN" "http://www.w3.org/Graphics/SVG/1.1/DTD/svg11.dtd" >
<svg xmlns="http://www.w3.org/2000/svg" xmlns:xlink="http://www.w3.org/1999/xlink" version="1.1">
<metadata>
Created by FontForge 20170731 at Fri Aug 27 12:08:18 2021
 By Aleksey,,,
Copyright (c) 2020 by 177Studio. All rights reserved.
</metadata>
<defs>
<font id="APOLLO-Italic" horiz-adv-x="1206" >
  <font-face 
    font-family="APOLLO"
    font-weight="400"
    font-style="italic"
    font-stretch="normal"
    units-per-em="2048"
    panose-1="2 0 5 3 0 0 0 2 0 4"
    ascent="1638"
    descent="-410"
    x-height="1044"
    cap-height="1434"
    bbox="-922 -612 7254.38 2011"
    underline-thickness="0"
    underline-position="0"
    unicode-range="U+000A-FB02"
  />
<missing-glyph horiz-adv-x="1038" 
d="M459 1434h874l-377 -1434h-874zM506 1393l211 -633l549 633h-760zM682 717l-205 614l-327 -1231zM696 674l-544 -631h757zM733 717l205 -621l330 1239z" />
    <glyph glyph-name="A_P" unicode="Apollo" horiz-adv-x="7061" 
d="M1391 10q18 81 95.5 372t166.5 622t112 419q4 11 11 11h505q50 0 95.5 -3.5t93.5 -12t86.5 -23t75 -35.5t59.5 -50t39 -66.5t14.5 -85t-14.5 -105.5q-35 -135 -132 -234t-225 -146.5t-270 -47.5q-172 0 -321 73q-5 4 -9 0.5t-6 -8.5l-178 -680q-3 -10 -10 -10h-180
q-11 0 -8 10zM1790 743q134 -57 270 -57q176 0 297.5 99.5t163.5 263.5q83 311 -295 311h-270q-9 0 -12 -10l-158 -598q-5 -5 4 -9zM311 958q28 15 62 15.5t59 -6.5q116 -28 234 -90q3 -7 14 4l160 258l63 104l115 187q3 6 12 6h182q5 0 6.5 -1.5t0.5 -4.5q3 -21 10.5 -114
t20.5 -257t24 -293q48 -623 63 -752q0 -12 -12 -12h-190q-8 0 -11 6l-20 250q-40 133 -144.5 277t-252.5 243q-7 4 -15 -4l-475 -766q-3 -6 -8 -6h-59q-13 0 -7 12q158 264 494 799q7 7 0 10q-96 52 -174 76q0 -65 -52 -114t-112 -42q-38 6 -59 34.5t-15 66.5q4 34 28.5 65
t57.5 49zM737 831q200 -134 334 -362q2 -7 11 -1q6 4 5 9l-10 133l-57 666q0 4 -2.5 5.5t-6.5 0t-7 -5.5l-269 -432q-7 -10 2 -13zM2683 756q65 212 208.5 377.5t344.5 256.5t422 83q131 -5 237.5 -45t178 -110t110.5 -164t39 -211.5t-41 -246.5q-65 -215 -210 -381
t-345 -254.5t-420 -80.5q-132 5 -238.5 45.5t-176.5 110t-109.5 165t-38 210t38.5 245.5zM3215 37q134 -17 273 39t258 186.5t174 310.5q56 172 69 315.5t-18 254.5t-117 179.5t-223 82.5q-79 8 -160.5 -10t-161 -62.5t-150.5 -110t-131.5 -158.5t-100.5 -202
q-58 -146 -70.5 -287t20 -255t119.5 -190.5t219 -92.5zM4078 10l374 1417q4 11 13 11h180q10 0 6 -11l-356 -1343q-3 -10 6 -10h596q11 0 8 -8l-12 -56q-3 -10 -13 -10h-794q-11 0 -8 10zM4938 10l375 1417q4 11 12 11h180q10 0 6 -11l-356 -1343q-3 -10 6 -10h596
q11 0 8 -8l-12 -56q-3 -10 -12 -10h-795q-11 0 -8 10zM5714 758q63 205 198 366.5t325 254.5t403 96q5 0 7 -3t0.5 -7t-5.5 -7q-51 -29 -84 -53q-183 -17 -344.5 -161t-255.5 -380q-46 -117 -64 -231t-5 -216t54.5 -182.5t119 -132.5t183.5 -65q254 -28 471 166
q161 147 234 372q149 437 12 656l-4 8q0 11 -6 14q-23 35 -61.5 63t-79.5 38q-39 11 -95 -11q-16 -7 -24.5 -13t-13.5 -9.5t-3 -11.5t3 -11t9.5 -15.5t12.5 -18.5l-2 -2q17 -66 -35.5 -123t-118.5 -52q-55 4 -71.5 50.5t8.5 101.5q47 97 138.5 147t195.5 50q87 0 163 -32
t130 -86.5t89 -125t48 -150.5q27 -153 -33 -344q-65 -215 -210 -381t-344.5 -254.5t-418.5 -80.5q-133 5 -240.5 45t-177.5 109.5t-109.5 164.5t-37.5 210t39 247z" />
    <glyph glyph-name=".notdef" horiz-adv-x="1038" 
d="M459 1434h874l-377 -1434h-874zM506 1393l211 -633l549 633h-760zM682 717l-205 614l-327 -1231zM696 674l-544 -631h757zM733 717l205 -621l330 1239z" />
    <glyph glyph-name=".null" horiz-adv-x="0" 
 />
    <glyph glyph-name="uni000D" unicode="&#xd;" horiz-adv-x="0" 
 />
    <glyph glyph-name="NULL" horiz-adv-x="0" 
 />
    <glyph glyph-name="NULL" horiz-adv-x="0" 
 />
    <glyph glyph-name="uni000A" unicode="&#xa;" horiz-adv-x="0" 
 />
    <glyph glyph-name="space" unicode=" " horiz-adv-x="651" 
 />
    <glyph glyph-name="exclam" unicode="!" horiz-adv-x="370" 
d="M541 1341q44 0 63.5 -32t1.5 -92l-284 -832q-5 -24 -20.5 -36.5t-29.5 -12.5q-25 0 -22 49l160 832q7 58 47.5 91t83.5 33zM242 207q41 0 62 -30t9 -73q-10 -44 -46.5 -73t-78.5 -29q-43 0 -65 29t-12 73q12 43 50 73t81 30z" />
    <glyph glyph-name="quotedbl" unicode="&#x22;" horiz-adv-x="579" 
d="M369 1079l112 346q3 9 11 9h135q13 0 6 -11l-191 -344q-11 -22 -27.5 -34.5t-29.5 -12.5t-18 12t2 35zM606 1079l111 346q3 9 12 9h133q13 0 6 -11l-190 -344q-11 -22 -27.5 -34.5t-29.5 -12.5q-12 0 -16.5 12t1.5 35z" />
    <glyph glyph-name="numbersign" unicode="#" horiz-adv-x="1312" 
d="M178 369l41 69q3 6 10 6h279q6 0 10 7l144 241q10 13 -5 13h-282q-12 0 -6 12l34 59q9 6 13 6h295q8 0 8 6l203 338q3 9 12 9h59q13 0 6 -13l-196 -327q-7 -13 8 -13l250 -2q9 0 12 6l201 340q6 9 14 9h60q12 0 6 -13l-197 -329q-10 -13 2 -13h262q9 0 6 -12l-32 -57
q-6 -6 -11 -6h-272q-7 0 -14 -7l-144 -243q-10 -13 4 -13h281q9 0 6 -12l-37 -57q0 -6 -8 -6h-291q-7 0 -10 -7l-203 -337q-7 -7 -12 -7h-59q-12 0 -9 13l199 325q7 13 -4 13l-256 2q-1 0 -2 -1t-3.5 -2.5t-4.5 -3.5l-203 -339q-7 -7 -10 -7h-62q-12 0 -6 13l197 327
q7 13 -4 13h-279zM608 444l250 -2q5 0 12 7l144 243q10 13 -2 13h-254q-10 0 -13 -7l-143 -241q-6 -13 6 -13z" />
    <glyph glyph-name="dollar" unicode="$" horiz-adv-x="1105" 
d="M168 332l6 12q12 4 49 23q10 3 10 -5q26 -147 97 -219.5t219 -76.5q9 -3 12 8q124 429 164 583q68 252 152 605q1 4 -1.5 7t-7.5 1q-95 -11 -166.5 -63.5t-91.5 -129.5q-25 -110 78 -203q3 -7 2 -8l-55 -204q-4 -12 -17 -9q-30 22 -52.5 40t-47.5 42t-42 46t-31.5 49
t-20.5 54.5t-5.5 60t9.5 67.5q35 142 166.5 229.5t292.5 95.5q7 0 10 9q18 70 27 114q3 8 12 8h61q10 0 7 -8q-13 -37 -33 -114q-3 -8 6 -11q118 -7 190.5 -75.5t100.5 -180.5q0 -7 -8 -12q-3 -2 -20 -12t-26 -15q-6 -6 -12 4q-20 111 -74.5 166t-171.5 62q-5 0 -12 -10
q-97 -338 -166 -603q-120 -465 -149 -585q0 -8 10 -8q110 13 184 69.5t99 143.5q17 67 -10 120.5t-89 106.5q-4 4 0 8l54 203q2 6 6.5 9t9.5 -1q37 -27 58.5 -43.5t52.5 -44t48.5 -48.5t36.5 -51.5t26 -59.5t7 -65t-10 -75q-43 -156 -176 -244t-318 -96q-7 0 -10 -10
l-33 -144q-3 -10 -12 -10h-61q-9 0 -6 10l43 146q7 10 -2 10q-96 5 -158 25t-115 73q-66 72 -88 183z" />
    <glyph glyph-name="percent" unicode="%" horiz-adv-x="1253" 
d="M707 1339q31 0 81 -16q155 -49 322 -49q144 0 287 47h71q6 0 8 -5.5t-3 -10.5l-1250 -1285q-2 -1 -4.5 -2t-3.5 -1.5t-2 -0.5h-68q-6 0 -8 5t4 10l1184 1218q5 3 5.5 7t-2.5 6.5t-7 1.5q-99 -27 -221 -27q-124 0 -203 20q-5 1 -9.5 -1.5t-6 -6t1.5 -6.5q43 -77 16 -184
q-33 -118 -131.5 -199.5t-212.5 -81.5q-110 0 -168.5 82.5t-26.5 198.5q29 117 131 198.5t216 81.5zM707 281q29 117 128.5 197.5t215.5 80.5q112 0 167.5 -80.5t26.5 -197.5q-38 -120 -134.5 -201.5t-211.5 -81.5q-110 0 -169 84t-23 199zM854 281q-31 -110 -15.5 -179
t72.5 -69t109.5 68.5t83.5 179.5q29 110 12 178.5t-74 68.5q-56 0 -107 -68t-81 -179zM567 811q56 0 109 69t82 179t12.5 179t-72.5 69q-57 0 -109 -68.5t-81 -179.5q-30 -110 -14 -179t73 -69z" />
    <glyph glyph-name="ampersand" unicode="&#x26;" horiz-adv-x="1476" 
d="M594 739q7 3 10 13q-1 5 -3.5 16.5t-2.5 17.5q-26 202 8 324q36 146 150.5 236t255.5 90q136 0 192 -72.5t29 -187.5q-32 -112 -140 -226t-292 -202q-8 -3 -8 -13q79 -263 215 -448l41 -58q6 -8 16 2q111 114 160 281q22 107 22 172q2 6 10 10l43 17q13 3 13 -6
q-16 -128 -29 -170q-53 -202 -192 -338q-9 -9 -2 -13q75 -77 145.5 -118.5t153.5 -53.5q8 -3 6 -10l-6 -12q-3 -10 -13 -10h-332q0 2 -2 2q-56 40 -108 96q-2 2 -10 0q-166 -84 -355 -84q-213 0 -323 103.5t-70 258.5q31 126 136.5 224.5t281.5 158.5zM371 420
q-43 -162 35.5 -265.5t230.5 -103.5q135 0 252 60q11 4 4 14q-96 111 -173.5 267.5t-109.5 307.5q0 10 -14 2q-185 -133 -225 -282zM780 780q2 -7 15 -4q120 75 197.5 180t105.5 215q29 110 -1.5 170t-95.5 60q-68 0 -135 -63.5t-96 -174.5q-41 -153 10 -383z" />
    <glyph glyph-name="quotesingle" unicode="'" horiz-adv-x="344" 
d="M367 1071l114 346q0 8 8 8h136q13 0 6 -10l-191 -344q-27 -47 -57 -47q-14 0 -19.5 12t3.5 35z" />
    <glyph glyph-name="parenleft" unicode="(" horiz-adv-x="555" 
d="M229 559q101 382 535 772q0 4 6 4h45q5 0 5.5 -4.5t-3.5 -9.5q-286 -360 -393 -762q-105 -389 -10 -764q3 -12 -11 -12h-45q-6 0 -6 4q-225 389 -123 772z" />
    <glyph glyph-name="parenright" unicode=")" horiz-adv-x="557" 
d="M29 -203q293 371 397 762q105 396 8 762q-4 4 1 9t11 5h43q7 0 7 -4q228 -397 127 -772q-103 -385 -539 -772q0 -4 -6 -4h-43q-6 0 -8 4.5t2 9.5z" />
    <glyph glyph-name="asterisk" unicode="*" horiz-adv-x="753" 
d="M434 1294q18 21 43 21q20 0 39 -19l135 -163h2q0 16 2 18l29 219q0 26 22.5 46t49.5 20q24 0 35.5 -19.5t3.5 -46.5l-88 -219q-2 -6 -11 -18h2l224 163q22 19 49 19q20 0 30 -16t5 -35q-9 -35 -50 -50l-229 -98h-2l176 -102q35 -15 25 -47q-3 -15 -19 -31
q-23 -23 -47 -23q-21 0 -37 19l-133 164h-2q2 -1 -2 -19l-29 -219q-1 -25 -23.5 -45t-47.5 -20q-26 0 -38 20t-1 45l88 219q3 17 10 19h-2l-223 -164q-24 -17 -45 -17q-28 0 -37 21q-3 15 0 29q9 36 45 49l231 102h-2l-174 98q-31 14 -22 50q3 15 18 30z" />
    <glyph glyph-name="plus" unicode="+" horiz-adv-x="993" 
d="M229 567l25 90h369l92 351h92l-92 -351h368l-24 -90h-369l-102 -389h-92l102 389h-369z" />
    <glyph glyph-name="comma" unicode="," horiz-adv-x="368" 
d="M106 104q12 42 50 71.5t82 29.5q47 0 64.5 -35.5t4.5 -83.5q-16 -66 -80 -153.5t-121 -131.5h-6q56 59 72 121q6 29 1.5 52.5t-17.5 29.5q-31 10 -44.5 37.5t-5.5 62.5z" />
    <glyph glyph-name="hyphen" unicode="-" horiz-adv-x="776" 
d="M844 578h-613l23 79h612z" />
    <glyph glyph-name="period" unicode="." horiz-adv-x="366" 
d="M106 104q12 42 51 72.5t81 30.5q41 0 62 -30t9 -73q-10 -43 -47 -72.5t-78 -29.5q-42 0 -65 30t-13 72z" />
    <glyph glyph-name="slash" unicode="/" horiz-adv-x="919" 
d="M1108 1339h84l-1081 -1542h-86z" />
    <glyph glyph-name="zero" unicode="0" horiz-adv-x="1017" 
d="M213 737q48 174 124 314t166.5 231t191.5 139.5t204 48.5q135 0 222 -84t110.5 -247t-41.5 -402q-43 -172 -118.5 -312t-167 -229.5t-192.5 -137.5t-200 -48q-216 0 -301 190.5t2 536.5zM520 45q128 0 257 187t210 497q57 210 62.5 367.5t-37 241t-127.5 83.5
q-130 0 -258.5 -187t-214.5 -505q-54 -207 -59.5 -362t38 -238.5t129.5 -83.5z" />
    <glyph glyph-name="one" unicode="1" horiz-adv-x="387" 
d="M334 1253l2 15q0 5 6 8l322 190l4 2h16q9 0 6 -10l-381 -1435q-3 -9 -10 -9h-176q-11 0 -8 9l319 1210q3 10 -4 10l-92 2q-7 0 -4 8z" />
    <glyph glyph-name="two" unicode="2" horiz-adv-x="954" 
d="M14 31q22 15 100 68t137 93.5t152 110t165 129.5t155 140t142 153t107 158t68 164q48 171 -18 271.5t-201 100.5q-98 0 -211 -57.5t-219 -171.5q-4 -4 -8 -4h-41q-5 0 -6.5 5t2.5 9q238 266 522 266q87 0 164.5 -27.5t133 -79t77.5 -125.5t-2 -167q-43 -170 -186 -324
q-261 -280 -725 -557q-7 -4 -6.5 -10t8.5 -6h596q9 0 6 -10l-37 -137q-3 -9 -10 -9h-863q-8 0 -8.5 6t6.5 11z" />
    <glyph glyph-name="three" unicode="3" horiz-adv-x="985" 
d="M322 1200q83 118 214.5 193t284.5 75q75 0 136 -17.5t100 -47.5t64 -70.5t28 -86.5t-8 -95q-25 -86 -98.5 -162t-192.5 -125q-6 -2 -8 -8t4 -8q81 -20 137.5 -60.5t82 -91.5t32 -111.5t-12.5 -121.5q-25 -92 -86 -177t-145 -149.5t-191 -103.5t-217 -39q-155 0 -253.5 71
t-120.5 175q-6 9 8 12l29 12q7 4 10 -4q23 -72 74.5 -118.5t106.5 -63.5t116 -17q166 0 298.5 112t174.5 276q43 161 -16.5 250.5t-215.5 101.5q-5 0 -7 3.5t-0.5 7.5t5.5 5q121 46 202.5 135t111.5 197q27 113 -14 190.5t-154 77.5v-2q-241 0 -436 -252q-7 -10 -15 -2
l-26 29q-5 5 -2 10z" />
    <glyph glyph-name="four" unicode="4" horiz-adv-x="911" 
d="M121 438l966 1026l9 4h98q11 0 8 -10l-256 -958q0 -8 8 -8h74q10 0 6 -11l-12 -49q-3 -8 -14 -8h-74q-7 0 -10 -10l-103 -391q-3 -9 -12 -9h-174q-11 0 -8 9l102 391q3 10 -6 10h-600q-4 0 -5.5 2t-0.5 5.5t4 6.5zM268 492h475q9 0 9 8l186 698q1 7 -4.5 9t-11.5 -3
l-660 -698q-4 -4 -2 -9t8 -5z" />
    <glyph glyph-name="five" unicode="5" horiz-adv-x="1093" 
d="M164 293q7 5 39 18q10 3 10 -6q12 -124 114 -198t238 -62q101 8 192.5 71t151 151.5t84.5 185.5q55 204 -20.5 318t-245.5 114q-191 0 -434 -152q-6 -4 -11.5 -1t-5.5 9l187 697q3 10 14 10h817q9 0 6 -10l-36 -138q0 -8 -11 -8h-729q-11 0 -14 -10l-111 -416
q0 -7 3.5 -9.5t9.5 1.5q215 111 393 111q107 0 193 -33t140.5 -94t73.5 -148.5t-10 -195.5q-40 -148 -144 -265t-241 -179t-282 -62q-98 0 -183 30.5t-142 98.5t-54 162q0 7 8 10z" />
    <glyph glyph-name="six" unicode="6" horiz-adv-x="1021" 
d="M178 606q41 152 117 287.5t171 236t205 176t222 117.5t219 52q11 0 8 -9l-6 -20q-2 -8 -10 -10q-190 -20 -364.5 -191t-288.5 -430q-5 -7 4 -10q6 -1 10 4q84 78 178 118t184 40q111 0 193.5 -56t115.5 -158.5t-3 -248.5q-34 -126 -122.5 -241.5t-222 -192t-274.5 -76.5
q-91 0 -162 34t-114.5 92.5t-66 136.5t-20.5 167t27 182zM348 477q-9 -56 -12.5 -109t3 -114.5t26 -107t61 -75.5t102.5 -30q128 0 243 126t167 327q51 191 -2.5 298t-169.5 107q-81 0 -156 -39t-128 -101t-88.5 -136t-45.5 -146z" />
    <glyph glyph-name="seven" unicode="7" horiz-adv-x="831" 
d="M395 1448h805q10 0 2 -14q-145 -189 -253 -341.5t-226 -336.5t-209 -368.5t-154 -364.5q-3 -9 -12 -9h-217q-12 0 -8 11q266 557 909 1253q6 4 4.5 9t-6.5 5h-676q-10 0 -10 8l37 138q3 10 14 10z" />
    <glyph glyph-name="eight" unicode="8" horiz-adv-x="1058" 
d="M555 760q7 7 4 16q-95 86 -140 171.5t-22 176.5q28 109 113.5 189.5t191 117.5t216.5 37q102 0 178.5 -31.5t116 -99t18.5 -161.5q-57 -205 -357 -369q-13 -3 -2 -14q29 -25 50.5 -43.5t48 -44t45.5 -45.5t40 -46t34.5 -48.5t25.5 -49t16.5 -51.5t4.5 -53t-7 -56
q-24 -87 -88 -157t-150.5 -113.5t-185.5 -66.5t-200 -23q-95 0 -176 20.5t-139.5 59.5t-83.5 101.5t-5 139.5q31 120 144 228t309 215zM522 47q138 0 257 67t147 183q6 21 5.5 43.5t-3.5 41t-17 42.5t-23.5 40t-33.5 42t-37 39.5t-44.5 41.5t-44.5 39.5t-49 41.5
q-46 39 -69 59q-3 3 -10 0q-130 -71 -227.5 -172t-132.5 -219q-17 -74 -2 -128.5t57 -90t100 -53t127 -17.5zM600 1180q-17 -57 15 -120t68 -99.5t123 -112.5q9 -8 13 -12q6 -3 12 0q226 142 277 333q30 116 -30 182t-165 66q-104 0 -194.5 -63t-118.5 -174z" />
    <glyph glyph-name="nine" unicode="9" horiz-adv-x="1021" 
d="M895 1477q91 0 162 -33.5t114.5 -91.5t66 -135t20.5 -165.5t-27 -181.5q-40 -151 -117 -286.5t-173.5 -237t-208 -178.5t-224.5 -120.5t-219 -53.5q-9 0 -6 10l4 19q3 8 10 8q189 24 367 195t290 425q3 5 0.5 8t-7 3t-7.5 -3q-166 -155 -360 -155q-111 0 -193.5 56
t-115.5 158.5t3 248.5q25 93 84 184t139.5 164t185.5 117.5t212 44.5zM453 928q-14 -85 4.5 -165.5t67 -136t116.5 -63.5q117 -10 250 115q70 63 113.5 152t56.5 180q14 68 15 136t-13.5 134.5t-60.5 108t-119 41.5q-70 0 -135 -34t-112.5 -88t-86.5 -121.5t-62.5 -133
t-33.5 -125.5z" />
    <glyph glyph-name="colon" unicode=":" horiz-adv-x="364" 
d="M475 1100q41 0 61.5 -29t8.5 -72q-10 -43 -47 -72.5t-78 -29.5q-43 0 -65 29.5t-11 72.5q12 43 50 72t81 29zM145 248q11 41 48.5 70.5t80.5 29.5q41 0 62 -29t10 -71q-10 -44 -46.5 -73.5t-78.5 -29.5q-43 0 -64.5 29.5t-11.5 73.5z" />
    <glyph glyph-name="semicolon" unicode=";" horiz-adv-x="368" 
d="M266 317q47 0 66 -35.5t6 -82.5q-16 -66 -80 -153.5t-121 -131.5h-6q55 58 70 121q8 29 4 52.5t-21 29.5q-30 11 -43.5 38.5t-3.5 61.5q11 42 48 71t81 29zM465 1069q42 0 63 -29t9 -71q-10 -43 -47 -73t-78 -30q-43 0 -65 30t-11 73q12 43 49 71.5t80 28.5z" />
    <glyph glyph-name="less" unicode="&#x3c;" horiz-adv-x="1019" 
d="M332 551l-90 57l120 58l848 374l-28 -110l-733 -322l563 -321l-29 -111z" />
    <glyph glyph-name="equal" unicode="=" horiz-adv-x="993" 
d="M291 797h829l-22 -92h-830zM1028 446h-829l22 91h830z" />
    <glyph glyph-name="greater" unicode="&#x3e;" horiz-adv-x="1019" 
d="M356 1049l654 -375l88 -58l-117 -57l-852 -375l29 111l733 321l-561 322z" />
    <glyph glyph-name="question" unicode="?" horiz-adv-x="831" 
d="M383 1139q63 98 170.5 150t220.5 52q136 0 212.5 -79t37.5 -213q-17 -64 -57.5 -126.5t-93.5 -116t-107 -102.5t-110 -106t-89 -106q-46 -67 -59 -119q-6 -22 -19 -33.5t-26 -11.5q-15 0 -24 11.5t-3 33.5q18 69 62.5 138t97 127.5t106 119.5t99.5 137.5t67 157.5
q12 51 13 98.5t-24 86.5t-73 50q-89 20 -198.5 -30.5t-167.5 -141.5q-6 -10 -15 -4l-20 16q-4 4 0 11zM301 104q12 43 49.5 73t81.5 30q41 0 62.5 -30t9.5 -73q-10 -44 -46.5 -73t-78.5 -29q-44 0 -66 29t-12 73z" />
    <glyph glyph-name="at" unicode="@" horiz-adv-x="1646" 
d="M197 440q33 119 94.5 232.5t153.5 215t203 178t252 121t292 44.5q136 0 247.5 -41t189 -124t100.5 -208.5t-17 -294.5q-36 -135 -123 -264.5t-207.5 -216t-236.5 -86.5q-85 0 -131 46t-41 122q-3 13 -17 4q-132 -150 -239 -150q-74 0 -116 43t-46.5 114t18.5 163
q22 91 74.5 185.5t123 173.5t161.5 129.5t182 50.5q82 0 123 -68q9 -12 18 4l27 49q3 6 10 6h138q14 0 4 -10l-265 -502q-39 -75 -58.5 -126t-21.5 -91t23 -59t78 -19q64 0 128.5 34.5t116.5 88.5t96.5 121.5t74.5 131.5t45 120q38 155 18.5 270t-90 191t-171.5 113.5
t-226 37.5q-138 0 -267.5 -41t-233 -111.5t-188.5 -163.5t-142 -198t-85 -215q-23 -87 -24.5 -172t18.5 -162t65 -142.5t110.5 -113.5t159.5 -75t208 -27q329 0 534 160q4 4 9 4h63q5 0 6.5 -6t-2.5 -10q-127 -103 -288.5 -157t-329.5 -54q-126 0 -230 29.5t-176.5 82
t-122.5 124t-72.5 155.5t-22 176.5t25.5 187.5zM739 80q20 0 43 10.5t43.5 25.5t44.5 41.5t43 49.5t42.5 58t38.5 59t36.5 60.5t31 54.5t26.5 49t20 36l94 187l2 4q0 43 -23 76.5t-57 33.5q-76 0 -168 -98t-162.5 -232.5t-101.5 -256.5q-19 -75 -5 -116.5t52 -41.5z" />
    <glyph glyph-name="A" unicode="A" 
d="M8 12q209 350 443 715q37 61 146.5 236.5t170.5 277.5l117 186q0 7 8 7h182q7 0 10 -7q3 -19 10 -112.5t20 -257t24 -293.5q47 -615 63 -752q0 -12 -10 -12h-193q-8 0 -8 6q-14 109 -30 352t-17 250q-3 6 -10 6h-469q-7 0 -10 -6l-373 -602q0 -6 -8 -6h-60q-12 0 -6 12z
M518 686h404q10 0 10 12l-45 576q-9 13 -19 0l-356 -576q-6 -12 6 -12z" />
    <glyph glyph-name="B" unicode="B" horiz-adv-x="1181" 
d="M469 1434h438q47 0 91 -3.5t91 -12t86.5 -22t77 -33.5t62 -47.5t42 -62.5t17.5 -79.5t-12 -98.5q-27 -104 -108 -185t-212 -124q299 -80 224 -371q-51 -186 -216.5 -290.5t-443.5 -104.5h-514q-11 0 -8 10l373 1413q4 11 12 11zM307 74h283q185 0 306 85.5t163 241.5
q41 153 -37.5 235.5t-259.5 82.5h-283q-9 0 -12 -8l-166 -627q-3 -10 6 -10zM637 1350l-145 -547q-3 -10 8 -10h200q382 0 455 282q38 142 -38 213.5t-267 71.5h-201q-9 0 -12 -10z" />
    <glyph glyph-name="C" unicode="C" horiz-adv-x="1323" 
d="M686 1331q248 136 500 121q155 -10 254.5 -93t130.5 -224q-3 -10 -10 -13l-21 -8q-8 -3 -8 4q-32 145 -132 208t-284 63q-79 0 -159.5 -22.5t-160 -69.5t-148 -114.5t-124.5 -163.5t-88 -210q-42 -157 -23 -290t81.5 -230t167.5 -151t235 -54q248 0 467 184q6 9 12 0
l6 -6q3 -7 -2 -12q-133 -133 -294 -201.5t-330 -68.5q-152 0 -274 54t-195.5 151.5t-97.5 233t20 298.5q51 193 172 353t305 261z" />
    <glyph glyph-name="D" unicode="D" horiz-adv-x="1275" 
d="M469 1434h408q219 0 367 -84.5t202.5 -243.5t-2.5 -389q-54 -206 -189 -368.5t-331.5 -255.5t-419.5 -93h-412q-11 0 -8 10l373 1413q4 11 12 11zM637 1350l-336 -1266q-3 -10 6 -10h266q137 0 266 64.5t228.5 188.5t144.5 287q35 112 44 220t-11 203t-67.5 167
t-132.5 114t-199 42h-197q-9 0 -12 -10z" />
    <glyph glyph-name="E" unicode="E" horiz-adv-x="899" 
d="M84 10l373 1413q4 11 12 11h795q12 0 8 -11l-15 -55q-3 -8 -12 -8h-598q-7 0 -10 -10l-150 -562q-3 -10 5 -10h471q11 0 8 -8l-13 -55q-3 -10 -12 -10h-469q-11 0 -14 -9l-162 -612q-3 -10 6 -10h596q11 0 8 -8l-12 -56q-3 -10 -12 -10h-795q-11 0 -8 10z" />
    <glyph glyph-name="F" unicode="F" horiz-adv-x="899" 
d="M84 10l373 1413q4 11 12 11h795q12 0 8 -11l-15 -55q-3 -8 -12 -8h-598q-7 0 -10 -10l-150 -562q-3 -10 5 -10h471q11 0 8 -8l-13 -55q-3 -10 -12 -10h-469q-11 0 -14 -9l-180 -686q-3 -10 -11 -10h-180q-11 0 -8 10z" />
    <glyph glyph-name="G" unicode="G" horiz-adv-x="1413" 
d="M1126 1452q164 0 282.5 -72.5t160.5 -210.5q0 -9 -8 -14l-31 -14q-12 -3 -12 4q-31 119 -134.5 182.5t-244.5 63.5q-125 0 -242 -47t-207.5 -127.5t-156.5 -187t-97 -226.5q-33 -119 -35 -230t28 -204t87 -162.5t147.5 -108.5t204.5 -39q156 0 326 93q3 1 4.5 2.5t2 3
t1.5 2.5l129 487q9 33 41 33h127q11 0 8 -8l-149 -563l-8 -11q-317 -78 -417.5 -98t-176.5 -20q-152 0 -274 54t-195.5 151.5t-97.5 233t20 298.5q55 206 194 374.5t330 264.5t393 96z" />
    <glyph glyph-name="H" unicode="H" horiz-adv-x="1277" 
d="M84 10l373 1413q4 11 12 11h180q10 0 6 -11l-172 -643q-3 -10 9 -10h696q9 0 12 10l172 643q4 11 10 11h181q12 0 8 -11l-373 -1413q-3 -10 -12 -10h-180q-10 0 -7 10l179 678q1 4 -1.5 6t-7.5 2h-696q-9 0 -12 -8l-178 -678q-3 -10 -11 -10h-180q-11 0 -8 10z" />
    <glyph glyph-name="I" unicode="I" horiz-adv-x="362" 
d="M82 0l375 1425q3 9 12 9h178q11 0 8 -9l-372 -1415q-3 -10 -11 -10h-190z" />
    <glyph glyph-name="J" unicode="J" horiz-adv-x="385" 
d="M-117 -143v8q3 6 6 6q11 8 33.5 21t24.5 14q87 56 129.5 106.5t62.5 124.5l340 1286q4 11 13 11h180q10 0 6 -11l-340 -1280q-21 -81 -119.5 -149.5t-324.5 -147.5q-8 -2 -11 1t0 10z" />
    <glyph glyph-name="K" unicode="K" horiz-adv-x="1218" 
d="M469 1434h182q10 0 6 -11l-73 -282l-95 -342q0 -6 5.5 -8t11.5 2q121 94 889 639q2 2 6 2h84q6 0 7.5 -6t-3.5 -11l-299 -213l-535 -385q-9 -6 -6 -12q41 -55 256.5 -356t308.5 -435q4 -4 1 -10t-9 -6h-254q-4 0 -6 1q-1 1 -2 1q-132 182 -471 664q-8 8 -20 -7l-170 -649
q-3 -10 -11 -10h-180q-11 0 -8 10l373 1413q4 11 12 11z" />
    <glyph glyph-name="L" unicode="L" horiz-adv-x="899" 
d="M84 10l375 1417q4 11 12 11h180q10 0 6 -11l-356 -1343q-3 -10 6 -10h596q11 0 8 -8l-12 -56q-3 -10 -12 -10h-795q-11 0 -8 10z" />
    <glyph glyph-name="M" unicode="M" horiz-adv-x="1644" 
d="M84 10l86 334q222 797 289 1081q3 9 10 9h184q5 0 9 -7l208 -1185q0 -4 6 -4t11 4l848 1185q0 7 8 7h186q12 0 8 -11l-372 -1413q-3 -10 -13 -10h-180q-9 0 -6 10l320 1207q1 7 -6 8.5t-13 -4.5l-868 -1215q-3 -6 -8 -6h-89q-5 0 -8 6l-207 1186q-2 7 -9 5.5t-9 -7.5
l-311 -1180q-3 -10 -11 -10h-55q-11 0 -8 10z" />
    <glyph glyph-name="N" unicode="N" horiz-adv-x="1261" 
d="M86 27l369 1380q3 27 30 27h162q10 0 21 -11l487 -1056q7 -11 16 -11q27 0 33 27l275 1024q3 27 30 27h21q25 0 22 -27l-368 -1380q-3 -27 -31 -27h-61q-18 0 -21 10l-551 1196q-7 11 -16 11q-26 0 -35 -27l-309 -1163q-3 -27 -31 -27h-20q-26 0 -23 27z" />
    <glyph glyph-name="O" unicode="O" horiz-adv-x="1568" 
d="M225 756q65 212 208.5 377.5t344.5 256.5t422 83q131 -5 237.5 -45t178 -110t110.5 -164t39 -211.5t-41 -246.5q-49 -161 -145.5 -297t-223.5 -230t-283.5 -144.5t-321.5 -44.5q-132 5 -238.5 45.5t-176.5 110t-110 165t-38.5 210t38.5 245.5zM758 37q100 -12 205.5 18
t202 96t175.5 176t121 246q56 172 69 315.5t-17.5 254.5t-116.5 179.5t-223 82.5q-99 10 -202 -21.5t-197 -99t-175 -177t-131 -245.5q-58 -146 -70 -287t20.5 -255t119.5 -190.5t219 -92.5z" />
    <glyph glyph-name="P" unicode="P" horiz-adv-x="1167" 
d="M84 10q18 81 95.5 372.5t167 621.5t112.5 419q4 11 10 11h506q50 0 95.5 -3.5t93 -12t86.5 -23t75 -35.5t59 -50t39.5 -66.5t14.5 -85t-15 -105.5q-35 -135 -132 -234t-224.5 -146.5t-269.5 -47.5q-173 0 -322 73q-9 8 -14 -8l-178 -680q-3 -10 -11 -10h-180q-11 0 -8 10
zM483 743q134 -57 271 -57q176 0 297 99.5t163 263.5q83 311 -294 311h-271q-9 0 -12 -10l-158 -598q-5 -5 4 -9z" />
    <glyph glyph-name="Q" unicode="Q" horiz-adv-x="1554" 
d="M213 731q47 157 139 291.5t215.5 231.5t280 150.5t323.5 49.5q130 -2 237 -39.5t180 -104.5t116 -160t44 -206t-36 -242q-73 -272 -282 -463t-480 -241q-18 -4 -8 -14q58 -156 141 -235t199 -83q76 0 150 27q6 1 8 -1t0 -7v-4q-3 -8 -8 -11q-132 -66 -256 -63
q-140 4 -254 99.5t-193 270.5l-4 5q-128 7 -230.5 47t-169.5 107.5t-105.5 159t-38.5 201t32 234.5zM739 47q208 -30 403.5 106t311.5 406q56 144 70.5 281t-13 252.5t-112.5 194.5t-219 99q-132 22 -267.5 -31.5t-253.5 -179t-190 -301.5q-60 -144 -75 -282.5t14.5 -253
t114 -193t216.5 -98.5z" />
    <glyph glyph-name="R" unicode="R" horiz-adv-x="1142" 
d="M369 1085l90 338q4 11 10 11h485q47 0 91 -3t92 -11t87 -21t77.5 -32.5t62.5 -47t42 -63.5t17 -81.5t-14 -101.5q-20 -72 -57 -130t-87 -96t-105.5 -64.5t-122 -41.5t-126.5 -21.5t-129 -8.5q-6 0 -10 -5.5t0 -9.5l150 -293l133 -272q42 -82 81 -113t101 -36q11 0 8 -9
l-6 -16q-3 -10 -12 -10h-142q-31 0 -46 1.5t-38.5 9.5t-46.5 27t-55 52q-61 83 -98 147q-66 108 -92 152.5t-86.5 153.5t-116.5 221h-31q-9 0 -12 -9l-180 -692q-3 -10 -11 -10h-180q-11 0 -8 10q25 103 131 494.5t154 580.5zM637 1350l-148 -555q-4 -11 9 -11h250
q376 0 454 289q38 143 -37.5 215t-265.5 72h-250q-9 0 -12 -10z" />
    <glyph glyph-name="S" unicode="S" horiz-adv-x="1017" 
d="M106 379q3 3 10 5t11 5q10 3 10 -6q7 -153 110 -243.5t265 -90.5q76 0 152.5 22.5t132.5 69.5q45 36 73 86t29 99q2 79 -63 159q-31 35 -75 70.5t-73.5 55.5t-89.5 57q-53 35 -85.5 58.5t-71 63t-60.5 80.5q-40 69 -42 148t40 168q68 125 220.5 197.5t297.5 72.5
q156 0 243.5 -90.5t92.5 -243.5q2 -7 -6 -10l-15 -4q-6 -3 -10 4q-7 123 -93 198.5t-216 75.5q-97 0 -190.5 -46t-139.5 -134q-38 -71 -10 -153q19 -50 82 -113q23 -22 53.5 -45t53.5 -37.5t61.5 -38t56.5 -35.5q138 -89 199 -180q83 -134 37 -278q-30 -90 -104 -166.5
t-169 -120.5q-123 -59 -272 -59q-212 0 -334.5 96.5t-118.5 292.5q3 10 8 10z" />
    <glyph glyph-name="T" unicode="T" horiz-adv-x="1241" 
d="M365 1374l12 49q4 11 10 11h266q115 0 491 -2t462 -2q8 -3 8 -11l-12 -45q-3 -8 -15 -8h-502q-9 0 -12 -8q-37 -153 -177.5 -681t-172.5 -654l-2 -13q-3 -10 -10 -10h-181q-11 0 -8 10l355 1346q3 10 -7 10h-501q-7 0 -4 8z" />
    <glyph glyph-name="U" unicode="U" horiz-adv-x="1226" 
d="M469 1434h180q10 0 6 -11l-229 -870q-34 -135 -32.5 -230.5t40.5 -155.5t100 -88t146 -28q180 0 325 130t212 374l229 868q4 11 10 11h55q13 0 9 -11l-226 -852q-79 -291 -259.5 -441t-416.5 -150q-109 0 -195.5 34.5t-146 108t-71.5 186.5t28 271l224 843q4 11 12 11z
" />
    <glyph glyph-name="V" unicode="V" horiz-adv-x="1185" 
d="M391 1434h193q8 0 8 -7l102 -1239q6 -13 19 0q23 37 345 559t423 680q0 7 8 7h57q11 0 8 -13l-878 -1415q0 -6 -8 -6h-158q-7 0 -10 6l-119 1415q-3 13 10 13z" />
    <glyph glyph-name="W" unicode="W" horiz-adv-x="1843" 
d="M391 1434h193q8 0 8 -7l100 -1239q0 -6 6 -6t11 6l383 621q4 4 2 6l-47 606q-3 13 12 13h188q7 0 10 -7q24 -251 59.5 -687.5t41.5 -551.5q0 -6 6 -6t10 6q43 65 189.5 303t325.5 529t251 407q0 7 8 7h58q9 0 6 -13l-873 -1415q-3 -6 -8 -6h-162q-8 0 -8 6l-55 668
q0 6 -6 6t-10 -6l-416 -668q-3 -6 -8 -6h-160q-8 0 -8 6q-7 36 -28.5 308.5t-48.5 619.5t-40 487q-3 13 10 13z" />
    <glyph glyph-name="X" unicode="X" horiz-adv-x="1007" 
d="M393 1434h201q4 0 8 -4l162 -564q3 -10 16 0q84 109 488 564q0 4 6 4h72q6 0 8 -5t-2 -10l-561 -641q-5 -6 -3 -8q10 -20 49 -160.5t89.5 -325t77.5 -270.5q4 -4 -0.5 -9t-10.5 -5h-200q-5 0 -9 4l-161 571q-9 9 -17 3q-20 -26 -87.5 -103.5t-132 -150t-161 -180.5
t-125.5 -140q0 -4 -6 -4h-69q-5 0 -7 5t2 9l572 648l6 8l-217 749q0 15 12 15z" />
    <glyph glyph-name="Y" unicode="Y" horiz-adv-x="1054" 
d="M391 1434h203q8 0 8 -4l182 -646q3 -10 17 0l536 646q4 4 9 4h71q5 0 7.5 -5t-1.5 -10q-64 -74 -216 -256.5t-274 -328.5t-136 -160q-2 -2 -2 -4l-174 -660q-3 -10 -11 -10h-180q-11 0 -8 10l170 649v5q0 14 -39.5 152t-94 326.5t-77.5 276.5q0 15 10 15z" />
    <glyph glyph-name="Z" unicode="Z" horiz-adv-x="1060" 
d="M8 14l1127 1332q6 14 -5 14h-679q-5 0 -7.5 2t-1.5 6l15 55q4 11 12 11h954q10 0 7 -15l-1129 -1331q-6 -4 -5 -9t7 -5h709l-15 -64q-3 -10 -12 -10h-973q-5 0 -6.5 5t2.5 9z" />
    <glyph glyph-name="bracketleft" unicode="[" horiz-adv-x="495" 
d="M434 1335h332l-16 -55h-166l-383 -1444h166l-13 -53h-331z" />
    <glyph glyph-name="backslash" unicode="\" horiz-adv-x="827" 
d="M522 1339l166 -1542h-86l-166 1542h86z" />
    <glyph glyph-name="bracketright" unicode="]" horiz-adv-x="495" 
d="M584 1280h-166l16 55h332l-412 -1552h-331l12 53h166z" />
    <glyph glyph-name="asciicircum" unicode="^" horiz-adv-x="602" 
d="M446 1047h-90l295 419l58 86l86 -505h-90l-52 288z" />
    <glyph glyph-name="underscore" unicode="_" horiz-adv-x="1056" 
d="M975 2h-893l20 80h893z" />
    <glyph glyph-name="grave" unicode="`" horiz-adv-x="483" 
d="M496 1559q7 28 38 47.5t64 19.5q61 0 72 -57l63 -324h-53l-174 254q-16 29 -10 60z" />
    <glyph glyph-name="a" unicode="a" horiz-adv-x="1021" 
d="M924 700q8 3 8 9q11 53 14 95t-4.5 84.5t-36.5 70.5t-78 38q-103 20 -234 -37.5t-220 -154.5q-6 -6 -12.5 -4t-4.5 10l25 94l6 8q194 131 399 158q75 11 152 -1t131 -46q28 -17 45.5 -44t23 -63t6.5 -68t-7 -78t-14 -73t-17 -71l-164 -617q-3 -10 -12 -10h-168
q-9 0 -6 10l41 156l-4 -2q-233 -168 -463 -168q-139 0 -207.5 68.5t-36.5 189.5q23 86 92 147.5t166 97.5t195.5 63t208 62t176.5 76zM297 258q-23 -91 14.5 -138.5t126.5 -47.5q186 0 371 174l4 6l96 371q4 6 -0.5 9.5t-9.5 -1.5q-60 -31 -145.5 -61t-150 -53t-130 -55
t-111 -83t-65.5 -121z" />
    <glyph glyph-name="b" unicode="b" horiz-adv-x="1128" 
d="M498 1540h176q9 0 6 -8l-150 -565q-1 -6 3.5 -8.5t9.5 2.5q66 42 151.5 65t161.5 23q229 0 338.5 -151t48.5 -384q-65 -238 -261 -384t-437 -146q-246 0 -434 118q-2 2 -2 9l376 1421q3 8 13 8zM324 174q38 -55 112 -88t160 -33q81 0 152.5 31.5t125.5 87t92.5 128
t61.5 157.5q20 75 24 148t-10.5 140t-47 117.5t-90 80.5t-134.5 30q-143 0 -264 -109l-4 -6l-180 -678q0 -4 2 -6z" />
    <glyph glyph-name="c" unicode="c" horiz-adv-x="1009" 
d="M852 1055q150 0 250 -74.5t100 -210.5q2 -7 -6 -10l-20 -12q-11 -4 -11 4q-19 112 -96.5 173.5t-210.5 61.5q-184 0 -318.5 -114.5t-181.5 -297.5q-53 -210 56 -347.5t315 -137.5q153 0 295 78q5 3 10 -2q9 -12 6 -21q-6 -8 -31 -23.5t-49 -28t-55.5 -28t-32.5 -16.5
q-83 -30 -108 -35q-24 -8 -135 -22q-7 0 -24 -1t-25 -1q-111 0 -203 36.5t-151.5 105.5t-80 167t10.5 221q40 150 147.5 274t253.5 194t295 67z" />
    <glyph glyph-name="d" unicode="d" horiz-adv-x="1122" 
d="M827 1065q73 0 148 -21.5t117 -60.5q2 -7 10 1q4 3 4 7l147 557q3 8 11 8h176q11 0 8 -8l-406 -1538q-3 -10 -12 -10h-176q-9 0 -6 10l18 76q2 5 -3 7.5t-9 -1.5q-66 -43 -152.5 -67.5t-162.5 -24.5q-95 0 -171 26.5t-125 74t-77.5 113.5t-29 145t21.5 169
q42 149 133 269t231.5 194t304.5 74zM367 592q-22 -75 -25.5 -148.5t13 -139t50.5 -115.5t93 -79.5t135 -29.5q144 0 258 108l4 7l182 686v8q-37 50 -104.5 79t-145.5 29q-166 0 -289.5 -113t-170.5 -292z" />
    <glyph glyph-name="e" unicode="e" horiz-adv-x="1093" 
d="M156 520q32 121 105.5 224t168 169.5t201 104t209.5 37.5q220 0 323.5 -147.5t46.5 -379.5l-2 -10q-3 -10 -14 -10h-840q-13 0 -10 -10q-17 -178 95 -292t296 -114q151 0 289 76q5 3 10 -2l6 -10q2 -1 1 -6t-5 -9q-213 -151 -456 -151q-111 0 -203 36.5t-151.5 105.5
t-80 167t10.5 221zM360 580q-4 -11 7 -11h671q9 0 9 9q35 74 39 147.5t-21 131.5t-83.5 94t-141.5 36q-176 0 -306.5 -116t-173.5 -291z" />
    <glyph glyph-name="f" unicode="f" horiz-adv-x="585" 
d="M256 973l12 43q3 8 15 8h116q8 0 11 10q24 79 68.5 160.5t103.5 152.5t134.5 115.5t151.5 44.5q79 0 156 -53q3 -7 2 -8l-14 -53q-2 -6 -8 -8.5t-11 1.5q-43 74 -119 74q-31 0 -83 -22q-142 -74 -193 -301q-6 -12 -5 -62.5t13 -50.5h238q9 0 6 -8l-12 -43q-3 -10 -13 -10
h-231q-10 0 -10 -9l-250 -944q-3 -10 -12 -10h-175q-11 0 -8 10l250 944q0 9 -8 9h-117q-11 0 -8 10z" />
    <glyph glyph-name="g" unicode="g" horiz-adv-x="1253" 
d="M1534 1094q9 0 5 -12q-4 -6 -9 -7l-178 -102h-9h-186q-4 0 -6 -4.5t-1 -9.5t5 -5q4 -3 10 -12.5t11 -13.5q104 -125 63 -279q-20 -75 -70.5 -145t-127 -127.5t-188 -92t-239.5 -34.5q-162 0 -254 57q-2 0 -4 -2l-6 -8q-148 -103 -162 -158q-5 -21 7 -34t52.5 -19
t110.5 -2l263 10q92 1 165.5 -10.5t121.5 -34.5t82 -55t47 -71t15 -82.5t-12 -90.5q-30 -105 -130 -188.5t-242 -128.5t-299 -45q-226 0 -347 74.5t-85 203.5q46 169 249 193q9 7 10.5 2.5t-1.5 -11.5q-59 -97 -62.5 -174.5t41.5 -125t121 -72.5t176 -25q159 0 286 65
t152 158q21 78 -13.5 127.5t-107.5 83.5q-21 8 -50 14.5t-43 9t-55.5 8t-43.5 5.5h-289q-94 0 -137 10q-60 10 -96 36t-21 77l2 8q22 88 252 260q10 7 11 10t-7 9q-74 55 -99 139.5t1 175.5q20 75 72 145t128.5 127.5t184 92.5t227.5 35h21.5h21.5h19t20 -0.5t17.5 -1.5
t18.5 -2t16 -2.5t16.5 -3.5t15 -5t15.5 -6h10q65 0 231 22t287 44zM666 307q89 0 178 74q91 73 146.5 184.5t51 221t-78.5 167.5q-88 76 -199 53t-223 -135q-118 -124 -133 -249q-28 -142 51 -239t207 -77z" />
    <glyph glyph-name="h" unicode="h" horiz-adv-x="1105" 
d="M84 10l401 1518q3 8 13 8h176q9 0 6 -8l-164 -621q-2 -7 1.5 -9.5t10.5 1.5q105 66 228 105.5t227 39.5q184 0 226.5 -95t-25.5 -333l-158 -606q-3 -10 -12 -10h-176q-10 0 -7 10l156 594q12 44 18.5 70.5t14.5 69.5t6 76.5t-14 56.5q-24 75 -148 75q-85 0 -189 -40
t-186 -109l-4 -6l-206 -787q-3 -10 -11 -10h-176q-11 0 -8 10z" />
    <glyph glyph-name="i" unicode="i" horiz-adv-x="399" 
d="M373 1034q3 10 10 10h178q11 0 8 -10l-272 -1026q0 -8 -10 -8h-176q-9 0 -9 8q256 970 271 1026zM612 1509q39 -5 59.5 -32t14.5 -68q-8 -56 -59.5 -96t-106.5 -33q-37 6 -56 34t-13 66q10 54 57.5 95t103.5 34z" />
    <glyph glyph-name="j" unicode="j" horiz-adv-x="366" 
d="M-215 -510l4 12q0 6 6 9q112 60 152 109t57 124l344 1303q3 8 12 8h175q11 0 8 -8l-344 -1303q-11 -31 -20.5 -49.5t-34 -45t-69.5 -53t-116 -57.5q-124 -46 -164 -57q-6 -1 -9 1t-1 7zM580 1511q39 -5 59 -32t14 -68q-8 -56 -59 -96t-105 -33q-38 6 -57.5 33.5
t-13.5 64.5q6 57 55.5 97t106.5 34z" />
    <glyph glyph-name="k" unicode="k" horiz-adv-x="1107" 
d="M84 10l401 1518q3 8 13 8h176q9 0 6 -8l-246 -924q0 -5 4.5 -7.5t10.5 1.5l755 461q2 2 8 2h82q5 0 6.5 -3t-0.5 -7t-6 -7q-72 -44 -226 -140.5t-271 -169t-148 -89.5q-5 -5 -2 -14l457 -615q4 -4 1 -10t-9 -6h-244q-2 0 -6 4l-408 549q-8 8 -20 -6l-139 -537
q-3 -10 -11 -10h-176q-11 0 -8 10z" />
    <glyph glyph-name="l" unicode="l" horiz-adv-x="358" 
d="M84 10l401 1516q3 8 11 8q72 2 178 2q9 0 6 -8l-401 -1518q-3 -10 -11 -10h-176q-11 0 -8 10z" />
    <glyph glyph-name="m" unicode="m" horiz-adv-x="1738" 
d="M84 10l270 1026q3 8 13 8h176q9 0 6 -8l-33 -129q-2 -7 1.5 -9.5t10.5 1.5q100 67 208.5 106t199.5 39q115 0 169.5 -37.5t61.5 -127.5q0 -15 13 -5q107 79 226 124.5t222 45.5q172 0 213.5 -95t-24.5 -333l-158 -606q-3 -10 -12 -10h-177q-9 0 -6 10l156 594
q49 173 27 261.5t-134 88.5q-78 0 -170.5 -45t-179.5 -123q-3 -7 -2 -8q-1 -17 -4.5 -38t-7 -35.5t-12 -44.5t-11.5 -44l-157 -606q-3 -10 -13 -10h-176q-9 0 -6 10l156 594q49 173 27 261.5t-134 88.5q-75 0 -165.5 -40t-168.5 -111l-4 -6l-206 -787q-3 -10 -11 -10h-176
q-11 0 -8 10z" />
    <glyph glyph-name="n" unicode="n" horiz-adv-x="1105" 
d="M356 1036q3 8 13 8h172q11 0 8 -8l-33 -129q-2 -7 1.5 -9.5t10.5 1.5q105 66 228 105.5t227 39.5q184 0 226.5 -95t-25.5 -333l-158 -606q-3 -10 -12 -10h-176q-10 0 -7 10l156 594q14 47 22.5 83.5t13.5 79t-1.5 73.5t-22.5 57.5t-50.5 40.5t-84.5 14q-85 0 -189 -40
t-186 -109l-4 -6l-206 -787q-3 -10 -13 -10h-174q-11 0 -8 10q42 163 150 567t122 459z" />
    <glyph glyph-name="o" unicode="o" 
d="M156 520q43 155 155 278t262 190t308 67q115 0 211.5 -39t157.5 -109.5t83 -169t-12 -217.5q-40 -155 -153.5 -277.5t-263.5 -187.5t-306 -65q-118 0 -214 38t-156.5 107.5t-81.5 167t10 217.5zM610 35q163 -12 302 111t198 313q35 107 38.5 206t-22.5 177t-88 127
t-153 55q-113 8 -217 -49.5t-178.5 -156.5t-116.5 -224q-35 -107 -37.5 -205.5t25.5 -175t92 -124.5t157 -54z" />
    <glyph glyph-name="p" unicode="p" horiz-adv-x="1128" 
d="M-55 -526l409 1566q3 9 13 9h176q9 0 6 -9l-19 -73q-1 -6 3.5 -8.5t9.5 2.5q141 88 350 88q211 -12 311 -161.5t39 -373.5q-40 -153 -140.5 -274.5t-240 -188.5t-293.5 -67q-158 0 -264 79q-1 3 -4.5 2.5t-7 -3.5t-4.5 -7l-154 -581q-4 -11 -10 -11h-172q-12 0 -8 11z
M506 862l-6 -6l-178 -676q0 -4 2 -6q37 -57 103 -89t151 -32q167 0 285.5 112.5t164.5 291.5q20 75 24 148t-10.5 140t-47 117.5t-90 80.5t-134.5 30q-144 0 -264 -111z" />
    <glyph glyph-name="q" unicode="q" horiz-adv-x="1124" 
d="M821 1049q160 0 266 -82q1 -3 4.5 -2.5t7.5 3.5t5 7l16 65q3 9 10 9h177q11 0 8 -9l-414 -1566q-4 -11 -12 -11h-176q-10 0 -6 11l157 596q0 14 -14 6q-61 -42 -152 -67t-163 -25q-117 0 -204.5 40.5t-134.5 112t-60 168t20 207.5q26 110 86.5 207.5t145 171t197 116
t236.5 42.5zM629 63q139 0 260 109q4 4 4 6l182 686v8q-38 50 -106 79.5t-146 29.5q-163 0 -288.5 -114t-172.5 -292q-19 -76 -21.5 -148.5t13 -138.5t48.5 -116t91.5 -79.5t135.5 -29.5z" />
    <glyph glyph-name="r" unicode="r" horiz-adv-x="741" 
d="M84 10l270 1026q3 8 13 8h176q9 0 6 -8l-70 -264q-1 -6 4.5 -8.5t10.5 2.5q28 22 92 77t113 92.5t98 65.5q92 49 151 39q42 -6 51 -39q2 -2 2 -6l-43 -166q-1 -7 -10 -8.5t-10 4.5q-11 86 -84 86q-33 0 -75 -16t-89 -46.5t-82.5 -56t-84.5 -64t-66 -50.5l-4 -6l-174 -662
q-3 -10 -11 -10h-176q-11 0 -8 10z" />
    <glyph glyph-name="s" unicode="s" horiz-adv-x="892" 
d="M76 287l6 10l22 12q13 7 13 -4l4 -35q19 -80 80 -134t142.5 -74.5t172.5 -12.5q160 13 221 113q14 19 21 45q10 42 -9.5 78.5t-59 63.5t-92 55.5t-108 53.5t-106 58t-87.5 70t-51.5 88.5t1.5 113.5q17 66 67 118.5t115.5 82.5t131.5 46t128 18q105 5 187.5 -30.5
t119.5 -111.5q21 -45 35 -129q0 -7 -8 -10l-18 -8q-13 -3 -13 4q-2 16 -2 29q-27 92 -90 137q-46 40 -117.5 54.5t-148.5 2.5q-62 -8 -118.5 -46t-72.5 -95q-11 -46 15.5 -86t77.5 -71t114.5 -61.5t125.5 -65.5t110 -75.5t69.5 -99.5t3.5 -129q-16 -63 -61 -113
t-105.5 -80.5t-120.5 -48t-120 -24.5q-185 -22 -318 47q-141 68 -157 244z" />
    <glyph glyph-name="t" unicode="t" horiz-adv-x="624" 
d="M283 1040q53 9 91.5 18.5t81 25.5t74 37.5t61 53.5t50.5 74q6 6 14 6h13q9 0 6 -8l-51 -196q-4 -11 6 -11h209q10 0 10 -8l-12 -43q-3 -10 -13 -10h-209q-11 0 -14 -8l-192 -731q-9 -40 -11.5 -66t2.5 -53.5t27 -41t61 -13.5q45 0 93 31t88 91q3 8 12 5l27 -9q5 -3 2 -12
q-55 -86 -126 -131t-175 -45q-132 0 -176.5 73.5t-8.5 206.5l183 695q3 8 -5 8h-131q-11 0 -8 10l12 43q0 8 9 8z" />
    <glyph glyph-name="u" unicode="u" horiz-adv-x="1105" 
d="M367 1044h176q9 0 6 -8l-160 -606q-31 -120 -32.5 -182.5t30.5 -106.5q34 -51 129 -51q80 0 184.5 42t190.5 112q2 2 2 6l209 786q3 8 10 8h176q11 0 8 -8l-270 -1026q-3 -10 -12 -10h-176q-10 0 -7 10l33 129q2 6 -3 9t-9 -1q-106 -67 -228 -107t-225 -40
q-128 0 -185 37.5t-63.5 129.5t37.5 247l166 622q3 8 13 8z" />
    <glyph glyph-name="v" unicode="v" horiz-adv-x="944" 
d="M291 1044h186q2 0 6 -4l105 -813q6 -12 18 0q68 100 244.5 372.5t279.5 440.5q12 4 13 4h61q9 0 6 -12l-665 -1026q-6 -6 -10 -6h-111q-4 0 -10 6l-135 1026q-3 12 12 12z" />
    <glyph glyph-name="w" unicode="w" horiz-adv-x="1548" 
d="M291 1044h186q2 0 6 -4l105 -813q6 -12 18 0l314 484l2 8l-39 313q-3 12 12 12h188q3 0 7 -4q22 -144 59.5 -462.5t42.5 -350.5q6 -12 18 0l527 811q3 6 10 6h61q5 0 8 -4t-1 -8l-666 -1026q-6 -6 -10 -6h-113q-2 0 -8 6l-76 584q-9 12 -18 0l-379 -584q-6 -6 -10 -6
h-111q-4 0 -10 6q-1 5 -58 431t-77 595q-3 12 12 12z" />
    <glyph glyph-name="x" unicode="x" horiz-adv-x="892" 
d="M289 1049h215q6 0 6 -5l145 -395q3 -9 15 0l403 395q5 5 8 5h72q6 0 8 -6.5t-2 -10.5l-471 -454q-5 -5 -2 -11q3 -9 84.5 -228t116.5 -325q4 -4 0 -9t-10 -5h-218q-6 0 -6 4q-18 50 -52.5 145.5t-58 160.5t-30.5 87q-3 10 -14 2q-14 -14 -88.5 -86.5t-162.5 -159
t-151 -151.5q-2 -2 -8 -2h-74q-6 0 -8 5t2 9l471 459q3 9 2 10q-1 3 -85 224.5t-117 326.5q-4 4 0 9.5t10 5.5z" />
    <glyph glyph-name="y" unicode="y" horiz-adv-x="944" 
d="M293 1051h186q3 0 6 -7q27 -179 107 -786l2 -10q0 -16 16 0q32 50 232 352.5t286 435.5l5 8q11 7 12 7h61q10 0 4 -15q-189 -290 -543 -825.5t-515 -781.5q-4 -7 -9 -7h-77q-16 0 -9 13q48 66 200.5 289t166.5 241q2 2 2 6l-147 1065q3 15 14 15z" />
    <glyph glyph-name="z" unicode="z" horiz-adv-x="948" 
d="M8 14l897 947q6 5 4 10.5t-8 5.5h-553q-7 0 -4 8l12 55q4 11 13 11h841q6 0 7.5 -6.5t-3.5 -10.5l-895 -946q-6 -4 -4.5 -9t7.5 -5h589q13 0 9 -11l-15 -55q0 -8 -10 -8h-881q-6 0 -8 5t2 9z" />
    <glyph glyph-name="braceleft" unicode="{" horiz-adv-x="585" 
d="M438 819q12 46 43 169t51 192q61 232 338 211l-8 -27q-118 -3 -155 -150q-9 -21 -48.5 -185t-48.5 -193q-23 -84 -80 -140t-170 -78q190 -35 138 -215q-18 -67 -56.5 -192.5t-54.5 -185.5q-19 -69 2 -110t78 -42l-4 -25q-146 -10 -202.5 42.5t-24.5 168.5q16 61 48 180.5
t48 180.5q13 49 13 87t-25 67t-76 44q89 23 130.5 72t63.5 129z" />
    <glyph glyph-name="bar" unicode="|" horiz-adv-x="243" 
d="M102 -217h-79l411 1552h80z" />
    <glyph glyph-name="braceright" unicode="}" horiz-adv-x="585" 
d="M674 1180q-38 -132 -99 -361q-11 -47 -12.5 -85.5t24 -69t79.5 -46.5q-86 -19 -130 -68.5t-67 -129.5l-92 -361q-65 -232 -336 -211l4 25q117 3 158 152q16 61 46 186.5t48 191.5q49 180 250 215q-187 44 -135 218q8 24 53.5 190t54.5 188q37 147 -80 150l9 27
q143 11 199.5 -41.5t25.5 -169.5z" />
    <glyph glyph-name="asciitilde" unicode="~" horiz-adv-x="962" 
d="M229 565l25 99q103 71 190 71q51 0 109 -22.5t101.5 -49t102 -49t111.5 -22.5q96 0 185 72l-25 -99q-95 -71 -186 -71q-53 0 -111.5 22t-102 48.5t-101.5 48.5t-109 22q-96 0 -189 -70z" />
    <glyph glyph-name="uni00A0" unicode="&#xa0;" horiz-adv-x="651" 
 />
    <glyph glyph-name="dieresis" unicode="&#xa8;" horiz-adv-x="663" 
d="M438 1354q11 43 49 75.5t82 32.5q48 0 73 -30.5t13 -77.5t-52 -78t-85 -31q-47 0 -69.5 31t-10.5 78zM721 1354q12 44 52.5 75t84.5 31q45 0 68.5 -31t11.5 -75q-12 -47 -52 -78t-85 -31t-68.5 31t-11.5 78z" />
    <glyph glyph-name="copyright" unicode="&#xa9;" horiz-adv-x="847" 
d="M369 1092q37 142 164.5 242t267.5 100q142 0 215.5 -99.5t36.5 -242.5q-37 -142 -164.5 -243t-267.5 -101q-142 0 -215.5 100.5t-36.5 243.5zM406 1092q-32 -127 33 -217.5t192 -90.5q126 0 239.5 91t145.5 217q32 127 -32.5 216t-192.5 89q-126 0 -239.5 -89.5
t-145.5 -215.5zM524 1092l4 8v8l2 2q8 8 11 27q1 0 4 8q4 4 4 6t4 6v2l6 12l8 11q2 2 4 6l7 8q8 13 28 29l4 6q23 19 45 29q0 2 2 2q5 0 7 2l4 1q3 1 4 5q2 0 4 2q4 0 6 2q8 0 8 2h4q1 0 3 1t3 1q0 -3 7 4q4 0 6 2q6 2 20 4h4q2 2 6 2h9h6q4 0 6 2h8q68 0 109 -20q4 0 4 -6
q-18 -53 -19 -54q-6 -6 -10 -2q-12 30 -31 42t-55 12q-58 0 -106.5 -46t-71.5 -126q-20 -78 4 -124t82 -46q77 0 117 53q8 5 8 -2l-10 -55l-7 -5q-7 -3 -21.5 -6t-21.5 -6q-7 -1 -35 -4.5t-44 -3.5h-9h-4q-4 0 -6 2h-8q0 2 -2 2h-4q-3 3 -11.5 4t-13.5 4h-4q-14 4 -16 6
q0 2 -4 2l-2 5q-6 0 -9 6q-6 0 -6 2q-3 1 -4 2.5t-4 1.5q-2 6 -8 12l-2 2q-6 0 -2 4l-6 4q-15 21 -15 41q-4 4 -4 6q-2 3 0 5q-2 0 -2 4v4v14q-2 6 -2 14l6 31q-2 2 -2 6l2 6z" />
    <glyph glyph-name="uni00AD" unicode="&#xad;" horiz-adv-x="0" 
 />
    <glyph glyph-name="registered" unicode="&#xae;" horiz-adv-x="860" 
d="M367 1085q37 141 167.5 244t272.5 103q144 0 218.5 -102.5t37.5 -244.5t-167 -245t-273 -103q-141 0 -217 103t-39 245zM637 786q122 0 235 88t142 211q36 123 -30 209t-189 86q-124 0 -232 -85t-145 -210q-30 -126 32 -212.5t187 -86.5zM549 909l96 371h127
q69 0 98 -24.5t17 -71.5q-18 -74 -115 -92l62 -121q15 -28 23 -37t24 -10l-2 -15h-35h-19q-8 0 -10 2q-1 0 -3 0.5t-6.5 1.5t-10.5 2q-15 9 -25 29l-76 143h-37l-45 -178h-63zM700 1247l-32 -125h55q83 0 98 62q7 32 -9 47.5t-56 15.5h-56z" />
    <glyph glyph-name="plusminus" unicode="&#xb1;" horiz-adv-x="993" 
d="M629 678h-369l23 92h368l94 350h93l-95 -350h369l-22 -92h-369l-103 -387h-92zM946 137h-829l22 92h830z" />
    <glyph glyph-name="acute" unicode="&#xb4;" horiz-adv-x="485" 
d="M401 1245l236 324q42 57 100 57q36 0 55.5 -19t12.5 -48q-7 -33 -41 -60l-309 -254h-54z" />
    <glyph glyph-name="cedilla" unicode="&#xb8;" horiz-adv-x="505" 
d="M-4 -324l18 25q53 -45 111 -45q42 0 72.5 23t38.5 59q12 42 -15 76.5t-94 44.5l129 174h63l-81 -111q153 -52 120 -158q-19 -75 -83 -117t-140 -42q-45 0 -83 18t-56 53z" />
    <glyph glyph-name="Agrave" unicode="&#xc0;" 
d="M8 12q209 350 443 715q37 61 146.5 236.5t170.5 277.5l117 186q0 7 8 7h182q7 0 10 -7q3 -19 10 -112.5t20 -257t24 -293.5q47 -615 63 -752q0 -12 -10 -12h-193q-8 0 -8 6q-14 109 -30 352t-17 250q-3 6 -10 6h-469q-7 0 -10 -6l-373 -602q0 -6 -8 -6h-60q-12 0 -6 12z
M518 686h404q10 0 10 12l-45 576q-9 13 -19 0l-356 -576q-6 -12 6 -12zM954 1944q7 28 38.5 47.5t64.5 19.5q61 0 69 -57l66 -324h-53l-174 254q-20 30 -11 60z" />
    <glyph glyph-name="Aacute" unicode="&#xc1;" 
d="M8 12q209 350 443 715q37 61 146.5 236.5t170.5 277.5l117 186q0 7 8 7h182q7 0 10 -7q3 -19 10 -112.5t20 -257t24 -293.5q47 -615 63 -752q0 -12 -10 -12h-193q-8 0 -8 6q-14 109 -30 352t-17 250q-3 6 -10 6h-469q-7 0 -10 -6l-373 -602q0 -6 -8 -6h-60q-12 0 -6 12z
M518 686h404q10 0 10 12l-45 576q-9 13 -19 0l-356 -576q-6 -12 6 -12zM872 1630l234 324q43 57 102 57q36 0 55.5 -19t12.5 -48q-9 -35 -41 -60l-309 -254h-54z" />
    <glyph glyph-name="Acircumflex" unicode="&#xc2;" 
d="M8 12q209 350 443 715q37 61 146.5 236.5t170.5 277.5l117 186q0 7 8 7h182q7 0 10 -7q3 -19 10 -112.5t20 -257t24 -293.5q47 -615 63 -752q0 -12 -10 -12h-193q-8 0 -8 6q-14 109 -30 352t-17 250q-3 6 -10 6h-469q-7 0 -10 -6l-373 -602q0 -6 -8 -6h-60q-12 0 -6 12z
M518 686h404q10 0 10 12l-45 576q-9 13 -19 0l-356 -576q-6 -12 6 -12zM799 1630l243 334q35 47 91 47q53 0 67 -47l68 -334h-51l-121 238l-246 -238h-51z" />
    <glyph glyph-name="Atilde" unicode="&#xc3;" 
d="M8 12q209 350 443 715q37 61 146.5 236.5t170.5 277.5l117 186q0 7 8 7h182q7 0 10 -7q3 -19 10 -112.5t20 -257t24 -293.5q47 -615 63 -752q0 -12 -10 -12h-193q-8 0 -8 6q-14 109 -30 352t-17 250q-3 6 -10 6h-469q-7 0 -10 -6l-373 -602q0 -6 -8 -6h-60q-12 0 -6 12z
M518 686h404q10 0 10 12l-45 576q-9 13 -19 0l-356 -576q-6 -12 6 -12zM772 1649h-51q23 93 68 130.5t110 37.5q64 0 190.5 -43t170.5 -43q70 0 83 65h50q-42 -166 -176 -166q-66 0 -193 43t-170 43q-64 0 -82 -67z" />
    <glyph glyph-name="Adieresis" unicode="&#xc4;" 
d="M8 12q209 350 443 715q37 61 146.5 236.5t170.5 277.5l117 186q0 7 8 7h182q7 0 10 -7q3 -19 10 -112.5t20 -257t24 -293.5q47 -615 63 -752q0 -12 -10 -12h-193q-8 0 -8 6q-14 109 -30 352t-17 250q-3 6 -10 6h-469q-7 0 -10 -6l-373 -602q0 -6 -8 -6h-60q-12 0 -6 12z
M518 686h404q10 0 10 12l-45 576q-9 13 -19 0l-356 -576q-6 -12 6 -12zM811 1739q11 43 49 75.5t82 32.5q48 0 73 -30.5t13 -77.5t-52 -78t-85 -31q-47 0 -69.5 31t-10.5 78zM1094 1739q12 44 52.5 75t84.5 31q45 0 68.5 -31t11.5 -75q-12 -47 -52 -78t-85 -31t-68.5 31
t-11.5 78z" />
    <glyph glyph-name="Aring" unicode="&#xc5;" 
d="M8 12q209 350 443 715q37 61 146.5 236.5t170.5 277.5l117 186q0 7 8 7h182q7 0 10 -7q3 -19 10 -112.5t20 -257t24 -293.5q47 -615 63 -752q0 -12 -10 -12h-193q-8 0 -8 6q-14 109 -30 352t-17 250q-3 6 -10 6h-469q-7 0 -10 -6l-373 -602q0 -6 -8 -6h-60q-12 0 -6 12z
M518 686h404q10 0 10 12l-45 576q-9 13 -19 0l-356 -576q-6 -12 6 -12zM772 1677q32 116 131.5 195.5t214.5 79.5q111 0 172 -80.5t29 -194.5q-29 -113 -130.5 -192.5t-215.5 -79.5q-115 0 -172.5 79.5t-28.5 192.5zM993 1479q81 0 152 57.5t96 140.5q23 82 -19 139.5
t-124 57.5q-81 0 -152 -57t-96 -140q-24 -81 19.5 -139.5t123.5 -58.5z" />
    <glyph glyph-name="AE" unicode="&#xc6;" horiz-adv-x="2105" 
d="M8 12q209 350 443 715q37 61 146.5 236.5t170.5 277.5l117 186q0 7 8 7h182q7 0 10 -7q3 -19 10 -112.5t20 -257t24 -293.5q47 -615 63 -752q0 -12 -10 -12h-193q-8 0 -8 6q-14 109 -30 352t-17 250q-3 6 -10 6h-469q-7 0 -10 -6l-373 -602q0 -6 -8 -6h-60q-12 0 -6 12z
M518 686h404q10 0 10 12l-45 576q-9 13 -19 0l-356 -576q-6 -12 6 -12zM1290 10l373 1413q4 11 12 11h795q12 0 8 -11l-14 -55q-3 -8 -13 -8h-598q-7 0 -10 -10l-149 -562q-3 -10 4 -10h471q11 0 8 -8l-12 -55q-3 -10 -13 -10h-469q-11 0 -14 -9l-162 -612q-3 -10 6 -10h596
q5 0 7.5 -2t1.5 -6l-13 -56q-3 -10 -12 -10h-795q-11 0 -8 10z" />
    <glyph glyph-name="Ccedilla" unicode="&#xc7;" horiz-adv-x="1323" 
d="M686 1331q248 136 500 121q155 -10 254.5 -93t130.5 -224q-3 -10 -10 -13l-21 -8q-8 -3 -8 4q-32 145 -132 208t-284 63q-79 0 -159.5 -22.5t-160 -69.5t-148 -114.5t-124.5 -163.5t-88 -210q-42 -157 -23 -290t81.5 -230t167.5 -151t235 -54q248 0 467 184q6 9 12 0
l6 -6q3 -7 -2 -12q-133 -133 -294 -201.5t-330 -68.5q-152 0 -274 54t-195.5 151.5t-97.5 233t20 298.5q51 193 172 353t305 261zM401 -324l21 25q53 -45 110 -45q42 0 72.5 23t38.5 59q12 42 -14.5 76.5t-93.5 44.5l129 174h63l-82 -111q81 -27 108.5 -69t12.5 -89
q-19 -75 -83 -117t-140 -42q-45 0 -84 18t-58 53z" />
    <glyph glyph-name="Egrave" unicode="&#xc8;" horiz-adv-x="899" 
d="M84 10l373 1413q4 11 12 11h795q12 0 8 -11l-15 -55q-3 -8 -12 -8h-598q-7 0 -10 -10l-150 -562q-3 -10 5 -10h471q11 0 8 -8l-13 -55q-3 -10 -12 -10h-469q-11 0 -14 -9l-162 -612q-3 -10 6 -10h596q11 0 8 -8l-12 -56q-3 -10 -12 -10h-795q-11 0 -8 10zM801 1944
q7 28 38 47.5t64 19.5q62 0 70 -57l65 -324h-53l-174 254q-19 29 -10 60z" />
    <glyph glyph-name="Eacute" unicode="&#xc9;" horiz-adv-x="899" 
d="M84 10l373 1413q4 11 12 11h795q12 0 8 -11l-15 -55q-3 -8 -12 -8h-598q-7 0 -10 -10l-150 -562q-3 -10 5 -10h471q11 0 8 -8l-13 -55q-3 -10 -12 -10h-469q-11 0 -14 -9l-162 -612q-3 -10 6 -10h596q11 0 8 -8l-12 -56q-3 -10 -12 -10h-795q-11 0 -8 10zM719 1630
l233 324q43 57 103 57q36 0 55 -19t12 -48q-9 -35 -41 -60l-309 -254h-53z" />
    <glyph glyph-name="Ecircumflex" unicode="&#xca;" horiz-adv-x="899" 
d="M84 10l373 1413q4 11 12 11h795q12 0 8 -11l-15 -55q-3 -8 -12 -8h-598q-7 0 -10 -10l-150 -562q-3 -10 5 -10h471q11 0 8 -8l-13 -55q-3 -10 -12 -10h-469q-11 0 -14 -9l-162 -612q-3 -10 6 -10h596q11 0 8 -8l-12 -56q-3 -10 -12 -10h-795q-11 0 -8 10zM645 1630
l244 334q35 47 90 47q54 0 68 -47l67 -334h-51l-121 238l-246 -238h-51z" />
    <glyph glyph-name="Edieresis" unicode="&#xcb;" horiz-adv-x="899" 
d="M84 10l373 1413q4 11 12 11h795q12 0 8 -11l-15 -55q-3 -8 -12 -8h-598q-7 0 -10 -10l-150 -562q-3 -10 5 -10h471q11 0 8 -8l-13 -55q-3 -10 -12 -10h-469q-11 0 -14 -9l-162 -612q-3 -10 6 -10h596q11 0 8 -8l-12 -56q-3 -10 -12 -10h-795q-11 0 -8 10zM657 1739
q11 43 49 75.5t82 32.5q48 0 73 -30.5t13 -77.5t-52 -78t-85 -31q-47 0 -69.5 31t-10.5 78zM940 1739q12 44 52.5 75t84.5 31q45 0 68.5 -31t11.5 -75q-12 -47 -52 -78t-85 -31t-68.5 31t-11.5 78z" />
    <glyph glyph-name="Igrave" unicode="&#xcc;" horiz-adv-x="362" 
d="M82 0l375 1425q3 9 12 9h178q11 0 8 -9l-372 -1415q-3 -10 -11 -10h-190zM535 1944q7 28 38 47.5t64 19.5q62 0 70 -57l65 -324h-53l-174 254q-19 29 -10 60z" />
    <glyph glyph-name="Iacute" unicode="&#xcd;" horiz-adv-x="362" 
d="M82 0l375 1425q3 9 12 9h178q11 0 8 -9l-372 -1415q-3 -10 -11 -10h-190zM451 1630l233 324q43 57 102 57q36 0 55.5 -19t12.5 -48q-9 -35 -41 -60l-309 -254h-53z" />
    <glyph glyph-name="Icircumflex" unicode="&#xce;" horiz-adv-x="362" 
d="M82 0l375 1425q3 9 12 9h178q11 0 8 -9l-372 -1415q-3 -10 -11 -10h-190zM377 1630l244 334q35 47 90 47q53 0 67 -47l68 -334h-51l-121 238l-246 -238h-51z" />
    <glyph glyph-name="Idieresis" unicode="&#xcf;" horiz-adv-x="362" 
d="M82 0l375 1425q3 9 12 9h178q11 0 8 -9l-372 -1415q-3 -10 -11 -10h-190zM391 1739q11 43 49 75.5t82 32.5q48 0 73 -30.5t13 -77.5t-52 -78t-85 -31q-47 0 -69.5 31t-10.5 78zM674 1739q12 44 52.5 75t84.5 31q45 0 68.5 -31t11.5 -75q-12 -47 -52 -78t-85 -31t-68.5 31
t-11.5 78z" />
    <glyph glyph-name="Ntilde" unicode="&#xd1;" horiz-adv-x="1261" 
d="M86 27l369 1380q3 27 30 27h162q10 0 21 -11l487 -1056q7 -11 16 -11q27 0 33 27l275 1024q3 27 30 27h21q25 0 22 -27l-368 -1380q-3 -27 -31 -27h-61q-18 0 -21 10l-551 1196q-7 11 -16 11q-26 0 -35 -27l-309 -1163q-3 -27 -31 -27h-20q-26 0 -23 27zM801 1649h-51
q23 93 68 130.5t110 37.5q64 0 190 -43t170 -43q71 0 84 65h49q-42 -166 -176 -166q-66 0 -192.5 43t-169.5 43q-64 0 -82 -67z" />
    <glyph glyph-name="Ograve" unicode="&#xd2;" horiz-adv-x="1568" 
d="M225 756q65 212 208.5 377.5t344.5 256.5t422 83q131 -5 237.5 -45t178 -110t110.5 -164t39 -211.5t-41 -246.5q-49 -161 -145.5 -297t-223.5 -230t-283.5 -144.5t-321.5 -44.5q-132 5 -238.5 45.5t-176.5 110t-110 165t-38.5 210t38.5 245.5zM758 37q100 -12 205.5 18
t202 96t175.5 176t121 246q56 172 69 315.5t-17.5 254.5t-116.5 179.5t-223 82.5q-99 10 -202 -21.5t-197 -99t-175 -177t-131 -245.5q-58 -146 -70 -287t20.5 -255t119.5 -190.5t219 -92.5zM1137 1944q7 28 38 47.5t64 19.5q62 0 70 -57l65 -324h-53l-174 254
q-19 29 -10 60z" />
    <glyph glyph-name="Oacute" unicode="&#xd3;" horiz-adv-x="1568" 
d="M225 756q65 212 208.5 377.5t344.5 256.5t422 83q131 -5 237.5 -45t178 -110t110.5 -164t39 -211.5t-41 -246.5q-49 -161 -145.5 -297t-223.5 -230t-283.5 -144.5t-321.5 -44.5q-132 5 -238.5 45.5t-176.5 110t-110 165t-38.5 210t38.5 245.5zM758 37q100 -12 205.5 18
t202 96t175.5 176t121 246q56 172 69 315.5t-17.5 254.5t-116.5 179.5t-223 82.5q-99 10 -202 -21.5t-197 -99t-175 -177t-131 -245.5q-58 -146 -70 -287t20.5 -255t119.5 -190.5t219 -92.5zM1053 1630l233 324q43 57 103 57q36 0 55 -19t12 -48q-9 -35 -41 -60l-309 -254
h-53z" />
    <glyph glyph-name="Ocircumflex" unicode="&#xd4;" horiz-adv-x="1568" 
d="M225 756q65 212 208.5 377.5t344.5 256.5t422 83q131 -5 237.5 -45t178 -110t110.5 -164t39 -211.5t-41 -246.5q-49 -161 -145.5 -297t-223.5 -230t-283.5 -144.5t-321.5 -44.5q-132 5 -238.5 45.5t-176.5 110t-110 165t-38.5 210t38.5 245.5zM758 37q100 -12 205.5 18
t202 96t175.5 176t121 246q56 172 69 315.5t-17.5 254.5t-116.5 179.5t-223 82.5q-99 10 -202 -21.5t-197 -99t-175 -177t-131 -245.5q-58 -146 -70 -287t20.5 -255t119.5 -190.5t219 -92.5zM979 1630l244 334q35 47 90 47q53 0 67 -47l68 -334h-51l-121 238l-246 -238h-51z
" />
    <glyph glyph-name="Otilde" unicode="&#xd5;" horiz-adv-x="1568" 
d="M225 756q65 212 208.5 377.5t344.5 256.5t422 83q131 -5 237.5 -45t178 -110t110.5 -164t39 -211.5t-41 -246.5q-49 -161 -145.5 -297t-223.5 -230t-283.5 -144.5t-321.5 -44.5q-132 5 -238.5 45.5t-176.5 110t-110 165t-38.5 210t38.5 245.5zM758 37q100 -12 205.5 18
t202 96t175.5 176t121 246q56 172 69 315.5t-17.5 254.5t-116.5 179.5t-223 82.5q-99 10 -202 -21.5t-197 -99t-175 -177t-131 -245.5q-58 -146 -70 -287t20.5 -255t119.5 -190.5t219 -92.5zM954 1649h-51q23 93 68 130.5t110 37.5q64 0 190.5 -43t170.5 -43q71 0 84 65h49
q-42 -166 -176 -166q-66 0 -193 43t-170 43q-64 0 -82 -67z" />
    <glyph glyph-name="Odieresis" unicode="&#xd6;" horiz-adv-x="1568" 
d="M225 756q65 212 208.5 377.5t344.5 256.5t422 83q131 -5 237.5 -45t178 -110t110.5 -164t39 -211.5t-41 -246.5q-49 -161 -145.5 -297t-223.5 -230t-283.5 -144.5t-321.5 -44.5q-132 5 -238.5 45.5t-176.5 110t-110 165t-38.5 210t38.5 245.5zM758 37q100 -12 205.5 18
t202 96t175.5 176t121 246q56 172 69 315.5t-17.5 254.5t-116.5 179.5t-223 82.5q-99 10 -202 -21.5t-197 -99t-175 -177t-131 -245.5q-58 -146 -70 -287t20.5 -255t119.5 -190.5t219 -92.5zM993 1739q11 43 49 75.5t82 32.5q48 0 73 -30.5t13 -77.5t-52 -78t-85 -31
q-47 0 -69.5 31t-10.5 78zM1276 1739q12 44 52.5 75t84.5 31q45 0 68.5 -31t11.5 -75q-12 -47 -52 -78t-85 -31t-68.5 31t-11.5 78z" />
    <glyph glyph-name="Ugrave" unicode="&#xd9;" horiz-adv-x="1226" 
d="M469 1434h180q10 0 6 -11l-229 -870q-34 -135 -32.5 -230.5t40.5 -155.5t100 -88t146 -28q180 0 325 130t212 374l229 868q4 11 10 11h55q13 0 9 -11l-226 -852q-79 -291 -259.5 -441t-416.5 -150q-109 0 -195.5 34.5t-146 108t-71.5 186.5t28 271l224 843q4 11 12 11z
M965 1944q7 28 38 47.5t64 19.5q62 0 70 -57l65 -324h-53l-174 254q-19 29 -10 60z" />
    <glyph glyph-name="Uacute" unicode="&#xda;" horiz-adv-x="1226" 
d="M469 1434h180q10 0 6 -11l-229 -870q-34 -135 -32.5 -230.5t40.5 -155.5t100 -88t146 -28q180 0 325 130t212 374l229 868q4 11 10 11h55q13 0 9 -11l-226 -852q-79 -291 -259.5 -441t-416.5 -150q-109 0 -195.5 34.5t-146 108t-71.5 186.5t28 271l224 843q4 11 12 11z
M883 1630l233 324q43 57 103 57q36 0 55 -19t12 -48q-9 -35 -41 -60l-309 -254h-53z" />
    <glyph glyph-name="Ucircumflex" unicode="&#xdb;" horiz-adv-x="1226" 
d="M469 1434h180q10 0 6 -11l-229 -870q-34 -135 -32.5 -230.5t40.5 -155.5t100 -88t146 -28q180 0 325 130t212 374l229 868q4 11 10 11h55q13 0 9 -11l-226 -852q-79 -291 -259.5 -441t-416.5 -150q-109 0 -195.5 34.5t-146 108t-71.5 186.5t28 271l224 843q4 11 12 11z
M809 1630l244 334q35 47 90 47q53 0 67 -47l68 -334h-51l-121 238l-246 -238h-51z" />
    <glyph glyph-name="Udieresis" unicode="&#xdc;" horiz-adv-x="1226" 
d="M469 1434h180q10 0 6 -11l-229 -870q-34 -135 -32.5 -230.5t40.5 -155.5t100 -88t146 -28q180 0 325 130t212 374l229 868q4 11 10 11h55q13 0 9 -11l-226 -852q-79 -291 -259.5 -441t-416.5 -150q-109 0 -195.5 34.5t-146 108t-71.5 186.5t28 271l224 843q4 11 12 11z
M821 1739q11 43 49 75.5t82 32.5q48 0 73 -30.5t13 -77.5t-52 -78t-85 -31q-47 0 -69.5 31t-10.5 78zM1104 1739q12 44 52.5 75t84.5 31q45 0 68.5 -31t11.5 -75q-12 -47 -52 -78t-85 -31t-68.5 31t-11.5 78z" />
    <glyph glyph-name="agrave" unicode="&#xe0;" horiz-adv-x="1021" 
d="M924 700q8 3 8 9q11 53 14 95t-4.5 84.5t-36.5 70.5t-78 38q-103 20 -234 -37.5t-220 -154.5q-6 -6 -12.5 -4t-4.5 10l25 94l6 8q194 131 399 158q75 11 152 -1t131 -46q28 -17 45.5 -44t23 -63t6.5 -68t-7 -78t-14 -73t-17 -71l-164 -617q-3 -10 -12 -10h-168
q-9 0 -6 10l41 156l-4 -2q-233 -168 -463 -168q-139 0 -207.5 68.5t-36.5 189.5q23 86 92 147.5t166 97.5t195.5 63t208 62t176.5 76zM297 258q-23 -91 14.5 -138.5t126.5 -47.5q186 0 371 174l4 6l96 371q4 6 -0.5 9.5t-9.5 -1.5q-60 -31 -145.5 -61t-150 -53t-130 -55
t-111 -83t-65.5 -121zM764 1559q7 28 38 47.5t64 19.5q61 0 72 -57l63 -324h-53l-174 254q-16 29 -10 60z" />
    <glyph glyph-name="aacute" unicode="&#xe1;" horiz-adv-x="1021" 
d="M924 700q8 3 8 9q11 53 14 95t-4.5 84.5t-36.5 70.5t-78 38q-103 20 -234 -37.5t-220 -154.5q-6 -6 -12.5 -4t-4.5 10l25 94l6 8q194 131 399 158q75 11 152 -1t131 -46q28 -17 45.5 -44t23 -63t6.5 -68t-7 -78t-14 -73t-17 -71l-164 -617q-3 -10 -12 -10h-168
q-9 0 -6 10l41 156l-4 -2q-233 -168 -463 -168q-139 0 -207.5 68.5t-36.5 189.5q23 86 92 147.5t166 97.5t195.5 63t208 62t176.5 76zM297 258q-23 -91 14.5 -138.5t126.5 -47.5q186 0 371 174l4 6l96 371q4 6 -0.5 9.5t-9.5 -1.5q-60 -31 -145.5 -61t-150 -53t-130 -55
t-111 -83t-65.5 -121zM678 1245l235 324q42 57 101 57q36 0 55 -19t12 -48q-7 -33 -41 -60l-309 -254h-53z" />
    <glyph glyph-name="acircumflex" unicode="&#xe2;" horiz-adv-x="1021" 
d="M924 700q8 3 8 9q11 53 14 95t-4.5 84.5t-36.5 70.5t-78 38q-103 20 -234 -37.5t-220 -154.5q-6 -6 -12.5 -4t-4.5 10l25 94l6 8q194 131 399 158q75 11 152 -1t131 -46q28 -17 45.5 -44t23 -63t6.5 -68t-7 -78t-14 -73t-17 -71l-164 -617q-3 -10 -12 -10h-168
q-9 0 -6 10l41 156l-4 -2q-233 -168 -463 -168q-139 0 -207.5 68.5t-36.5 189.5q23 86 92 147.5t166 97.5t195.5 63t208 62t176.5 76zM297 258q-23 -91 14.5 -138.5t126.5 -47.5q186 0 371 174l4 6l96 371q4 6 -0.5 9.5t-9.5 -1.5q-60 -31 -145.5 -61t-150 -53t-130 -55
t-111 -83t-65.5 -121zM604 1245l244 334q35 47 90 47q58 0 68 -47l67 -334h-51l-121 238l-246 -238h-51z" />
    <glyph glyph-name="atilde" unicode="&#xe3;" horiz-adv-x="1021" 
d="M924 700q8 3 8 9q11 53 14 95t-4.5 84.5t-36.5 70.5t-78 38q-103 20 -234 -37.5t-220 -154.5q-6 -6 -12.5 -4t-4.5 10l25 94l6 8q194 131 399 158q75 11 152 -1t131 -46q28 -17 45.5 -44t23 -63t6.5 -68t-7 -78t-14 -73t-17 -71l-164 -617q-3 -10 -12 -10h-168
q-9 0 -6 10l41 156l-4 -2q-233 -168 -463 -168q-139 0 -207.5 68.5t-36.5 189.5q23 86 92 147.5t166 97.5t195.5 63t208 62t176.5 76zM297 258q-23 -91 14.5 -138.5t126.5 -47.5q186 0 371 174l4 6l96 371q4 6 -0.5 9.5t-9.5 -1.5q-60 -31 -145.5 -61t-150 -53t-130 -55
t-111 -83t-65.5 -121zM578 1264h-52q23 92 68.5 130t110.5 38q62 0 189.5 -43t170.5 -43q67 0 86 65h49q-45 -166 -178 -166q-65 0 -191.5 43t-168.5 43q-66 0 -84 -67z" />
    <glyph glyph-name="adieresis" unicode="&#xe4;" horiz-adv-x="1021" 
d="M924 700q8 3 8 9q11 53 14 95t-4.5 84.5t-36.5 70.5t-78 38q-103 20 -234 -37.5t-220 -154.5q-6 -6 -12.5 -4t-4.5 10l25 94l6 8q194 131 399 158q75 11 152 -1t131 -46q28 -17 45.5 -44t23 -63t6.5 -68t-7 -78t-14 -73t-17 -71l-164 -617q-3 -10 -12 -10h-168
q-9 0 -6 10l41 156l-4 -2q-233 -168 -463 -168q-139 0 -207.5 68.5t-36.5 189.5q23 86 92 147.5t166 97.5t195.5 63t208 62t176.5 76zM297 258q-23 -91 14.5 -138.5t126.5 -47.5q186 0 371 174l4 6l96 371q4 6 -0.5 9.5t-9.5 -1.5q-60 -31 -145.5 -61t-150 -53t-130 -55
t-111 -83t-65.5 -121zM616 1354q11 43 49.5 75.5t82.5 32.5q48 0 73 -30.5t13 -77.5q-12 -46 -52.5 -77.5t-85.5 -31.5q-47 0 -69.5 31t-10.5 78zM899 1354q12 44 52.5 75t84.5 31q45 0 68.5 -31t11.5 -75q-12 -47 -52 -78t-85 -31t-68.5 31t-11.5 78z" />
    <glyph glyph-name="aring" unicode="&#xe5;" horiz-adv-x="1021" 
d="M924 700q8 3 8 9q11 53 14 95t-4.5 84.5t-36.5 70.5t-78 38q-103 20 -234 -37.5t-220 -154.5q-6 -6 -12.5 -4t-4.5 10l25 94l6 8q194 131 399 158q75 11 152 -1t131 -46q28 -17 45.5 -44t23 -63t6.5 -68t-7 -78t-14 -73t-17 -71l-164 -617q-3 -10 -12 -10h-168
q-9 0 -6 10l41 156l-4 -2q-233 -168 -463 -168q-139 0 -207.5 68.5t-36.5 189.5q23 86 92 147.5t166 97.5t195.5 63t208 62t176.5 76zM297 258q-23 -91 14.5 -138.5t126.5 -47.5q186 0 371 174l4 6l96 371q4 6 -0.5 9.5t-9.5 -1.5q-60 -31 -145.5 -61t-150 -53t-130 -55
t-111 -83t-65.5 -121zM580 1292q29 115 129.5 195t216.5 80q113 0 171 -80t29 -195q-34 -114 -133.5 -193t-212.5 -79t-173 80t-27 192zM799 1094q79 0 152 58t98 140q20 82 -21.5 139.5t-122.5 57.5q-82 0 -155 -57.5t-93 -139.5q-25 -81 17.5 -139.5t124.5 -58.5z" />
    <glyph glyph-name="ae" unicode="&#xe6;" horiz-adv-x="2115" 
d="M924 700q8 3 8 9q11 53 14 95t-4.5 84.5t-36.5 70.5t-78 38q-103 20 -234 -37.5t-220 -154.5q-6 -6 -12.5 -4t-4.5 10l25 94l6 8q194 131 399 158q75 11 152 -1t131 -46q28 -17 45.5 -44t23 -63t6.5 -68t-7 -78t-14 -73t-17 -71l-164 -617q-3 -10 -12 -10h-168
q-9 0 -6 10l41 156l-4 -2q-233 -168 -463 -168q-139 0 -207.5 68.5t-36.5 189.5q23 86 92 147.5t166 97.5t195.5 63t208 62t176.5 76zM297 258q-23 -91 14.5 -138.5t126.5 -47.5q186 0 371 174l4 6l96 371q4 6 -0.5 9.5t-9.5 -1.5q-60 -31 -145.5 -61t-150 -53t-130 -55
t-111 -83t-65.5 -121zM1178 520q32 121 105.5 224t168 169.5t201 104t209.5 37.5q220 0 323.5 -147.5t46.5 -379.5l-2 -10q-3 -10 -14 -10h-840q-13 0 -10 -10q-17 -178 95 -292t296 -114q151 0 289 76q5 3 10 -2l6 -10q2 -1 1 -6t-5 -9q-213 -151 -456 -151
q-111 0 -203 36.5t-151.5 105.5t-80 167t10.5 221zM1382 580q-4 -11 7 -11h671q8 0 8 9q35 74 39 147.5t-20.5 131.5t-83 94t-141.5 36q-176 0 -306.5 -116t-173.5 -291z" />
    <glyph glyph-name="ccedilla" unicode="&#xe7;" horiz-adv-x="1009" 
d="M852 1055q150 0 250 -74.5t100 -210.5q2 -7 -6 -10l-20 -12q-11 -4 -11 4q-19 112 -96.5 173.5t-210.5 61.5q-184 0 -318.5 -114.5t-181.5 -297.5q-53 -210 56 -347.5t315 -137.5q153 0 295 78q5 3 10 -2q9 -12 6 -21q-6 -8 -31 -23.5t-49 -28t-55.5 -28t-32.5 -16.5
q-83 -30 -108 -35q-24 -8 -135 -22q-7 0 -24 -1t-25 -1q-111 0 -203 36.5t-151.5 105.5t-80 167t10.5 221q40 150 147.5 274t253.5 194t295 67zM246 -324l20 25q53 -45 111 -45q42 0 72 23t38 59q12 42 -14.5 76.5t-93.5 44.5l129 174h63l-82 -111q81 -27 108.5 -69
t12.5 -89q-19 -75 -83 -117t-140 -42q-45 0 -83.5 18t-57.5 53z" />
    <glyph glyph-name="egrave" unicode="&#xe8;" horiz-adv-x="1093" 
d="M156 520q32 121 105.5 224t168 169.5t201 104t209.5 37.5q220 0 323.5 -147.5t46.5 -379.5l-2 -10q-3 -10 -14 -10h-840q-13 0 -10 -10q-17 -178 95 -292t296 -114q151 0 289 76q5 3 10 -2l6 -10q2 -1 1 -6t-5 -9q-213 -151 -456 -151q-111 0 -203 36.5t-151.5 105.5
t-80 167t10.5 221zM360 580q-4 -11 7 -11h671q9 0 9 9q35 74 39 147.5t-21 131.5t-83.5 94t-141.5 36q-176 0 -306.5 -116t-173.5 -291zM797 1559q7 28 38 47.5t64 19.5q61 0 72 -57l63 -324h-53l-174 254q-16 29 -10 60z" />
    <glyph glyph-name="eacute" unicode="&#xe9;" horiz-adv-x="1093" 
d="M156 520q32 121 105.5 224t168 169.5t201 104t209.5 37.5q220 0 323.5 -147.5t46.5 -379.5l-2 -10q-3 -10 -14 -10h-840q-13 0 -10 -10q-17 -178 95 -292t296 -114q151 0 289 76q5 3 10 -2l6 -10q2 -1 1 -6t-5 -9q-213 -151 -456 -151q-111 0 -203 36.5t-151.5 105.5
t-80 167t10.5 221zM360 580q-4 -11 7 -11h671q9 0 9 9q35 74 39 147.5t-21 131.5t-83.5 94t-141.5 36q-176 0 -306.5 -116t-173.5 -291zM713 1245l235 324q42 57 101 57q36 0 55 -19t12 -48q-7 -33 -41 -60l-309 -254h-53z" />
    <glyph glyph-name="ecircumflex" unicode="&#xea;" horiz-adv-x="1093" 
d="M156 520q32 121 105.5 224t168 169.5t201 104t209.5 37.5q220 0 323.5 -147.5t46.5 -379.5l-2 -10q-3 -10 -14 -10h-840q-13 0 -10 -10q-17 -178 95 -292t296 -114q151 0 289 76q5 3 10 -2l6 -10q2 -1 1 -6t-5 -9q-213 -151 -456 -151q-111 0 -203 36.5t-151.5 105.5
t-80 167t10.5 221zM360 580q-4 -11 7 -11h671q9 0 9 9q35 74 39 147.5t-21 131.5t-83.5 94t-141.5 36q-176 0 -306.5 -116t-173.5 -291zM639 1245l244 334q35 47 90 47q57 0 67 -47l68 -334h-51l-121 238l-246 -238h-51z" />
    <glyph glyph-name="edieresis" unicode="&#xeb;" horiz-adv-x="1093" 
d="M156 520q32 121 105.5 224t168 169.5t201 104t209.5 37.5q220 0 323.5 -147.5t46.5 -379.5l-2 -10q-3 -10 -14 -10h-840q-13 0 -10 -10q-17 -178 95 -292t296 -114q151 0 289 76q5 3 10 -2l6 -10q2 -1 1 -6t-5 -9q-213 -151 -456 -151q-111 0 -203 36.5t-151.5 105.5
t-80 167t10.5 221zM360 580q-4 -11 7 -11h671q9 0 9 9q35 74 39 147.5t-21 131.5t-83.5 94t-141.5 36q-176 0 -306.5 -116t-173.5 -291zM653 1354q11 43 49 75.5t82 32.5q48 0 73 -30.5t13 -77.5t-52 -78t-85 -31q-47 0 -69.5 31t-10.5 78zM936 1354q12 44 52.5 75t84.5 31
q45 0 68.5 -31t11.5 -75q-12 -47 -52 -78t-85 -31t-68.5 31t-11.5 78z" />
    <glyph glyph-name="igrave" unicode="&#xec;" horiz-adv-x="399" 
d="M373 1034q3 10 10 10h178q11 0 8 -10l-272 -1026q0 -8 -10 -8h-176q-9 0 -9 8q256 970 271 1026zM451 1559q7 28 38 47.5t64 19.5q61 0 72 -57l63 -324h-53l-174 254q-16 29 -10 60z" />
    <glyph glyph-name="iacute" unicode="&#xed;" horiz-adv-x="399" 
d="M373 1034q3 10 10 10h178q11 0 8 -10l-272 -1026q0 -8 -10 -8h-176q-9 0 -9 8q256 970 271 1026zM367 1245l235 324q42 57 100 57q36 0 55.5 -19t12.5 -48q-7 -33 -41 -60l-309 -254h-53z" />
    <glyph glyph-name="icircumflex" unicode="&#xee;" horiz-adv-x="399" 
d="M373 1034q3 10 10 10h178q11 0 8 -10l-272 -1026q0 -8 -10 -8h-176q-9 0 -9 8q256 970 271 1026zM293 1245l244 334q35 47 90 47q57 0 67 -47l68 -334h-51l-121 238l-246 -238h-51z" />
    <glyph glyph-name="idieresis" unicode="&#xef;" horiz-adv-x="399" 
d="M373 1034q3 10 10 10h178q11 0 8 -10l-272 -1026q0 -8 -10 -8h-176q-9 0 -9 8q256 970 271 1026zM307 1354q11 43 49 75.5t82 32.5q48 0 73 -30.5t13 -77.5t-52 -78t-85 -31q-47 0 -69.5 31t-10.5 78zM590 1354q12 44 52.5 75t84.5 31q45 0 68.5 -31t11.5 -75
q-12 -47 -52 -78t-85 -31t-68.5 31t-11.5 78z" />
    <glyph glyph-name="ntilde" unicode="&#xf1;" horiz-adv-x="1105" 
d="M356 1036q3 8 13 8h172q11 0 8 -8l-33 -129q-2 -7 1.5 -9.5t10.5 1.5q105 66 228 105.5t227 39.5q184 0 226.5 -95t-25.5 -333l-158 -606q-3 -10 -12 -10h-176q-10 0 -7 10l156 594q14 47 22.5 83.5t13.5 79t-1.5 73.5t-22.5 57.5t-50.5 40.5t-84.5 14q-85 0 -189 -40
t-186 -109l-4 -6l-206 -787q-3 -10 -13 -10h-174q-11 0 -8 10q42 163 150 567t122 459zM621 1264h-52q23 92 68.5 130t110.5 38q62 0 189.5 -43t170.5 -43q67 0 86 65h49q-45 -166 -178 -166q-65 0 -191.5 43t-168.5 43q-66 0 -84 -67z" />
    <glyph glyph-name="ograve" unicode="&#xf2;" 
d="M156 520q43 155 155 278t262 190t308 67q115 0 211.5 -39t157.5 -109.5t83 -169t-12 -217.5q-40 -155 -153.5 -277.5t-263.5 -187.5t-306 -65q-118 0 -214 38t-156.5 107.5t-81.5 167t10 217.5zM610 35q163 -12 302 111t198 313q35 107 38.5 206t-22.5 177t-88 127
t-153 55q-113 8 -217 -49.5t-178.5 -156.5t-116.5 -224q-35 -107 -37.5 -205.5t25.5 -175t92 -124.5t157 -54zM852 1559q7 28 38 47.5t64 19.5q61 0 72 -57l64 -324h-54l-174 254q-16 29 -10 60z" />
    <glyph glyph-name="oacute" unicode="&#xf3;" 
d="M156 520q43 155 155 278t262 190t308 67q115 0 211.5 -39t157.5 -109.5t83 -169t-12 -217.5q-40 -155 -153.5 -277.5t-263.5 -187.5t-306 -65q-118 0 -214 38t-156.5 107.5t-81.5 167t10 217.5zM610 35q163 -12 302 111t198 313q35 107 38.5 206t-22.5 177t-88 127
t-153 55q-113 8 -217 -49.5t-178.5 -156.5t-116.5 -224q-35 -107 -37.5 -205.5t25.5 -175t92 -124.5t157 -54zM770 1245l236 324q42 57 100 57q36 0 55.5 -19t12.5 -48q-7 -33 -41 -60l-310 -254h-53z" />
    <glyph glyph-name="ocircumflex" unicode="&#xf4;" 
d="M156 520q43 155 155 278t262 190t308 67q115 0 211.5 -39t157.5 -109.5t83 -169t-12 -217.5q-40 -155 -153.5 -277.5t-263.5 -187.5t-306 -65q-118 0 -214 38t-156.5 107.5t-81.5 167t10 217.5zM610 35q163 -12 302 111t198 313q35 107 38.5 206t-22.5 177t-88 127
t-153 55q-113 8 -217 -49.5t-178.5 -156.5t-116.5 -224q-35 -107 -37.5 -205.5t25.5 -175t92 -124.5t157 -54zM696 1245l244 334q35 47 90 47q58 0 68 -47l67 -334h-51l-121 238l-245 -238h-52z" />
    <glyph glyph-name="otilde" unicode="&#xf5;" 
d="M156 520q43 155 155 278t262 190t308 67q115 0 211.5 -39t157.5 -109.5t83 -169t-12 -217.5q-40 -155 -153.5 -277.5t-263.5 -187.5t-306 -65q-118 0 -214 38t-156.5 107.5t-81.5 167t10 217.5zM610 35q163 -12 302 111t198 313q35 107 38.5 206t-22.5 177t-88 127
t-153 55q-113 8 -217 -49.5t-178.5 -156.5t-116.5 -224q-35 -107 -37.5 -205.5t25.5 -175t92 -124.5t157 -54zM670 1264h-52q23 92 68.5 130t110.5 38q62 0 189.5 -43t170.5 -43q67 0 86 65h49q-45 -166 -178 -166q-65 0 -191.5 43t-168.5 43q-66 0 -84 -67z" />
    <glyph glyph-name="odieresis" unicode="&#xf6;" 
d="M156 520q43 155 155 278t262 190t308 67q115 0 211.5 -39t157.5 -109.5t83 -169t-12 -217.5q-40 -155 -153.5 -277.5t-263.5 -187.5t-306 -65q-118 0 -214 38t-156.5 107.5t-81.5 167t10 217.5zM610 35q163 -12 302 111t198 313q35 107 38.5 206t-22.5 177t-88 127
t-153 55q-113 8 -217 -49.5t-178.5 -156.5t-116.5 -224q-35 -107 -37.5 -205.5t25.5 -175t92 -124.5t157 -54zM709 1354q11 43 49 75.5t82 32.5q48 0 73 -30.5t13 -77.5q-12 -46 -52.5 -77.5t-85.5 -31.5q-47 0 -69 31t-10 78zM991 1354q12 44 52.5 75t84.5 31
q45 0 68.5 -31t11.5 -75q-12 -47 -52 -78t-85 -31t-68.5 31t-11.5 78z" />
    <glyph glyph-name="divide" unicode="&#xf7;" horiz-adv-x="993" 
d="M254 662h829l-22 -91h-830zM756 1004q42 0 63.5 -29.5t9.5 -71.5q-10 -42 -47.5 -72t-79.5 -30q-43 0 -64.5 29.5t-10.5 72.5q12 43 49 72t80 29zM600 416q41 0 63 -30t11 -71q-12 -43 -49 -71.5t-78 -28.5q-43 0 -65.5 29t-10.5 71q11 41 48.5 71t80.5 30z" />
    <glyph glyph-name="ugrave" unicode="&#xf9;" horiz-adv-x="1105" 
d="M367 1044h176q9 0 6 -8l-160 -606q-31 -120 -32.5 -182.5t30.5 -106.5q34 -51 129 -51q80 0 184.5 42t190.5 112q2 2 2 6l209 786q3 8 10 8h176q11 0 8 -8l-270 -1026q-3 -10 -12 -10h-176q-10 0 -7 10l33 129q2 6 -3 9t-9 -1q-106 -67 -228 -107t-225 -40
q-128 0 -185 37.5t-63.5 129.5t37.5 247l166 622q3 8 13 8zM803 1559q7 28 38 47.5t64 19.5q61 0 72 -57l63 -324h-53l-174 254q-16 29 -10 60z" />
    <glyph glyph-name="uacute" unicode="&#xfa;" horiz-adv-x="1105" 
d="M367 1044h176q9 0 6 -8l-160 -606q-31 -120 -32.5 -182.5t30.5 -106.5q34 -51 129 -51q80 0 184.5 42t190.5 112q2 2 2 6l209 786q3 8 10 8h176q11 0 8 -8l-270 -1026q-3 -10 -12 -10h-176q-10 0 -7 10l33 129q2 6 -3 9t-9 -1q-106 -67 -228 -107t-225 -40
q-128 0 -185 37.5t-63.5 129.5t37.5 247l166 622q3 8 13 8zM719 1245l235 324q42 57 101 57q36 0 55 -19t12 -48q-7 -33 -41 -60l-309 -254h-53z" />
    <glyph glyph-name="ucircumflex" unicode="&#xfb;" horiz-adv-x="1105" 
d="M367 1044h176q9 0 6 -8l-160 -606q-31 -120 -32.5 -182.5t30.5 -106.5q34 -51 129 -51q80 0 184.5 42t190.5 112q2 2 2 6l209 786q3 8 10 8h176q11 0 8 -8l-270 -1026q-3 -10 -12 -10h-176q-10 0 -7 10l33 129q2 6 -3 9t-9 -1q-106 -67 -228 -107t-225 -40
q-128 0 -185 37.5t-63.5 129.5t37.5 247l166 622q3 8 13 8zM645 1245l244 334q35 47 90 47q58 0 68 -47l67 -334h-51l-121 238l-246 -238h-51z" />
    <glyph glyph-name="udieresis" unicode="&#xfc;" horiz-adv-x="1105" 
d="M367 1044h176q9 0 6 -8l-160 -606q-31 -120 -32.5 -182.5t30.5 -106.5q34 -51 129 -51q80 0 184.5 42t190.5 112q2 2 2 6l209 786q3 8 10 8h176q11 0 8 -8l-270 -1026q-3 -10 -12 -10h-176q-10 0 -7 10l33 129q2 6 -3 9t-9 -1q-106 -67 -228 -107t-225 -40
q-128 0 -185 37.5t-63.5 129.5t37.5 247l166 622q3 8 13 8zM659 1354q11 43 49.5 75.5t82.5 32.5q48 0 73 -30.5t13 -77.5q-12 -46 -52.5 -77.5t-85.5 -31.5q-47 0 -69.5 31t-10.5 78zM942 1354q12 44 52.5 75t84.5 31q45 0 68.5 -31t11.5 -75q-12 -47 -52 -78t-85 -31
t-68.5 31t-11.5 78z" />
    <glyph glyph-name="ydieresis" unicode="&#xff;" horiz-adv-x="944" 
d="M293 1051h186q3 0 6 -7q27 -179 107 -786l2 -10q0 -16 16 0q32 50 232 352.5t286 435.5l5 8q11 7 12 7h61q10 0 4 -15q-189 -290 -543 -825.5t-515 -781.5q-4 -7 -9 -7h-77q-16 0 -9 13q48 66 200.5 289t166.5 241q2 2 2 6l-147 1065q3 15 14 15zM578 1354q11 43 49 75.5
t82 32.5q48 0 73 -30.5t13 -77.5q-12 -46 -52.5 -77.5t-85.5 -31.5q-47 0 -69 31t-10 78zM860 1354q12 44 52.5 75t84.5 31q45 0 68.5 -31t11.5 -75q-12 -47 -52 -78t-85 -31t-68.5 31t-11.5 78z" />
    <glyph glyph-name="OE" unicode="&#x152;" horiz-adv-x="2467" 
d="M225 756q65 212 208.5 377.5t344.5 256.5t422 83q131 -5 237.5 -45t178 -110t110.5 -164t39 -211.5t-41 -246.5q-49 -161 -145.5 -297t-223.5 -230t-283.5 -144.5t-321.5 -44.5q-132 5 -238.5 45.5t-176.5 110t-110 165t-38.5 210t38.5 245.5zM758 37q100 -12 205.5 18
t202 96t175.5 176t121 246q56 172 69 315.5t-17.5 254.5t-116.5 179.5t-223 82.5q-99 10 -202 -21.5t-197 -99t-175 -177t-131 -245.5q-58 -146 -70 -287t20.5 -255t119.5 -190.5t219 -92.5zM1653 10l372 1413q4 11 13 11h794q13 0 9 -11l-15 -55q-3 -8 -12 -8h-598
q-7 0 -10 -10l-150 -562q-3 -10 4 -10h471q5 0 7.5 -2t1.5 -6l-13 -55q-3 -10 -12 -10h-469q-11 0 -14 -9l-162 -612q-3 -10 6 -10h596q11 0 8 -8l-12 -56q-3 -10 -12 -10h-795q-11 0 -8 10z" />
    <glyph glyph-name="oe" unicode="&#x153;" horiz-adv-x="2299" 
d="M156 520q43 155 155 278t262 190t308 67q115 0 211.5 -39t157.5 -109.5t83 -169t-12 -217.5q-40 -155 -153.5 -277.5t-263.5 -187.5t-306 -65q-118 0 -214 38t-156.5 107.5t-81.5 167t10 217.5zM610 35q163 -12 302 111t198 313q35 107 38.5 206t-22.5 177t-88 127
t-153 55q-113 8 -217 -49.5t-178.5 -156.5t-116.5 -224q-35 -107 -37.5 -205.5t25.5 -175t92 -124.5t157 -54zM1362 520q32 121 105.5 224t168 169.5t201 104t209.5 37.5q220 0 324 -147.5t47 -379.5l-2 -10q-3 -10 -15 -10h-839q-7 0 -10 -2.5t-1 -7.5q-17 -178 95.5 -292
t296.5 -114q150 0 288 76q6 3 11 -2l6 -10q5 -6 -4 -15q-213 -151 -457 -151q-111 0 -203 36.5t-151.5 105.5t-80 167t10.5 221zM1567 580q-4 -11 6 -11h672q8 0 8 9q35 74 39 147.5t-21 131.5t-83.5 94t-141.5 36q-176 0 -306 -116t-173 -291z" />
    <glyph glyph-name="Ydieresis" unicode="&#x178;" horiz-adv-x="1054" 
d="M391 1434h203q8 0 8 -4l182 -646q3 -10 17 0l536 646q4 4 9 4h71q5 0 7.5 -5t-1.5 -10q-64 -74 -216 -256.5t-274 -328.5t-136 -160q-2 -2 -2 -4l-174 -660q-3 -10 -11 -10h-180q-11 0 -8 10l170 649v5q0 14 -39.5 152t-94 326.5t-77.5 276.5q0 15 10 15zM735 1739
q11 43 49 75.5t82 32.5q48 0 73 -30.5t13 -77.5t-52 -78t-85 -31q-47 0 -69.5 31t-10.5 78zM1018 1739q12 44 52.5 75t84.5 31q45 0 68.5 -31t11.5 -75q-12 -47 -52 -78t-85 -31t-68.5 31t-11.5 78z" />
    <glyph glyph-name="circumflex" unicode="&#x2c6;" horiz-adv-x="632" 
d="M410 1245l243 334q35 47 90 47q58 0 68 -47l68 -334h-52l-120 238l-246 -238h-51z" />
    <glyph glyph-name="caron" unicode="&#x2c7;" horiz-adv-x="632" 
d="M580 1292l-70 336h53l121 -237l244 237h51l-242 -336q-41 -45 -94 -45q-57 0 -63 45z" />
    <glyph glyph-name="breve" unicode="&#x2d8;" horiz-adv-x="632" 
d="M578 1290l-68 336h53l121 -237l244 237h51l-244 -336q-41 -45 -92 -45q-56 0 -65 45z" />
    <glyph glyph-name="dotaccent" unicode="&#x2d9;" horiz-adv-x="366" 
d="M438 1352q10 42 48.5 72t80.5 30q41 0 62.5 -29.5t11.5 -72.5q-12 -43 -50 -73t-79 -30q-42 0 -64 30.5t-10 72.5z" />
    <glyph glyph-name="ring" unicode="&#x2da;" horiz-adv-x="710" 
d="M424 1292q29 115 129.5 195t216.5 80q113 0 171.5 -80t29.5 -195q-34 -114 -133.5 -193t-212.5 -79q-114 0 -174 80t-27 192zM643 1094q79 0 152 58t98 140q20 82 -21 139.5t-122 57.5q-82 0 -155 -57.5t-93 -139.5q-25 -81 17 -139.5t124 -58.5z" />
    <glyph glyph-name="tilde" unicode="&#x2dc;" horiz-adv-x="798" 
d="M467 1264h-51q23 93 68 130.5t110 37.5q62 0 189.5 -43t170.5 -43q67 0 86 65h50q-45 -166 -179 -166q-65 0 -191.5 43t-168.5 43q-66 0 -84 -67z" />
    <glyph glyph-name="hungarumlaut" unicode="&#x2dd;" horiz-adv-x="862" 
d="M410 1245l235 324q42 57 100 57q36 0 55.5 -19t12.5 -48q-7 -33 -41 -60l-309 -254h-53zM786 1245l236 324q42 57 100 57q36 0 55.5 -19t12.5 -48q-7 -33 -41 -60l-309 -254h-54z" />
    <glyph glyph-name="quoteleft" unicode="&#x2018;" horiz-adv-x="368" 
d="M430 936q-47 0 -66 36t-6 83q20 68 82.5 155t120.5 129h6q-55 -58 -71 -120q-18 -70 16 -82q30 -11 43.5 -39t3.5 -62q-11 -42 -48 -71t-81 -29z" />
    <glyph glyph-name="quoteright" unicode="&#x2019;" horiz-adv-x="368" 
d="M512 1249q47 0 66.5 -36t5.5 -83q-16 -66 -80.5 -154t-120.5 -130h-6q56 59 72 121q18 70 -19 82q-30 11 -42.5 38t-2.5 62q11 42 47 71t80 29z" />
    <glyph glyph-name="quotedblleft" unicode="&#x201c;" horiz-adv-x="651" 
d="M721 971q-47 0 -65 35.5t-5 83.5q16 66 80 153t121 131h6q-55 -58 -70 -121q-7 -29 -3 -52.5t18 -29.5q31 -10 44 -37t5 -63q-12 -42 -49.5 -71t-81.5 -29zM438 969q-47 0 -64.5 35t-6.5 83q19 68 81 153t121 132h6q-55 -58 -71 -121q-7 -29 -2.5 -52.5t18.5 -29.5
q31 -11 44 -38t3 -62q-11 -42 -48 -71t-81 -29z" />
    <glyph glyph-name="quotedblright" unicode="&#x201d;" horiz-adv-x="651" 
d="M512 1249q47 0 66.5 -36t5.5 -83q-16 -66 -80.5 -154t-120.5 -130h-6q56 59 72 121q18 70 -19 82q-30 11 -42.5 38t-2.5 62q11 42 47 71t80 29zM797 1251q47 0 65 -35.5t4 -82.5q-15 -66 -79 -156t-121 -129h-7q56 59 72 121q18 70 -16 82q-30 11 -43.5 38.5t-3.5 61.5
q11 42 48 71t81 29z" />
    <glyph glyph-name="dagger" unicode="&#x2020;" horiz-adv-x="651" 
d="M305 -217h-80l412 1552h80zM782 578h-612l23 79h612z" />
    <glyph glyph-name="trademark" unicode="&#x2122;" horiz-adv-x="1120" 
d="M936 1421h51q2 -2 4 -6l66 -377q8 -8 14 0l268 377q3 6 11 6h55q9 0 6 -6l-121 -461q-3 -8 -10 -8h-53q-9 0 -6 8l90 340q1 6 0 8.5t-4.5 1.5t-8.5 -6l-247 -348q-4 -4 -7 -4h-36q-5 0 -9 4l-55 334q-13 13 -16 -4l-84 -326q-3 -8 -10 -8h-23q-7 0 -4 8l121 461q3 6 8 6z
M465 1421h350q9 0 6 -6l-6 -20q-3 -9 -10 -9h-135q-6 0 -6 -8l-113 -424q-3 -8 -10 -8h-54q-9 0 -6 8l113 424q0 8 -6 8h-133q-9 0 -6 9l6 20q3 6 10 6z" />
    <glyph glyph-name="notequal" unicode="&#x2260;" horiz-adv-x="1312" 
d="M178 369l41 69q3 6 10 6h279q6 0 10 7l144 241q10 13 -5 13h-282q-12 0 -6 12l34 59q9 6 13 6h295q8 0 8 6l203 338q3 9 12 9h59q13 0 6 -13l-196 -327q-7 -13 8 -13l250 -2q9 0 12 6l201 340q6 9 14 9h60q12 0 6 -13l-197 -329q-10 -13 2 -13h262q9 0 6 -12l-32 -57
q-6 -6 -11 -6h-272q-7 0 -14 -7l-144 -243q-10 -13 4 -13h281q9 0 6 -12l-37 -57q0 -6 -8 -6h-291q-7 0 -10 -7l-203 -337q-7 -7 -12 -7h-59q-12 0 -9 13l199 325q7 13 -4 13l-256 2q-1 0 -2 -1t-3.5 -2.5t-4.5 -3.5l-203 -339q-7 -7 -10 -7h-62q-12 0 -6 13l197 327
q7 13 -4 13h-279zM608 444l250 -2q5 0 12 7l144 243q10 13 -2 13h-254q-10 0 -13 -7l-143 -241q-6 -13 6 -13z" />
    <glyph glyph-name="A.ss01" unicode="&#xf201;" horiz-adv-x="1345" 
d="M315 958q28 15 62 15.5t59 -6.5q116 -28 234 -90q3 -7 14 4l160 258l63 104l115 187q3 6 12 6h183q9 0 6 -6q3 -21 10.5 -114t20.5 -257t24 -293q48 -623 63 -752q0 -12 -12 -12h-190q-8 0 -11 6l-20 250q-40 133 -144.5 277t-252.5 243q-7 4 -15 -4l-475 -766
q-3 -6 -8 -6h-59q-13 0 -7 12q158 264 494 799q7 7 0 10q-96 52 -174 76q0 -65 -52 -114t-112 -42q-38 6 -59 34.5t-15 66.5q4 34 28.5 65t57.5 49zM741 831q200 -134 334 -362q2 -8 12 -1q6 4 5 9l-11 133l-57 666q0 6 -6 6t-10 -6l-269 -432q-7 -10 2 -13z" />
    <glyph glyph-name="B.ss01" unicode="&#xf202;" horiz-adv-x="1533" 
d="M317 1159v2q41 48 115 88q179 85 327.5 129t311.5 56h8q76 6 152 6q163 0 266 -29l16 -6q123 -31 179.5 -114.5t21.5 -213.5q-53 -208 -291 -299q-14 -8 -4 -18q49 -16 86 -35q89 -52 115.5 -135.5t-2.5 -192.5q-51 -186 -216.5 -290.5t-443.5 -104.5h-514q-11 0 -8 8
l334 1268q0 3 8 8q97 23 195 43q5 3 7 1t1 -9l-137 -518q-3 -8 8 -8h201q381 0 454 282q39 144 -33.5 220.5t-261.5 76.5h-69q-343 -13 -635 -147q-16 -3 -4 -15q35 -35 26 -82q-4 -55 -57 -96t-106 -33q-51 8 -68 54.5t18 103.5zM659 76h283q185 0 306 85.5t163 241.5
q41 153 -37.5 235.5t-259.5 82.5h-283q-9 0 -12 -10l-166 -627q-3 -8 6 -8z" />
    <glyph glyph-name="C.ss01" unicode="&#xf203;" horiz-adv-x="1323" 
d="M686 1333q248 136 500 121q154 -13 252 -92q29 -20 56.5 -49.5t50.5 -70t26 -82t-17 -85.5q-50 -82 -131 -82q-43 0 -70 27t-20 72q10 53 50.5 89.5t89.5 41.5q13 0 10 14q-50 80 -140 117t-227 37q-98 0 -200 -36.5t-196 -106t-169.5 -183t-112.5 -254.5
q-44 -157 -25.5 -290t82 -230t168.5 -151t234 -54q247 0 469 184q3 3 12 0l4 -6q3 -6 0 -12q-133 -133 -294 -201.5t-330 -68.5q-152 0 -274.5 54t-196.5 151.5t-98.5 233t20.5 298.5q51 191 173 351.5t304 262.5z" />
    <glyph glyph-name="D.ss01" unicode="&#xf204;" horiz-adv-x="1605" 
d="M358 1296q30 34 93.5 59t141.5 38.5t132 20t106 9.5q260 18 351 13q229 0 381.5 -80.5t212.5 -239.5t-2 -397q-56 -214 -197.5 -378t-335 -251.5t-407.5 -87.5h-412q-11 0 -8 8l344 1309q4 7 12 10q95 6 182 6q9 0 6 -10l-327 -1241q-3 -8 6 -8h266q150 0 282.5 72.5
t224 194.5t132.5 273q92 291 6 510q-52 119 -162 185q-106 59 -327 55q-300 0 -490 -43q-11 -3 -8 -12q11 -53 -16 -100.5t-73 -69.5t-89 -11q-32 11 -47.5 43.5t-5.5 69.5q9 34 28 53z" />
    <glyph glyph-name="E.ss01" unicode="&#xf205;" horiz-adv-x="1257" 
d="M336 1255q16 45 86 91q97 54 260.5 75t316.5 21q61 0 180 -3t181 -3h266q8 0 4 -11l-12 -55q-3 -8 -12 -8h-598q-8 0 -11 -10l-149 -564q-3 -8 4 -8h471q9 0 6 -10l-12 -55q-3 -8 -10 -8h-471q-9 0 -13 -11l-161 -612q-3 -8 4 -8h598q9 0 6 -10l-13 -56q-3 -8 -10 -8
h-796q-10 0 -7 8l254 965q8 33 13 53.5t12.5 61t9.5 68t1.5 63t-8 59.5t-23.5 44.5t-41 29.5q-28 9 -64 6q-25 0 -41 -8q-12 -6 -14.5 -10.5t0.5 -14.5q20 -36 20 -57q3 -42 -31 -82q-51 -58 -116 -58q-30 0 -53 16.5t-31 43.5q-6 33 4 65z" />
    <glyph glyph-name="F.ss01" unicode="&#xf206;" horiz-adv-x="1294" 
d="M358 1280q15 19 31 31q154 133 729 133q59 -1 233.5 -4.5t272.5 -3.5h39q8 0 4 -11l-12 -55q-3 -8 -13 -8h-598q-7 0 -10 -10l-149 -564q-3 -8 4 -8h471q11 0 8 -10l-12 -55q-3 -8 -13 -8h-471q-8 0 -12 -11l-180 -686q-3 -8 -12 -8h-181q-9 0 -6 8l164 625
q9 33 57.5 212t71.5 275q6 29 9.5 47t7 46t2 46t-7.5 39t-17.5 33.5t-32.5 20.5t-49 8q-35 0 -82 -14q-27 -9 -34.5 -30.5t-2 -43t-0.5 -43.5q-19 -58 -72 -90t-104 -15q-42 14 -53 59t20 95z" />
    <glyph glyph-name="G.ss01" unicode="&#xf207;" horiz-adv-x="1400" 
d="M1126 1454q214 0 338 -113q2 -2 12 -11.5t13 -12.5t12.5 -12t13.5 -14t11.5 -14t11.5 -15t9 -14.5t7.5 -17t4.5 -16.5q12 -58 -31.5 -110.5t-116.5 -56.5h-2q-45 6 -65.5 36.5t-15.5 66.5t32.5 71t69.5 49q16 3 6 16q-101 107 -291 107q-169 0 -317.5 -79.5t-248.5 -212
t-143 -296.5q-31 -119 -32.5 -229.5t28 -204t86 -163t146 -108.5t204.5 -39q165 0 326 93q5 0 8 6l135 512q3 10 11 10h151q11 0 8 -10l-80 -303l-69 -258q2 6 2 10q-58 -241 -66 -285q-18 -145 70 -227q14 -13 45 -31q2 -5 18.5 -10t22.5 0l6 8q12 46 53.5 75.5t87.5 29.5
q26 0 41 -9q39 -19 44.5 -63t-23 -87t-76.5 -59q-38 -14 -92 -14q-77 0 -141 34.5t-104.5 91.5t-63.5 125.5t-27 141.5l4 103q0 78 12 102q3 8 -8 8q-184 -47 -261 -60t-144 -13q-152 0 -274.5 54t-196.5 151.5t-98.5 233t20.5 298.5q55 206 194 374.5t330 264.5t393 96z
" />
    <glyph glyph-name="H.ss01" unicode="&#xf208;" horiz-adv-x="1286" 
d="M471 1436h180q8 0 4 -11l-172 -645q0 -8 11 -8h696q10 0 10 8l172 645q4 11 12 11h181q10 0 6 -11l-176 -667q-156 -566 -199 -719l-6 -27q-91 -293 18 -395q22 -22 43 -31q3 -3 21 -9t24 -1q12 49 53 82t91 33q14 0 41 -10q41 -16 46 -60.5t-24.5 -88.5t-75.5 -60
q-50 -13 -88 -13q-105 0 -190 66t-119 158q-26 68 -31.5 145t10.5 173.5t29.5 155.5t44.5 171l95 360q3 10 -9 10h-696q-9 0 -12 -10l-178 -678q-3 -8 -11 -8h-180q-11 0 -8 8l373 1415q4 11 14 11z" />
    <glyph glyph-name="I.ss01" unicode="&#xf209;" horiz-adv-x="638" 
d="M594 1399q102 22 332 39q12 0 8 -11l-29 -106l-59 -223l-68 -254l-14 -60l-55 -198l-64 -242l-51 -199l-35 -135q-3 -8 -10 -8h-191l2 12q15 63 127.5 484.5t178.5 658.5q6 34 8.5 57t0.5 52t-11.5 46t-32 28t-56.5 8q-32 0 -34 -31l4 -6q27 -29 15 -77.5t-54 -78.5
q-39 -33 -90 -33q-42 0 -66 27.5t-20 69.5q4 40 30.5 72t73.5 53.5t79 32t81 22.5z" />
    <glyph glyph-name="J.ss01" unicode="&#xf210;" horiz-adv-x="731" 
d="M371 1315q47 47 154 75.5t196.5 36t177.5 7.5q39 0 117 -4q8 -3 8 -11l-338 -1274q-21 -81 -120 -149t-330 -148q-6 -1 -9.5 1.5t-1.5 7.5v8l6 8q4 2 26.5 14.5t31.5 20.5q89 53 132 104.5t64 126.5l279 1047q12 47 -2.5 91.5t-53.5 69.5t-92 11q-8 -1 -19.5 -4t-14.5 -4
q-1 0 -4.5 -1.5t-8.5 -3t-8 -2.5q-19 -3 -8 -14q26 -37 6 -88q-17 -47 -56.5 -76.5t-82.5 -29.5q-26 0 -39 8q-46 18 -51 69t41 103z" />
    <glyph glyph-name="K.ss01" unicode="&#xf211;" horiz-adv-x="1603" 
d="M371 1315q112 112 456 112q102 0 181 -8q9 0 6 -8l-148 -596q-2 -6 3.5 -9t9.5 1l880 620q3 3 6 3h72q6 0 7 -6t-5 -11q-76 -57 -270.5 -197.5t-354.5 -256.5t-188 -140q-9 -6 -6 -12l158 -213q327 -441 421 -578q4 -4 1 -10t-9 -6h-258q-4 0 -6 2q-57 74 -239.5 318
t-249.5 329q-5 4 -10 2t-7 -8l-176 -618q-3 -17 -10 -19q-6 -6 -21 -6l-165 8q0 7 2 21q7 20 17 60.5t18 72.5t10 37q20 92 49 192q8 37 26.5 110.5t20.5 82.5l51 190q4 13 24 84.5t29 108.5q8 38 39 133q13 53 18 78.5t3.5 66.5t-17.5 68q-25 45 -94 45q-39 0 -63 -8
q-1 0 -4.5 -1.5t-8.5 -3t-8 -2.5q-19 -3 -8 -14q26 -37 6 -88q-17 -47 -56.5 -76.5t-82.5 -29.5q-26 0 -39 8q-47 18 -51 70t41 102z" />
    <glyph glyph-name="L.ss01" unicode="&#xf212;" horiz-adv-x="1249" 
d="M369 1307q37 34 94 57q99 40 252 58t286 18q12 0 9 -10l-357 -1346q-3 -8 4 -8h598q10 0 7 -10l-13 -56q-3 -8 -10 -8h-797q-9 0 -6 8l189 719q49 171 63 240q5 18 17.5 58t19 63t13.5 56.5t10 61.5q8 59 -13.5 99.5t-75.5 44.5q-23 2 -65 -9q-5 0 -16 -3t-21 -9t-8 -12
q28 -42 8 -88q-17 -46 -58 -75.5t-85 -29.5q-20 0 -37 7q-45 21 -49 70t41 104z" />
    <glyph glyph-name="M.ss01" unicode="&#xf213;" horiz-adv-x="2025" 
d="M371 1284q45 47 134.5 80t195 47t185 19.5t150.5 5.5q3 0 6 -6l209 -1186q0 -14 17 0l848 1186q3 6 10 6h186q10 0 6 -11l-372 -1415q-3 -8 -13 -8h-180q-9 0 -6 8l319 1209q1 7 -5.5 8.5t-12.5 -4.5l-868 -1215q-3 -6 -9 -6h-88q-8 0 -8 6l-207 1186q-1 5 -5 6t-8 -2
t-5 -8l-311 -1180q-3 -8 -13 -8h-55q-9 0 -6 8l86 336l115 430l63 238q4 13 12 41.5t13 46t11.5 45.5t8 46.5t2 41.5t-6 39t-16.5 32t-29 25.5t-44 14.5q-35 0 -89 -14q-45 -11 -36 -23q27 -37 12 -86q-19 -60 -70.5 -92t-105.5 -15q-46 13 -54 63t34 105z" />
    <glyph glyph-name="N.ss01" unicode="&#xf214;" horiz-adv-x="1622" 
d="M371 1288q82 78 213 103q87 18 245.5 27.5t176.5 11.5q27 3 36 -25q67 -178 193 -422q18 -47 56.5 -129.5t47.5 -103.5q6 -13 41.5 -89t53.5 -118l63 -140q14 -18 19 -34q11 -11 18 -11q28 0 31 27l276 1040q4 11 14 11h56q8 0 4 -11l-373 -1415q-3 -8 -10 -8h-88
q-4 0 -8 4l-553 1200q-7 13 -19 13q-26 0 -35 -27l-311 -1182q-3 -8 -10 -8h-55q-5 0 -7.5 2t-1.5 6l97 369l219 829q18 62 -23 109q-37 29 -80 29q-7 0 -57 -11q-9 0 -29.5 -7.5t-11.5 -16.5q23 -34 8 -88q-20 -60 -72.5 -91t-103.5 -14q-46 18 -53.5 66.5t33.5 103.5z" />
    <glyph glyph-name="O.ss01" unicode="&#xf215;" horiz-adv-x="1572" 
d="M225 758q63 205 198 366.5t325 254.5t403 96q5 0 7 -3t0.5 -7t-5.5 -7q-51 -29 -84 -53q-183 -17 -344.5 -161t-255.5 -380q-58 -146 -70 -287.5t20.5 -256t119.5 -191t219 -92.5q254 -28 471 166q159 146 233 372q150 438 13 656l-5 8q0 11 -6 14q-23 35 -61.5 63
t-79.5 38q-38 11 -94 -11q-16 -7 -24.5 -13t-14 -9.5t-3.5 -11.5t3 -10.5t10 -16t12 -18.5l-2 -2q17 -66 -35 -123t-118 -52q-55 4 -72 50.5t8 101.5q47 97 138.5 147t195.5 50q87 0 163 -32t130 -86.5t89 -125t48 -150.5q27 -153 -33 -344q-49 -161 -145 -297t-223 -230
t-283.5 -144.5t-320.5 -44.5q-133 5 -240.5 45t-177.5 109.5t-110 164.5t-38 210t39 247z" />
    <glyph glyph-name="P.ss01" unicode="&#xf216;" horiz-adv-x="1529" 
d="M371 1284q37 42 129.5 75t166 46t140.5 20q63 6 138 9t124 3t140.5 -0.5t129.5 -0.5q50 0 95 -3.5t92.5 -12.5t86 -23t75 -35.5t59.5 -50t39 -66.5t14.5 -85t-14.5 -105q-35 -135 -132 -234t-223.5 -146.5t-267.5 -47.5q-160 0 -325 73q-11 4 -15 -8l-178 -682
q-3 -8 -12 -8h-180q-10 0 -7 8v2l25 94l39 146l49 182l53 203l54 209l69 260q3 11 10.5 34.5t12 39t8 35.5t2.5 37t-8 32q-30 62 -107 62q-38 0 -84 -19q-14 -6 -14.5 -13.5t6.5 -17t8 -14.5q6 -40 -2 -59q-19 -60 -70.5 -92t-105.5 -15q-46 13 -54 63t34 105zM846 745
q136 -57 270 -57q176 0 296.5 99t166.5 264q83 311 -297 311h-272q-8 0 -11 -10l-157 -598q-3 -9 4 -9z" />
    <glyph glyph-name="Q.ss01" unicode="&#xf217;" horiz-adv-x="1550" 
d="M215 733q45 157 137 291.5t216 231.5t281 150.5t325 49.5q8 0 22.5 -1t22.5 -1q7 -2 6.5 -9t-8.5 -9q-42 -10 -117 -41q-104 0 -205 -44.5t-181.5 -119t-143 -166t-101.5 -191.5q-60 -144 -75 -282t14.5 -251.5t114 -192.5t216.5 -101q124 -19 249.5 25t234.5 147
q147 140 231 342q99 246 76 443q-11 131 -86 245q-33 53 -82.5 85t-112.5 28q-24 0 -67 -17.5t-43 -39.5q1 -5 8 -11q54 -40 27 -110q-13 -42 -55 -72.5t-85 -30.5q-56 0 -80 41t4 101q34 57 101.5 101t137.5 64.5t130 20.5q81 0 151.5 -29t121.5 -80t86.5 -117t50.5 -143
t8 -155q0 -58 -29 -180q-78 -271 -287.5 -464t-478.5 -243q-5 0 -7.5 -4t1.5 -8q58 -156 140.5 -235t197.5 -83q71 0 150 25q6 1 8 -1t0 -7v-4q0 -6 -8 -9q-132 -66 -256 -63q-140 4 -254.5 99t-192.5 269l-4 5q-127 8 -229 48.5t-170 107.5t-107 158.5t-38.5 201
t34.5 235.5z" />
    <glyph glyph-name="R.ss01" unicode="&#xf218;" horiz-adv-x="1468" 
d="M358 1303q18 22 45.5 38t46.5 22.5t52 16.5q117 35 179 45.5t169 10.5h412q43 0 82.5 -2.5t81.5 -8.5t79 -15.5t72 -25t62 -35t48 -47t31 -60.5t9.5 -75.5t-13.5 -91.5q-20 -72 -57 -130t-87 -96t-105.5 -64.5t-122 -41.5t-126.5 -21.5t-129 -8.5q-6 0 -10 -5.5t0 -9.5
l152 -292l131 -269q68 -149 180 -149q11 0 8 -8l-2 -17q-3 -10 -14 -10h-141q-34 0 -48.5 1.5t-39.5 9t-47 27t-50 52.5q-29 36 -98 145q-194 331 -295 523l-2 2h-31q-8 0 -12 -11l-180 -692q-3 -8 -10 -8h-181q-11 0 -8 8l283 1077h2q83 275 -25 275q-30 0 -86 -29
q-10 -10 -8 -14q17 -33 8 -66q-20 -59 -72 -92.5t-102 -21.5q-34 10 -49.5 41t-9.5 69q8 31 28 54zM942 1352l-147 -557q-3 -9 6 -9h252q376 0 454 289q38 143 -37.5 215t-265.5 72h-252q-7 0 -10 -10z" />
    <glyph glyph-name="S.ss01" unicode="&#xf219;" horiz-adv-x="1013" 
d="M106 381q18 18 25 8q17 -154 127 -249t274 -91q72 3 142.5 28t131 79t83.5 127q36 127 -84 239q-32 28 -70.5 55t-89.5 59.5t-76 49.5q-142 95 -200 199q-34 63 -33.5 146.5t41.5 158.5t116.5 133t165.5 90q157 53 293 35q155 -21 238 -135q28 -34 45.5 -77.5t9.5 -99.5
t-55 -96q-42 -36 -94 -36q-42 0 -64 22q-24 23 -24.5 58.5t20.5 70.5q45 68 117 80q5 0 7.5 4.5t-1.5 9.5q-36 65 -106.5 101t-157.5 36q-95 0 -188 -46.5t-140 -131.5q-35 -68 -10 -143q12 -54 72 -111q15 -16 34.5 -32.5t32.5 -27t40.5 -28.5t36 -23.5t43 -26.5t38.5 -23
q146 -89 205 -181q41 -61 53 -130.5t-10 -151.5q-26 -84 -94.5 -158.5t-157.5 -120.5q-160 -82 -348 -69q-158 10 -254 79q-21 11 -31 23q-58 48 -87.5 117.5t-23.5 150.5q3 22 8 29z" />
    <glyph glyph-name="T.ss01" unicode="&#xf220;" horiz-adv-x="1591" 
d="M662 1430q95 43 206 65q148 29 387 25q48 0 156.5 -2.5t165.5 -1.5q2 2 20 2h29q215 14 363 90q9 3 12 -2l2 -9q5 -3 -4 -12q-74 -58 -162.5 -95.5t-186.5 -54t-174.5 -21.5t-175.5 -5q-9 0 -12 -8l-47 -187l-141 -524q-36 -142 -96.5 -371t-77.5 -294l-2 -15
q-3 -8 -13 -8h-180q-9 0 -6 8l367 1391q3 10 -7 10q-244 0 -411 -51l-45 -14l-37 -17l-100 -41q-15 -3 -5 -16l13 -4q31 -19 43 -41q17 -26 2 -80q-19 -41 -60 -69.5t-82 -28.5q-42 0 -66 20.5t-24 58.5q0 145 349 302z" />
    <glyph glyph-name="U.ss01" unicode="&#xf221;" horiz-adv-x="1544" 
d="M330 1247q15 44 57 79.5t97 56t105 32t97 15.5q74 6 283 6q8 0 4 -11l-230 -870q-34 -135 -32.5 -230.5t40.5 -155.5t100 -88t146 -28q181 0 328 130.5t209 373.5l229 868q4 11 13 11h55q10 0 6 -11l-225 -852q-79 -291 -259 -441t-415 -150q-110 0 -197 34.5t-146.5 108
t-71.5 186.5t28 271l129 479q5 23 18.5 68t18.5 69q7 31 10 52t1 45.5t-15.5 41.5t-38.5 27q-10 10 -68 6q-72 -5 -69 -31l2 -6q2 -4 8.5 -14.5t10 -19.5t3.5 -19q6 -42 -24 -82q-20 -29 -51 -46t-64 -19q-30 -4 -54.5 10t-35.5 41q-11 25 -2 63z" />
    <glyph glyph-name="V.ss01" unicode="&#xf222;" horiz-adv-x="1542" 
d="M338 1264q19 46 86 90q31 17 66 30t61.5 21.5t69 14.5t62.5 9.5t69 5t61.5 1.5h67.5h61q9 0 6 -6l103 -1240q6 -12 18 0q53 79 370.5 596.5t397.5 643.5q3 6 10 6h58q13 0 6 -13l-879 -1415q0 -6 -8 -6h-158q-7 0 -10 6q-1 43 -5 92.5t-10.5 108.5t-9.5 92
q-28 395 -51 594l-18 252q-2 14 -4 43.5t-4 46t-8 41t-15 39.5t-26 29t-41 20q-55 14 -105 -6q-13 -4 -15 -8.5t3 -14.5q3 -8 8.5 -19t8 -19.5t1.5 -18.5q3 -43 -30 -82q-53 -60 -115 -57q-65 0 -86 59q-6 32 4 64z" />
    <glyph glyph-name="W.ss01" unicode="&#xf223;" horiz-adv-x="2217" 
d="M338 1264q19 46 86 90q42 24 91.5 40t84.5 24.5t96.5 13t85 5t94.5 0t82 -0.5q6 0 9 -6l22 -289l76 -951q1 -6 7 -6t11 6l383 619l2 6l-47 608q0 13 13 13h190q3 0 6 -6q24 -250 59.5 -687.5t41.5 -552.5q1 -6 8 -6t8 6q43 65 190 304t325 529t251 407q3 6 10 6h57
q14 0 7 -13l-875 -1415q0 -6 -8 -6h-162q-5 0 -8 6l-53 668q-1 6 -8 6t-9 -6l-417 -668q0 -6 -9 -6h-159q-6 0 -9 6l-4 47l-26 344l-43 496l-17 244q-2 15 -4 51.5t-4.5 55t-12 43.5t-26.5 42q-53 43 -108 43q-41 0 -66 -14q-13 -4 -15 -8.5t3 -14.5q3 -8 8.5 -19t8 -19.5
t1.5 -18.5q3 -43 -30 -82q-53 -60 -115 -57q-65 0 -86 59q-6 32 4 64z" />
    <glyph glyph-name="X.ss01" unicode="&#xf224;" horiz-adv-x="1355" 
d="M338 1264q46 112 280 153q26 6 56 9.5t52 5.5t58 3t51 1h57h52q3 0 6 -6l164 -562q3 -10 16 0q25 30 220 255.5t266 308.5q4 4 8 4h72q6 0 7.5 -5t-3.5 -10l-561 -641q-4 -4 0 -8q3 -10 88.5 -319.5t124.5 -436.5q4 -4 -0.5 -9t-10.5 -5h-200q-4 0 -8 4l-162 572
q-3 8 -17 0q-31 -39 -505 -572q0 -4 -7 -4h-69q-9 0 -6 14l573 648q6 3 6 8l-6 12l-84 289q-8 38 -28 106t-27 99q-3 11 -9.5 35t-11 37t-12 31.5t-18 32.5t-23.5 25q-24 18 -59 29q-57 13 -109 -8q-13 -4 -15 -8.5t3 -14.5q3 -8 8.5 -19t8 -19.5t1.5 -18.5q3 -43 -30 -82
q-53 -60 -115 -57q-65 0 -86 59q-6 32 4 64z" />
    <glyph glyph-name="Y.ss01" unicode="&#xf225;" horiz-adv-x="1378" 
d="M330 1237q17 47 47 70q140 129 545 129q3 0 6 -6l182 -644q0 -13 16 0l535 644q3 6 10 6h72q6 0 7.5 -5t-3.5 -10q-141 -171 -371 -446t-254 -299l-2 -4l-174 -662q-3 -8 -12 -8h-180q-9 0 -6 8l170 652q-1 0 -0.5 1t2.5 3q-11 38 -121 432q-3 13 -11.5 52t-16.5 65
t-19 49q-27 64 -93 92q-21 6 -43 6q-38 0 -67 -16q-12 -6 -13.5 -10.5t3.5 -14.5q2 -5 8.5 -16t10 -20t3.5 -19q3 -43 -26 -82q-48 -61 -115 -64q-30 -1 -54.5 14t-35.5 40q-9 36 0 63z" />
    <glyph glyph-name="Z.ss01" unicode="&#xf226;" horiz-adv-x="1286" 
d="M469 1370q83 40 152.5 54t164.5 14q59 -2 175 -2h690q6 0 7.5 -5t-3.5 -10l-1129 -1331q-6 -4 -5 -9t7 -5h709l-14 -66q-3 -8 -11 -8h-972q-5 0 -8 5t1 9l1127 1332q6 4 4 9t-8 5h-486q-198 0 -323 -31q-13 0 -10 -14q22 -31 24 -43q3 -49 -20 -82q-18 -29 -48.5 -48
t-62.5 -24q-68 -9 -98 43q-14 22 -4 62q18 87 141 145z" />
    <glyph glyph-name="a.ss01" unicode="&#xf301;" horiz-adv-x="1017" 
d="M231 754q42 78 248 196l8 4q111 69 299 99q76 11 152.5 -1t130.5 -46q34 -20 52 -57t22.5 -73.5t-2.5 -92t-14 -88t-21 -85.5l-55 -213q-126 -446 -140 -499q-30 -119 -32 -164q-11 -61 12 -90q5 -4 11.5 0t6.5 12q-6 36 15.5 75t60.5 62q35 21 72 21q36 0 60 -20t28 -56
q4 -69 -53 -117q-61 -51 -164 -39q-62 6 -104 26t-62.5 54t-29 71.5t-3 90t13.5 97.5t22 106q5 20 7 30l25 93l-4 -3q-213 -167 -461 -167q-140 0 -209 69t-35 189q23 86 92 147.5t166.5 98.5t196 63.5t208 61t175.5 73.5q6 3 6 8q56 257 -103 289q-82 14 -186 -16
q-66 -24 -121 -60q-79 -47 -116 -76q34 -15 43 -55q11 -54 -26 -103t-97 -61q-39 -8 -71 9.5t-38 52.5q-9 46 14 84zM440 55q197 0 369 172l4 6l98 371q2 6 -3 9t-9 -1q-58 -30 -143.5 -60t-151 -52.5t-131.5 -54t-110.5 -82.5t-61.5 -121q-26 -91 11.5 -139t127.5 -48z" />
    <glyph glyph-name="b.ss01" unicode="&#xf302;" horiz-adv-x="1128" 
d="M-289 -193q39 8 72 -12t40 -55t-20 -78q-2 -7 1 -11.5t10 -0.5q52 21 94 57.5t71 83.5t48.5 92.5t35.5 100.5q104 343 152 553q50 185 138 523t122 464q4 7 12 10q120 4 177 -2q9 0 6 -8l-150 -574q155 92 330 92q132 0 235 -59q110 -72 151.5 -202t0.5 -277t-158 -274.5
t-268 -194.5q-134 -58 -276 -58q-132 0 -267 50q-9 3 -12 -7q-63 -129 -169.5 -234.5t-236.5 -166.5q-93 -46 -159 -43q-93 10 -105 82q-5 48 33 93.5t92 55.5zM315 168q36 -55 111 -87t162 -32q158 0 272.5 114t157.5 290q20 75 24 148t-10.5 140t-47 117.5t-89.5 80.5
t-133 30q-149 0 -266 -111q-4 -4 -4 -6l-179 -678q-2 -2 2 -6z" />
    <glyph glyph-name="c.ss01" unicode="&#xf303;" horiz-adv-x="1030" 
d="M154 510q40 150 147 273.5t253 192.5t296 66q110 0 198 -43t128 -127q29 -66 29.5 -138.5t-38.5 -153.5q-9 -12 -12 -21q-51 -57 -115 -57q-50 0 -77 37q-27 41 -3.5 96t82.5 84q20 14 56 14q26 0 47 -12q13 -3 16 12q-17 118 -94.5 181t-212.5 63q-181 0 -316 -115
t-182 -297q-29 -107 -11.5 -196t68 -153.5t132.5 -100t182 -35.5q141 0 293 76q9 2 10 1q0 -1 -2 -3q10 -14 8 -21q-11 -15 -76.5 -50.5t-93.5 -45.5q-106 -44 -241 -57h-47q-111 0 -203 36.5t-152.5 105.5t-81 167t12.5 221z" />
    <glyph glyph-name="d.ss01" unicode="&#xf304;" horiz-adv-x="1140" 
d="M295 1503q47 -39 16 -116q-13 -32 -10 -34q2 -2 6 -1q106 18 288.5 76.5t250.5 74.5q171 37 319 37q163 0 213 -53q25 -32 29 -54q10 -51 -40 -254q-21 -82 -274 -1032q-21 -80 -42 -157q0 -8 -11 -8q-66 -2 -99.5 -3t-50.5 -0.5t-19.5 1.5t-8.5 4q0 13 2.5 42t5.5 29
q3 8 -4 8q-6 0 -53.5 -22t-128 -43t-168.5 -18q-116 4 -199 52.5t-122 124t-45 172t22.5 195t89.5 194.5t148 169q164 139 368 155q73 5 136.5 -5.5t97.5 -26t60.5 -29.5t33.5 -14t10 8q40 134 57 197t28 123.5t5 87.5t-26 47q-29 34 -144 34q-108 0 -301 -43
q-37 -10 -149.5 -47.5t-210 -62.5t-162.5 -25q-77 0 -107 35q-26 29 -21 64.5t26 66t56 51.5t69 21q38 0 59 -21zM643 59q147 0 260 107q0 1 1 3t1 3l185 688q0 1 -5 6q-37 50 -103.5 80.5t-143.5 30.5q-163 0 -288.5 -114t-172.5 -292q-20 -75 -23.5 -148.5t12.5 -139
t50 -115.5t92 -79.5t135 -29.5z" />
    <glyph glyph-name="e.ss01" unicode="&#xf305;" horiz-adv-x="1746" 
d="M838 1044q113 0 198 -41t129 -112t58 -167t-15 -206l-4 -12q-3 -8 -12 -8h-840q-13 0 -10 -13q-17 -177 95 -290t296 -113q53 0 118 17t103.5 32.5t112.5 48.5q171 72 309 80q54 2 137 -8q42 -5 72.5 -11t73 -18.5t68.5 -35.5t32 -54q7 -38 -18 -82t-68 -67
q-21 -15 -57 -15q-64 0 -84 51q-17 36 3.5 81.5t63.5 72.5q-55 17 -141 27q-160 18 -317 -51q-21 -9 -108 -46t-134 -55q-183 -69 -321 -69q-111 0 -203 36.5t-152.5 105.5t-81 167t12.5 221q42 161 154 285t251 186.5t279 62.5zM356 567q0 -8 9 -8h671q8 0 8 6
q34 74 38 147.5t-21 132.5t-83.5 95.5t-141.5 36.5q-173 0 -303.5 -117.5t-176.5 -292.5z" />
    <glyph glyph-name="f.ss01" unicode="&#xf306;" horiz-adv-x="526" 
d="M256 969l12 45q3 8 15 8q102 0 106 4t8 16q19 59 47.5 119.5t71.5 123t92.5 110t112.5 78t129 30.5q82 0 141 -47q95 -81 33 -166q-23 -30 -57.5 -48.5t-67.5 -18.5q-20 0 -35 6q-34 13 -44.5 52.5t12 83.5t73.5 67q13 9 4 18q-13 8 -47 8q-73 0 -143 -61
q-76 -70 -112.5 -165t-28.5 -185q0 -16 6 -19.5t26 -3.5q63 -2 189 -2q7 0 4 -8l-12 -45q-3 -8 -11 -8h-202q-9 0 -13 -11l-248 -934q-3 -16 -18 -16h-158q-12 0 -14 2q-5 5 -2 18l33 130l213 800q4 11 -6 11h-101q-11 0 -8 8z" />
    <glyph glyph-name="g.ss01" unicode="&#xf307;" horiz-adv-x="1413" 
d="M186 -137q6 2 9.5 -3.5t-0.5 -9.5q-48 -81 -59 -147t12 -112.5t70.5 -77t117.5 -45.5q67 -13 135 -13q160 0 285.5 63t150.5 156q13 42 5.5 75t-21.5 58t-42 43.5t-57.5 30.5t-67 20t-70 12t-68.5 5q-41 3 -86.5 3.5t-108 -0.5t-86.5 -1q-32 0 -53.5 1t-57.5 4
t-59.5 11.5t-46.5 22t-31 36t-2 52.5l2 2q11 50 73.5 112t180.5 152q12 12 2 15q-77 58 -102.5 143.5t0.5 171.5q21 76 73.5 147t129.5 128t184.5 91.5t228.5 34.5q88 0 156 -18t139 -57q7 -4 11 0q91 75 211.5 121.5t224.5 46.5q50 0 80 -21q30 -23 29 -69t-33 -84
q-51 -58 -117 -58q-27 0 -43 13q-35 19 -40.5 61t21.5 80q4 4 0.5 9t-8.5 3q-3 -1 -32.5 -9.5t-35.5 -10.5t-32 -11t-36.5 -14t-34 -15.5t-38.5 -20.5t-36.5 -24t-41.5 -30q-8 -3 -4 -14q53 -56 69 -131.5t-5 -149.5q-19 -73 -69 -141.5t-125.5 -126t-185.5 -92.5t-235 -35
q-164 0 -256 51q-5 3 -10 -2q-46 -38 -62.5 -51.5t-43 -38t-37 -39.5t-14.5 -29q-5 -22 6.5 -35t50.5 -19t110 -3l261 10q89 2 161 -9.5t119.5 -34.5t81.5 -55t47 -70.5t16 -82t-12 -88.5q-29 -104 -127.5 -187t-240.5 -128t-301 -45q-62 0 -120.5 6t-124.5 24.5t-111.5 48
t-68 81.5t-6.5 120q23 78 90 128.5t162 64.5zM526 307q61 -28 111 -28q90 0 168 55q89 60 150 147t82.5 173.5t2 167t-81.5 128.5q-73 54 -147 54q-68 0 -139 -37t-133 -107q-85 -90 -122.5 -195.5t-11.5 -204t121 -153.5z" />
    <glyph glyph-name="h.ss01" unicode="&#xf308;" horiz-adv-x="1095" 
d="M82 8l403 1518q3 8 11 8h178q9 0 6 -8l-166 -621q0 -17 12 -8q105 67 229.5 107t227.5 40q184 0 226.5 -95t-25.5 -333l-127 -489q-63 -222 -74 -256q-41 -147 -16 -205q2 -8 13 -1q5 3 5 9q0 32 21.5 65t54.5 54q35 21 74 21q76 0 88 -74q3 -32 -23 -82
q-48 -78 -162 -78q-75 0 -126 24t-75.5 62.5t-31.5 96t0 115.5t24 130l99 377l59 219q14 50 22 86t13.5 79.5t-1 73t-22.5 56t-50.5 40t-84.5 13.5q-85 0 -189 -40.5t-186 -110.5q-4 -4 -4 -6l-209 -787q0 -8 -8 -8h-176q-10 0 -10 8z" />
    <glyph glyph-name="i.ss01" unicode="&#xf309;" horiz-adv-x="372" 
d="M383 1047h178q11 0 8 -9l-86 -329q-14 -53 -61.5 -228t-85.5 -320t-57 -227q-28 -101 10 -141q4 -4 11 0t5 10q-6 38 14 77t60 63q42 22 76 22q77 0 86 -74q6 -43 -21 -84q-67 -90 -205 -77q-112 11 -153 76.5t-41 189.5q2 67 35 225l127 477l90 340q3 9 10 9zM612 1511
q38 -5 59 -32.5t15 -65.5q-7 -55 -60 -96t-104 -33q-38 4 -57.5 31.5t-13.5 66.5q8 54 58 95t103 34z" />
    <glyph glyph-name="j.ss01" unicode="&#xf310;" horiz-adv-x="393" 
d="M-598 -377q20 34 56 54t73 20q26 0 47 -12q30 -19 35.5 -58t-16 -78.5t-62.5 -60.5q-6 -4 -6.5 -10.5t4.5 -7.5q21 -9 59 -9q88 0 203.5 54t179.5 127q12 14 22 31.5t16 30t13 35.5t9 31.5t8.5 36.5t7.5 33l318 1194q3 10 12 10h176q9 0 6 -10l-321 -1212
q-29 -111 -50 -153q-30 -59 -83 -101q-207 -162 -451 -162q-185 0 -248 76q-21 31 -24 67t16 74zM600 1499q38 -5 58 -32t14 -68q-8 -57 -58 -97.5t-106 -31.5q-37 6 -56.5 34t-13.5 66q0 52 54 94.5t108 34.5z" />
    <glyph glyph-name="k.ss01" unicode="&#xf311;" horiz-adv-x="1064" 
d="M496 1534h178q9 0 6 -8l-252 -940q0 -5 4 -7.5t10 1.5l758 462h6h82q5 0 7 -2.5t0.5 -6.5t-5.5 -7q-98 -59 -354 -219.5t-289 -179.5q-9 -6 -6 -15l633 -845q32 -47 88.5 -74.5t124.5 -32.5q65 0 110 18q16 10 7 19q-36 16 -41.5 54t16 78.5t59.5 64.5q33 20 70 20
q34 0 58 -15.5t30 -43.5q7 -34 -12 -75t-53 -73q-54 -51 -152 -82l-23 -6q-86 -27 -180 -27q-118 0 -215 45.5t-160 131.5l-161 217l-408 549q-5 4 -10.5 1.5t-7.5 -8.5l-138 -520q0 -8 -8 -8h-178q-8 0 -8 8l403 1518q3 8 11 8z" />
    <glyph glyph-name="l.ss01" unicode="&#xf312;" horiz-adv-x="378" 
d="M-815 1634q16 8 51 8q88 0 213 -98q86 -71 293 -55q80 8 188 24q36 6 107 19t115 20.5t105 15.5t112 11q112 6 223 -18q49 -12 70.5 -52t7.5 -94l-373 -1407q0 -8 -8 -8h-176q-11 0 -11 8l363 1368q17 65 -17 106.5t-98 41.5l-69 -6q-86 -8 -237.5 -36t-203.5 -36
q-100 -14 -170 -14q-154 0 -245 55l-95 67q-4 4 -10 0t-6 -10q-5 -41 -38.5 -79t-76.5 -48q-43 -11 -80 12t-41 64q0 41 31.5 82.5t75.5 58.5z" />
    <glyph glyph-name="m.ss01" unicode="&#xf313;" horiz-adv-x="1736" 
d="M82 8l272 1026q3 10 13 10h176q9 0 6 -10l-35 -129q0 -14 14 -6q100 67 208.5 106t199.5 39q115 0 169 -38t60 -129q3 -14 15 -5q108 79 226.5 125.5t221.5 46.5q172 0 213.5 -95t-24.5 -333l-95 -364l-104 -391q-27 -136 -2 -180q5 -4 10.5 -2t7.5 8q6 29 27 59t47 47
q34 21 74 21q76 0 88 -72q3 -46 -23 -82q-57 -97 -211 -76q-68 10 -112 33t-64.5 62.5t-26 88t5 119.5t28 145t43.5 177q1 1 1 2q17 65 53 190.5t54 190.5l2 12q49 173 27 261.5t-134 88.5q-78 0 -170.5 -45t-179.5 -123q-3 -10 -2 -10q-11 -67 -35 -160l-159 -608
q0 -8 -11 -8h-176q-8 0 -8 8l158 596q49 173 27 261.5t-134 88.5q-75 0 -165.5 -41t-168.5 -112q-4 -4 -4 -6l-209 -787q0 -8 -8 -8h-176q-10 0 -10 8z" />
    <glyph glyph-name="n.ss01" unicode="&#xf314;" horiz-adv-x="1103" 
d="M82 8q42 162 150.5 565.5t123.5 460.5q3 10 13 10h172q11 0 8 -10l-35 -129q0 -17 12 -8q105 67 229.5 107t227.5 40q184 0 226.5 -95t-25.5 -333l-74 -286q-14 -51 -45 -162.5t-54 -197.5t-42 -167q-15 -67 6 -125q4 -5 10.5 -2.5t7.5 9.5q14 55 58.5 92t97.5 37
q76 0 88 -72q3 -46 -23 -82q-66 -96 -210 -76q-147 18 -187 111q-11 25 -17 53t-5 62t3 58.5t12 66.5t14.5 61t18 66.5t17.5 60.5l127 481q14 47 22.5 83.5t13.5 79t-1.5 73.5t-22.5 57.5t-50.5 40.5t-84.5 14q-85 0 -189 -40.5t-186 -110.5q-4 -4 -4 -6l-209 -787
q0 -8 -10 -8h-176q-8 0 -8 8z" />
    <glyph glyph-name="o.ss01" unicode="&#xf315;" horiz-adv-x="1222" 
d="M319 1337q29 13 56 13q65 0 86 -52q12 -35 -3.5 -74t-51.5 -69q0 -1 -1.5 -2t-1.5 -2q-6 -8 5 -12q81 -20 229 -35q84 -6 128.5 -10.5t116 -15.5t119 -26t103.5 -41.5t104 -62.5q97 -71 130 -187.5t-3 -250.5q-42 -155 -155 -277.5t-262 -187.5t-306 -65q-116 0 -212 38
t-157.5 107.5t-83.5 167t11 217.5q48 180 187.5 313.5t324.5 188.5l57 -4q8 -2 8 -8.5t-10 -10.5q-119 -43 -209.5 -151.5t-142.5 -255.5q-33 -108 -36 -205.5t23.5 -174.5t91.5 -125t161 -54q107 -8 208 47.5t175.5 153.5t115.5 222q79 233 13 394q-22 49 -60.5 85.5
t-82 57.5t-103 34t-110.5 18t-117 7q-44 2 -72 4.5t-84.5 8t-96 16t-82 25.5t-68 38.5t-30.5 53.5q-8 38 18 82t70 67z" />
    <glyph glyph-name="p.ss01" unicode="&#xf316;" horiz-adv-x="1130" 
d="M-313 -432q46 70 125 70q54 0 76 -37t10 -93q0 -6 5 -8t11 4q51 64 70 123q32 113 73 285l299 1122q3 8 13 8h176q9 0 6 -8l-21 -73q0 -5 4.5 -8t10.5 1q64 45 149.5 67.5t163.5 22.5q7 0 18.5 -1t18.5 -1q211 -12 308 -160t40 -372q-40 -153 -140.5 -274.5t-240 -188.5
t-293.5 -67q-163 0 -264 79q-5 4 -10.5 0.5t-5.5 -8.5q-9 -31 -30.5 -113.5t-35.5 -127.5q-4 -12 -15 -44t-17.5 -49t-17 -43t-22 -47.5t-24.5 -42.5q-50 -80 -135.5 -130t-175.5 -56q-58 -5 -102 15.5t-50 70.5q-5 35 23 84zM324 168q35 -56 102.5 -87.5t153.5 -31.5
q165 0 285 113t163 291q20 75 24 148t-10.5 140t-47 117.5t-89.5 80.5t-133 30q-139 0 -268 -113q-2 -2 -2 -6l-178 -676q-3 -3 0 -6z" />
    <glyph glyph-name="q.ss01" unicode="&#xf317;" horiz-adv-x="1128" 
d="M805 1053q215 0 303 -90q4 -4 10 -1t6 9l21 71q4 11 10 11h176q12 0 8 -11l-299 -1122q-7 -25 -24 -87.5t-28 -107t-19 -87.5q-15 -67 6 -125q1 -4 5 -4.5t7.5 2t3.5 6.5q22 78 84 108q44 23 72 23q36 0 60 -18.5t30 -53.5q3 -48 -23 -84q-34 -50 -87.5 -69.5
t-110.5 -14.5q-89 5 -149.5 53.5t-67.5 132.5q-8 69 26 224q11 62 62 241q0 6 -4.5 9.5t-8.5 -0.5q-150 -80 -309 -80q-117 0 -206 39t-138.5 109.5t-64 167.5t17.5 214q61 226 237 374.5t394 160.5zM356 461q-27 -117 -15.5 -206.5t77 -143.5t176.5 -54q85 0 168.5 32
t150.5 89l5 6l178 674q3 3 0 6q-64 113 -209 113q-96 0 -184.5 -45.5t-154.5 -121t-115 -164.5t-77 -185z" />
    <glyph glyph-name="r.ss01" unicode="&#xf318;" horiz-adv-x="899" 
d="M373 1044h159q7 0 11 -4q4 -1 4 -18l-68 -246q-3 -10 4 -14q5 -4 15 6q39 28 105.5 87.5t123.5 101t117 63.5q47 20 112 20q88 0 156 -43v-2q19 -19 21.5 -48.5t-11.5 -58.5t-35.5 -53t-53.5 -36t-64 -4q-47 9 -56 49q-15 46 -25 56q-17 16 -52 11q-51 -9 -134 -57
q-91 -54 -208 -149q-25 -16 -35.5 -32t-16.5 -42l-163 -615q-3 -16 -19 -16h-158q-12 0 -16 4t-2 12l268 1010q3 18 21 18z" />
    <glyph glyph-name="s.ss01" unicode="&#xf319;" horiz-adv-x="864" 
d="M156 307q38 10 49 10q31 0 55 -16t31 -45q10 -37 -12.5 -80.5t-63.5 -66.5q-15 -6 -4 -17q103 -65 270 -55q69 5 131.5 33t92.5 80q13 13 22 47q11 42 -8 78.5t-59 63.5t-92 55.5t-108 53.5t-107 58t-88 70t-52.5 88.5t0.5 113.5q17 65 67 117t115.5 81.5t131.5 45.5
t128 18q106 5 189.5 -30t120.5 -111q27 -59 30 -129q2 -7 -6 -10q-5 -5 -14 -8q-14 -3 -14 4q-6 25 -3 28q-25 85 -90 138q-14 14 -34 24q-100 54 -230 33q-66 -8 -121 -44.5t-71 -94.5q-8 -32 3.5 -62t33.5 -52.5t61.5 -47t76 -43t88.5 -42.5q5 -2 7 -3q29 -14 54 -27.5
t52 -31t47 -35t40.5 -39t32 -43.5t20.5 -48.5t7.5 -54t-7.5 -59.5q-17 -64 -61.5 -114.5t-103.5 -81t-119 -48.5t-122 -24q-113 -12 -233 16q-37 10 -70 23t-70.5 33t-61.5 47.5t-28 58.5q-4 41 24.5 83.5t72.5 61.5z" />
    <glyph glyph-name="t.ss01" unicode="&#xf320;" horiz-adv-x="546" 
d="M-123 1337q29 13 55 13q63 0 84 -52q12 -28 0 -68t-47 -75q-11 -11 2 -14q114 -31 226 -31q80 0 151 16.5t141 64t109 122.5q3 8 10 8h15q9 0 6 -10l-54 -195q-3 -10 9 -10h211q9 0 6 -8l-13 -43q-4 -11 -10 -11h-211q-9 0 -12 -8l-215 -813q-18 -67 -12 -112
q16 -62 94 -62q98 0 180 121q2 7 12 4h7l20 -8q6 -3 0 -12q-59 -87 -128 -130.5t-173 -43.5q-131 0 -175 73t-11 207l206 776q3 8 -6 8q-112 0 -169 1.5t-146 14t-158 38.5q-82 32 -92 90q-8 38 18 82t70 67z" />
    <glyph glyph-name="u.ss01" unicode="&#xf321;" horiz-adv-x="1093" 
d="M367 1047h176q9 0 6 -9l-166 -630q-31 -119 -31.5 -183t31.5 -104q29 -51 127 -51q82 0 187 41.5t186 109.5q4 4 4 6l215 811q4 11 10 11q74 -2 176 -2q11 0 8 -9l-215 -809q-22 -83 -77 -297q-33 -140 -33 -196q0 -29 6 -51q2 -6 7.5 -5t10.5 7q19 51 60 83.5t90 32.5
q42 0 68 -26.5t22 -69.5q-4 -24 -16 -47q-31 -60 -93.5 -78.5t-124.5 -7.5q-44 6 -77 18t-57.5 27t-40 38.5t-24.5 47.5t-9.5 60.5t2 70t12.5 84.5t21 95.5t28 109.5q-3 3 -10 0q-105 -66 -228 -105.5t-227 -39.5q-128 0 -184 37t-61.5 129t38.5 247l170 645q3 9 13 9z" />
    <glyph glyph-name="v.ss01" unicode="&#xf322;" horiz-adv-x="952" 
d="M-156 1231q23 69 92.5 104t141.5 35t146.5 -24t117.5 -64q55 -47 94 -117t60 -158.5t31.5 -162t17.5 -170.5q24 -254 53 -438v-9q0 -6 6 -6t10 6q32 46 122.5 186t221.5 343.5t183 283.5q2 1 4.5 2t3.5 1.5t2 0.5h61q5 0 8 -4t-1 -8l-666 -1026q-4 -4 -8 -4h-113
q-4 0 -8 4l-68 500q-7 45 -18.5 138t-18.5 138q-7 36 -20.5 169.5t-36.5 199.5q-48 157 -186 168q-4 1 -7 -4.5t-1 -11.5q25 -48 -17 -113t-104 -72q-53 -7 -84 28t-19 85z" />
    <glyph glyph-name="w.ss01" unicode="&#xf323;" horiz-adv-x="1550" 
d="M-160 1223q15 47 57 80t86.5 46t88.5 13q72 0 147.5 -24t118.5 -64q25 -21 46 -48t35.5 -50.5t28 -61t20.5 -60t16 -68t12 -65t10.5 -70.5t9.5 -67q5 -41 32 -244t38 -313q6 -12 18 0l318 492l2 6l-39 317q-3 13 10 13h190q9 0 9 -4q93 -706 104 -824q0 -6 6 -6t10 6
q1 2 213 335.5t314 488.5q4 4 10 4h61q10 0 7 -13q-66 -101 -259 -402.5t-270 -420.5l-137 -215q-9 -6 -12 -6h-115q-7 0 -4 6l-80 590q0 4 -2.5 5.5t-6.5 0t-7 -5.5l-383 -590q-9 -6 -15 -6h-112q-7 0 -4 6q-14 88 -24.5 186.5t-22 218.5t-19.5 191q-6 43 -19.5 170
t-28.5 212.5t-40 160.5q-56 158 -184 168q-6 2 -9 -4.5t1 -12.5q21 -48 -21 -112.5t-102 -71.5q-53 -7 -84 28t-19 85z" />
    <glyph glyph-name="x.ss01" unicode="&#xf324;" horiz-adv-x="872" 
d="M289 1044h215q8 0 4 -4l145 -395q3 -9 15 0q44 41 182.5 182t214.5 220q2 2 8 2h62q5 0 6.5 -5.5t-2.5 -9.5q-74 -74 -245.5 -250.5t-205.5 -210.5q-5 -5 -2 -10q7 -29 14 -41q19 -50 73.5 -212t74.5 -218q1 -2 100 -297q43 -125 168 -162q62 -13 109 -6q6 0 8 6t0 11
q-43 39 -12.5 103.5t94.5 94.5q13 8 43 8q38 0 63.5 -24.5t24.5 -61.5q0 -39 -26 -75.5t-66 -63.5q-68 -41 -164 -51q-3 0 -9.5 -1t-9.5 -1q-223 -14 -368 127q-53 60 -96 162q-48 125 -54 143l-30 90q-15 38 -45.5 119t-47.5 123l-6 26l-14 31q0 11 -12 2l-402 -391
q-4 -4 -8 -4h-74q-6 0 -8 5t2 9l469 455q6 6 2 10q-10 42 -203 551q-3 14 13 14z" />
    <glyph glyph-name="y.ss01" unicode="&#xf325;" horiz-adv-x="944" 
d="M291 1047h186q3 0 6 -7q13 -76 31.5 -202.5t31.5 -224.5t28.5 -220t17.5 -139l2 -10q0 -13 16 0q22 39 183 278q58 92 335 510l2 8q4 7 13 7h61q9 0 6 -13q-83 -128 -248.5 -379t-248.5 -379q-74 -114 -168 -245q-142 -204 -332 -461q-89 -131 -180 -150
q-43 -10 -75 13.5t-34 64.5q0 42 29.5 83.5t71.5 58.5q13 8 47 8q64 0 86 -54q8 -14 18 3q28 41 73.5 113t59.5 93l68 101q46 70 37 141v2l-135 987q-3 13 12 13z" />
    <glyph glyph-name="z.ss01" unicode="&#xf326;" horiz-adv-x="980" 
d="M252 893q28 40 84 69.5t123 45t118 22.5t99 10q64 4 282 4h285q5 0 6.5 -5t-4.5 -9l-893 -940q-6 -4 -5 -9t7 -5h592q9 0 6 -10l-14 -58q0 -8 -8 -8h-883q-5 0 -7.5 5t1.5 9l897 940q7 5 6.5 9t-8.5 6q-117 20 -219 20q-142 0 -268 -35q-20 -3 -9 -14q27 -26 24.5 -72
t-34.5 -82q-48 -57 -119 -57q-26 0 -47 12q-31 20 -34.5 64.5t22.5 87.5z" />
    <glyph glyph-name="fi" unicode="&#xfb01;" horiz-adv-x="985" 
d="M256 973l12 43q3 8 15 8h116q8 0 11 10q24 79 68.5 160.5t103.5 152.5t134.5 115.5t151.5 44.5q79 0 156 -53q3 -7 2 -8l-14 -53q-2 -6 -8 -8.5t-11 1.5q-43 74 -119 74q-31 0 -83 -22q-142 -74 -193 -301q-6 -12 -5 -62.5t13 -50.5h238q9 0 6 -8l-12 -43q-3 -10 -13 -10
h-231q-10 0 -10 -9l-250 -944q-3 -10 -12 -10h-175q-11 0 -8 10l250 944q0 9 -8 9h-117q-11 0 -8 10zM958 1034q3 10 11 10h178q11 0 8 -10l-272 -1026q0 -8 -11 -8h-176q-8 0 -8 8q13 48 70.5 271t112 429.5t87.5 325.5zM1198 1509q39 -5 59.5 -32t14.5 -68
q-8 -56 -59.5 -96t-106.5 -33q-37 6 -56.5 34t-13.5 66q9 54 57.5 95t104.5 34z" />
    <glyph glyph-name="fl" unicode="&#xfb02;" horiz-adv-x="944" 
d="M256 973l12 43q3 8 15 8h116q8 0 11 10q24 79 68.5 160.5t103.5 152.5t134.5 115.5t151.5 44.5q79 0 156 -53q3 -7 2 -8l-14 -53q-2 -6 -8 -8.5t-11 1.5q-43 74 -119 74q-31 0 -83 -22q-142 -74 -193 -301q-6 -12 -5 -62.5t13 -50.5h238q9 0 6 -8l-12 -43q-3 -10 -13 -10
h-231q-10 0 -10 -9l-250 -944q-3 -10 -12 -10h-175q-11 0 -8 10l250 944q0 9 -8 9h-117q-11 0 -8 10zM670 10l401 1516q3 8 10 8q72 2 179 2q9 0 6 -8l-402 -1518q-3 -10 -10 -10h-176q-11 0 -8 10z" />
    </font>
</defs>
</svg>
