<?xml version="1.0" standalone="no"?>
<!DOCTYPE svg PUBLIC "-//W3C//DTD SVG 1.1//EN" "http://www.w3.org/Graphics/SVG/1.1/DTD/svg11.dtd" >
<svg xmlns="http://www.w3.org/2000/svg" xmlns:xlink="http://www.w3.org/1999/xlink" version="1.1">
<metadata>
Created by FontForge 20170731 at Fri Aug 27 12:08:17 2021
 By Aleksey,,,
Version 0.99B/ created on 06-11-94/Copr.1994 by Dutch Type Library/URW
</metadata>
<defs>
<font id="DTLNobelT" horiz-adv-x="1024" >
  <font-face 
    font-family="DTLNobelT"
    font-weight="400"
    font-stretch="normal"
    units-per-em="2048"
    panose-1="2 0 5 3 4 0 0 2 0 3"
    ascent="1638"
    descent="-410"
    x-height="944"
    cap-height="1610"
    bbox="-319 -479 2466 2191"
    underline-thickness="40"
    underline-position="-312"
    unicode-range="U+0020-FB02"
  />
<missing-glyph 
 />
    <glyph glyph-name=".notdef" 
 />
    <glyph glyph-name=".null" horiz-adv-x="0" 
 />
    <glyph glyph-name="nonmarkingreturn" horiz-adv-x="682" 
 />
    <glyph glyph-name="space" unicode=" " horiz-adv-x="409" 
 />
    <glyph glyph-name="exclam" unicode="!" horiz-adv-x="614" 
d="M428 958l-59 -585h-125l-54 585v652h238v-652zM416 0h-219v240h219v-240z" />
    <glyph glyph-name="quotedbl" unicode="&#x22;" horiz-adv-x="935" 
d="M813 1610l-51 -506h-158l-51 506h260zM383 1610l-51 -506h-158l-51 506h260z" />
    <glyph glyph-name="numbersign" unicode="#" horiz-adv-x="1638" 
d="M1571 956h-361l-137 -356h354v-172h-419l-166 -428l-211 -2l166 430h-301l-166 -428l-211 -2l166 430h-285v172h350l137 356h-344v172h410l186 480h213l-186 -480h299l186 480h213l-186 -480h293v-172zM999 956h-301l-137 -356h301z" />
    <glyph glyph-name="dollar" unicode="$" horiz-adv-x="1433" 
d="M1233 432q0 -82 -27.5 -157t-80.5 -136.5t-139 -102t-195 -50.5v-228h-113v224q-114 5 -216 40t-220 125l133 172q89 -65 158 -92t145 -32v528l-121 63q-143 74 -218 175t-75 253q0 171 114.5 284t299.5 132v209h113v-205q110 -4 190 -32t186 -97l-118 -180
q-103 92 -258 105v-498l163 -84q123 -64 201 -166.5t78 -249.5zM678 987v438q-77 -16 -123.5 -65t-46.5 -131q0 -45 13.5 -83.5t29 -61t45.5 -46t42 -30t40 -21.5zM987 412q0 73 -43.5 134.5t-95.5 88.5l-57 31v-469q92 11 144 67.5t52 147.5z" />
    <glyph glyph-name="ampersand" unicode="&#x26;" horiz-adv-x="1433" 
d="M1528 0h-271l-157 164q-99 -91 -201.5 -142t-245.5 -51q-111 0 -202 24t-152.5 64t-103 95.5t-60 116.5t-18.5 128q0 208 233 398l76 61l-94 109q-46 52 -77.5 123t-31.5 141q0 180 112.5 289.5t289.5 109.5q122 0 208 -49.5t125 -128.5t39 -180q0 -100 -48.5 -182.5
t-121.5 -141.5l-122 -100l387 -402q20 23 47 61t44 65l17 26l148 -113q-66 -108 -127 -174zM788 1262q0 84 -46 134t-132 50q-77 0 -127.5 -54.5t-50.5 -138.5q0 -100 84 -192l70 -78l88 68q55 44 84.5 90t29.5 121zM965 297l-412 430l-78 -63q-53 -43 -92 -116t-39 -138
q0 -122 91 -187t218 -65q72 0 136 24t98 49t78 66z" />
    <glyph glyph-name="quotesingle" unicode="'" horiz-adv-x="505" 
d="M383 1610l-51 -506h-158l-51 506h260z" />
    <glyph glyph-name="parenleft" unicode="(" horiz-adv-x="724" 
d="M647 -387q-280 211 -400 454t-120 590q0 248 56.5 427.5t165.5 309.5t294 257v-201q-258 -225 -258 -782q0 -325 67.5 -528t194.5 -345v-182z" />
    <glyph glyph-name="parenright" unicode=")" horiz-adv-x="724" 
d="M598 657q0 -347 -120 -590t-400 -454v182q127 142 194.5 345t67.5 528q0 557 -258 782v201q185 -127 294 -257t165.5 -309.5t56.5 -427.5z" />
    <glyph glyph-name="asterisk" unicode="*" horiz-adv-x="860" 
d="M885 1223l-297 -82l192 -238l-159 -115l-170 256l-166 -253l-160 116l192 240l-292 80l61 188l287 -108l-15 303h199l-14 -312l282 111z" />
    <glyph glyph-name="plus" unicode="+" horiz-adv-x="1124" 
d="M1073 520h-420v-520h-184v520h-420v162h420v471h184v-471h420v-162z" />
    <glyph glyph-name="comma" unicode="," horiz-adv-x="512" 
d="M424 104q0 -88 -11.5 -135.5t-37.5 -95.5q-7 -14 -13.5 -25.5t-14 -22.5t-12 -18t-13.5 -19t-13.5 -17.5t-17.5 -21t-19 -23.5h-186q72 133 84 219q4 29 4 190v115h250v-146z" />
    <glyph glyph-name="hyphen" unicode="-" horiz-adv-x="641" 
d="M606 438h-567v172h567v-172z" />
    <glyph glyph-name="period" unicode="." horiz-adv-x="512" 
d="M424 0h-250v250h250v-250z" />
    <glyph glyph-name="slash" unicode="/" horiz-adv-x="1069" 
d="M952 1608l-622 -1608h-211l620 1608h213z" />
    <glyph glyph-name="zero" unicode="0" horiz-adv-x="1433" 
d="M1317 817q0 -393 -153 -615t-447 -222q-200 0 -336 103t-200 288t-64 446q0 388 155 600.5t445 212.5q295 0 447.5 -211.5t152.5 -601.5zM1083 817q0 149 -24.5 262.5t-61.5 179t-88 107t-96 55t-94 13.5t-94.5 -13.5t-97.5 -55t-89.5 -107t-62.5 -179.5t-25 -262
q0 -152 24 -269.5t61.5 -186t88 -112t97 -58.5t96.5 -15q49 0 95 15t97 58.5t88 112t61.5 186t24.5 269.5z" />
    <glyph glyph-name="one" unicode="1" horiz-adv-x="1433" 
d="M889 0h-248v1262q-73 -68 -141 -97q-40 -17 -89 -32.5t-77 -22.5l-29 -6v213q17 4 44 12t93.5 36.5t110.5 61.5q38 28 80.5 73.5t66.5 77.5l23 32h166v-1610z" />
    <glyph glyph-name="two" unicode="2" horiz-adv-x="1433" 
d="M1298 0h-1167l594 680q2 2 36 43t56 69t58.5 80t58.5 94t39.5 93t17.5 92q0 270 -289 270q-145 0 -225 -79.5t-80 -198.5v-70h-227v74q0 96 38 183t105 153.5t167 105.5t218 39q90 0 168.5 -15t148.5 -49.5t119 -86.5t78 -132t29 -180q0 -238 -258 -524l-371 -422h686
v-219z" />
    <glyph glyph-name="three" unicode="3" horiz-adv-x="1433" 
d="M1264 453q0 -220 -155 -346.5t-435 -126.5q-310 0 -543 139l117 174q201 -115 426 -115q151 0 247.5 76t96.5 197q0 254 -344 254h-156v202h158q132 0 209.5 77t77.5 198q0 241 -295 241q-79 0 -173 -49.5t-141 -128.5l-151 127q181 258 508 258q108 0 194.5 -26.5
t141.5 -69.5t92 -100.5t52 -115t15 -116.5q0 -151 -72 -254.5t-153 -111.5q44 -5 92 -33t91.5 -75t71.5 -119.5t28 -155.5z" />
    <glyph glyph-name="four" unicode="4" horiz-adv-x="1433" 
d="M1303 313h-238v-313h-238v317h-721v197l793 1096h166v-1075h238v-222zM827 535v626l-465 -626h465z" />
    <glyph glyph-name="five" unicode="5" horiz-adv-x="1433" 
d="M1260 543q0 -256 -163 -409.5t-454 -153.5q-67 0 -141.5 16t-133.5 38t-108.5 44.5t-76.5 38.5l-27 16l112 201q9 -5 25 -14t64 -31.5t93 -40t104 -31.5t105 -14q148 0 245 87.5t97 254.5q0 137 -97 226t-220 89q-110 0 -189.5 -27.5t-134.5 -99.5l-127 35l31 842h916
v-209h-693l-18 -377q87 53 264 53q74 0 147.5 -20t142.5 -63.5t121.5 -104.5t84 -150.5t31.5 -195.5z" />
    <glyph glyph-name="six" unicode="6" horiz-adv-x="1433" 
d="M1262 565q0 -274 -139.5 -429.5t-409.5 -155.5q-112 0 -203 34t-153 92t-104.5 138t-61.5 169t-19 187q0 520 440 1010h271q-132 -140 -257.5 -332t-158.5 -291q37 45 113.5 75t173.5 30q228 0 368 -143t140 -384zM1014 557q0 160 -73.5 253t-217.5 93q-133 0 -224 -94
t-91 -254q0 -68 16.5 -130.5t51.5 -118t97 -89t144 -33.5q64 0 116 23t85 60t55.5 86.5t31.5 100t9 103.5z" />
    <glyph glyph-name="seven" unicode="7" horiz-adv-x="1433" 
d="M1368 1610l-811 -1610h-289l736 1389h-826v221h1190z" />
    <glyph glyph-name="eight" unicode="8" horiz-adv-x="1433" 
d="M1317 461q0 -212 -155 -346.5t-406 -134.5t-414.5 135.5t-163.5 345.5q0 148 70.5 253t179.5 138q-2 2 -28.5 17.5t-54.5 39.5t-58.5 60.5t-50 93.5t-19.5 125q0 202 153.5 322t389.5 120q245 0 384.5 -117.5t139.5 -324.5q0 -44 -8.5 -84t-21 -69.5t-31.5 -56.5
t-35.5 -44t-38 -33.5t-34 -24l-27.5 -16.5l-15 -8q112 -38 178 -140t66 -251zM1067 1198q0 45 -17 88.5t-51.5 82.5t-95.5 63t-141 24q-79 0 -143 -24t-101.5 -63t-57.5 -83t-20 -88q0 -115 90 -194.5t232 -79.5q148 0 226.5 77t78.5 197zM1090 451q0 136 -84.5 222.5
t-249.5 86.5q-160 0 -252 -88.5t-92 -220.5q0 -106 99.5 -195.5t244.5 -89.5q150 0 242 88t92 197z" />
    <glyph glyph-name="nine" unicode="9" horiz-adv-x="1433" 
d="M1284 1008q0 -86 -13 -170t-32.5 -154.5t-57 -152t-71 -142.5t-91.5 -148t-100.5 -146t-115.5 -158l-197 116q136 152 250.5 318.5t132.5 249.5q-35 -46 -112 -75.5t-175 -29.5q-238 0 -372.5 141t-134.5 385q0 265 152.5 425.5t395.5 160.5q112 0 203 -34t153 -92
t104.5 -138t61.5 -169t19 -187zM1049 1053q0 68 -17 130.5t-51.5 117.5t-97 88.5t-144.5 33.5q-76 0 -135 -31.5t-93.5 -84.5t-51.5 -118t-17 -138q0 -150 78 -248t213 -98t225.5 96t90.5 252z" />
    <glyph glyph-name="colon" unicode=":" horiz-adv-x="512" 
d="M424 709h-250v249h250v-249zM424 0h-250v250h250v-250z" />
    <glyph glyph-name="semicolon" unicode=";" horiz-adv-x="512" 
d="M424 709h-250v249h250v-249zM424 104q0 -88 -11.5 -135.5t-37.5 -95.5q-7 -14 -13.5 -25.5t-14 -22.5t-12 -18t-13.5 -19t-13.5 -17.5t-17.5 -21t-19 -23.5h-186q72 133 84 219q4 29 4 190v115h250v-146z" />
    <glyph glyph-name="less" unicode="&#x3c;" horiz-adv-x="1124" 
d="M932 33l-821 514v143l819 508v-221l-621 -361l623 -362v-221z" />
    <glyph glyph-name="equal" unicode="=" horiz-adv-x="1124" 
d="M1028 629h-936v172h936v-172zM1028 244h-936v172h936v-172z" />
    <glyph glyph-name="greater" unicode="&#x3e;" horiz-adv-x="1124" 
d="M1012 539l-819 -508v221l620 360l-623 363v221l822 -514v-143z" />
    <glyph glyph-name="question" unicode="?" horiz-adv-x="1069" 
d="M903 1253q0 -171 -188 -405q-149 -183 -146 -475h-200q0 168 19 254.5t65 179.5q24 47 87 140t103.5 169t40.5 133q0 83 -61 130.5t-144 47.5q-153 0 -276 -127l-111 144q168 168 428 168q54 0 105 -10.5t102.5 -36.5t89.5 -66t62 -103t24 -143zM567 0h-198v240h198v-240
z" />
    <glyph glyph-name="at" unicode="@" horiz-adv-x="2048" 
d="M1915 778q0 -82 -18 -155.5t-53.5 -137.5t-64 -104t-73.5 -94h-281h-182v80l-51 -31q-135 -78 -272 -78q-149 0 -244.5 85.5t-95.5 219.5q0 152 136 251t343 99q81 0 184 -14v19q0 69 -66.5 118t-162.5 49q-65 0 -122.5 -17t-133.5 -62l-80 172q166 86 385 86
q181 0 286 -75.5t105 -236.5v-489h154q125 162 125 315q0 307 -188 491.5t-521 184.5q-145 0 -277 -57t-227.5 -153.5t-152 -229t-56.5 -277.5t56.5 -277.5t152 -229t227.5 -153.5t277 -57h184v-174h-184q-181 0 -346 70.5t-284.5 190t-190 284.5t-70.5 346t70.5 346
t190 284.5t284.5 190t346 70.5q268 0 468.5 -99.5t311.5 -292.5t111 -458zM1243 526v226q-37 8 -147 8q-55 0 -107.5 -10.5t-96.5 -30.5t-70.5 -53.5t-26.5 -75.5q0 -66 48.5 -106t129.5 -40q146 0 270 82z" />
    <glyph glyph-name="A" unicode="A" horiz-adv-x="1378" 
d="M1378 0h-260l-184 475h-490l-184 -475h-260l684 1683zM858 684l-182 444l-170 -444h352z" />
    <glyph glyph-name="B" unicode="B" horiz-adv-x="1355" 
d="M1278 432q0 -69 -16 -129t-56 -116.5t-101 -97t-158.5 -65t-221.5 -24.5h-512v1610h432q271 0 408 -109.5t137 -324.5q0 -130 -60 -227.5t-157 -123.5q129 -16 217 -122t88 -271zM944 1171q0 242 -352 242h-133v-522h186q154 0 226.5 69.5t72.5 210.5zM1030 428
q0 62 -14.5 106t-52.5 81t-110.5 55t-180.5 18h-213v-495h239q332 0 332 235z" />
    <glyph glyph-name="C" unicode="C" horiz-adv-x="1581" 
d="M1534 272q-238 -299 -631 -299q-235 0 -422 104t-294 294.5t-107 433.5q0 173 66 326.5t177 260t261 168.5t315 62q369 0 586 -242l-156 -161q-101 111 -198 148.5t-248 37.5q-111 0 -211.5 -43.5t-176.5 -120.5t-120.5 -190.5t-44.5 -245.5q0 -168 76 -310.5
t212.5 -227.5t303.5 -85q270 0 454 246z" />
    <glyph glyph-name="D" unicode="D" horiz-adv-x="1665" 
d="M1583 774q0 -114 -34 -225t-104.5 -210.5t-169.5 -174.5t-238.5 -119.5t-301.5 -44.5h-522v1610h408q176 0 321.5 -29t265.5 -93t202.5 -161t127.5 -237t45 -316zM1329 799q0 127 -45 235t-131.5 190t-223 128.5t-308.5 46.5h-162v-1192h254q266 0 441 167.5t175 424.5z
" />
    <glyph glyph-name="E" unicode="E" horiz-adv-x="1277" 
d="M1196 -2h-983v1610h930v-209h-684v-473h657v-209h-657v-510h737v-209z" />
    <glyph glyph-name="F" unicode="F" horiz-adv-x="1161" 
d="M1143 1399h-684v-473h657v-209h-657v-717h-246v1610h930v-211z" />
    <glyph glyph-name="G" unicode="G" horiz-adv-x="1732" 
d="M1671 723q-1 -169 -63.5 -311.5t-167.5 -237.5t-243.5 -148t-291.5 -53q-178 0 -331 61t-261 169.5t-169.5 263.5t-61.5 338q0 174 65 327t177 260.5t267.5 169.5t330.5 62q360 0 624 -246l-162 -166q-192 197 -479 197q-126 0 -234 -46t-182.5 -126.5t-116.5 -192
t-42 -239.5q0 -136 48.5 -253.5t130 -196.5t189.5 -124t226 -45q75 0 148.5 19t143 57.5t122 106.5t73.5 157h-502v197h762z" />
    <glyph glyph-name="H" unicode="H" horiz-adv-x="1744" 
d="M1532 0h-246v719h-827v-719h-246v1610h246v-682h827v682h246v-1610z" />
    <glyph glyph-name="I" unicode="I" horiz-adv-x="671" 
d="M459 0h-246v1610h246v-1610z" />
    <glyph glyph-name="J" unicode="J" horiz-adv-x="671" 
d="M459 522q0 -114 -11.5 -197.5t-37.5 -144t-62 -99.5t-91.5 -61.5t-119 -31t-151.5 -8.5v221h4q30 0 45 0.5t40.5 3t39 9t32 18t28.5 29.5t20 43t14 61t4 81v1164h246v-1088z" />
    <glyph glyph-name="K" unicode="K" horiz-adv-x="1490" 
d="M1491 0h-332l-700 803v-803h-246v1610h246v-688l633 688h303l-680 -731z" />
    <glyph glyph-name="L" unicode="L" horiz-adv-x="1101" 
d="M1077 0h-864v1610h246v-1403h618v-207z" />
    <glyph glyph-name="M" unicode="M" horiz-adv-x="2023" 
d="M1810 0h-245v1042l-547 -606l-559 608v-1044h-246v1671l815 -885l782 885v-1671z" />
    <glyph glyph-name="N" unicode="N" horiz-adv-x="1771" 
d="M1559 -47l-1100 1102v-1055h-246v1651l1100 -1102v1061h246v-1657z" />
    <glyph glyph-name="O" unicode="O" horiz-adv-x="1812" 
d="M1731 799q0 -232 -108.5 -423t-297.5 -300t-418 -109q-138 0 -264.5 41t-228 116.5t-176.5 177.5t-115.5 230t-40.5 267t40.5 266t115.5 228.5t176.5 177t228 116.5t264.5 41q172 0 324.5 -64t262 -174t173.5 -264t64 -327zM1475 799q0 174 -77.5 315t-207 219t-283.5 78
q-156 0 -286 -78t-206.5 -219t-76.5 -315q0 -162 76 -303.5t207.5 -226.5t285.5 -85q151 0 282.5 85t208.5 227t77 303z" />
    <glyph glyph-name="P" unicode="P" horiz-adv-x="1331" 
d="M1286 1128q0 -52 -11.5 -105.5t-35.5 -110.5t-67.5 -106t-101 -88.5t-142 -62t-185.5 -22.5h-284v-633h-246v1610h504q271 0 420 -124.5t149 -357.5zM1044 1122q0 43 -5 75.5t-24 72.5t-52.5 66.5t-96.5 44.5t-149 18h-258v-559h219q366 0 366 282z" />
    <glyph glyph-name="Q" unicode="Q" horiz-adv-x="1812" 
d="M1868 139l-197 -180q-161 0 -344 119q-192 -111 -420 -111q-138 0 -264.5 41t-228 116.5t-176.5 177.5t-115.5 230t-40.5 267t40.5 266t115.5 228.5t176.5 177t228 116.5t264.5 41q172 0 324.5 -64t262 -174t173.5 -264t64 -327q0 -165 -56 -311.5t-159 -256.5
q168 -92 352 -92zM1475 799q0 174 -77.5 315t-207 219t-283.5 78q-156 0 -286 -78t-206.5 -219t-76.5 -315q0 -162 76 -303.5t207.5 -226.5t285.5 -85q126 0 230 52q-67 70 -121 157l172 158q60 -108 127 -178q76 86 118 196.5t42 229.5z" />
    <glyph glyph-name="R" unicode="R" horiz-adv-x="1458" 
d="M1432 0h-334l-639 713v-713h-246v1610h547q108 0 202 -28.5t167.5 -83t116 -143.5t42.5 -202q0 -209 -132 -340t-357 -131zM1042 1147q0 54 -14.5 95.5t-50.5 79t-106.5 57.5t-172.5 20h-239v-535h241q97 0 167.5 25.5t106.5 68.5t52 89.5t16 99.5z" />
    <glyph glyph-name="S" unicode="S" horiz-adv-x="1155" 
d="M1069 432q0 -89 -32 -168.5t-93.5 -143t-161.5 -101t-225 -37.5q-130 0 -239.5 33t-239.5 132l133 172q105 -78 183.5 -102t183.5 -24q114 0 179.5 58t65.5 161q0 73 -43.5 134.5t-95.5 88.5l-291 151q-143 74 -218 175t-75 253q0 189 135.5 304.5t348.5 115.5
q130 0 217 -27t203 -102l-119 -180q-116 107 -301 107q-104 0 -172 -51.5t-68 -151.5q0 -44 13 -82t29 -61.5t43 -45t42.5 -30.5t40.5 -21q5 -3 8 -4l271 -137q123 -63 200.5 -166t77.5 -250z" />
    <glyph glyph-name="T" unicode="T" horiz-adv-x="1150" 
d="M1151 1399h-453v-1399h-245v1399h-453v211h1151v-211z" />
    <glyph glyph-name="U" unicode="U" horiz-adv-x="1757" 
d="M1561 653q0 -102 -25 -198.5t-79.5 -183.5t-132.5 -152t-191.5 -103.5t-249.5 -38.5q-169 0 -304 55.5t-218.5 150.5t-127 215t-43.5 255v957h246v-883q0 -249 121.5 -389.5t327.5 -140.5q204 0 317 139t113 391v883h246v-957z" />
    <glyph glyph-name="V" unicode="V" horiz-adv-x="1277" 
d="M1290 1610l-686 -1729l-616 1729h268l365 -1053l417 1053h252z" />
    <glyph glyph-name="W" unicode="W" horiz-adv-x="2007" 
d="M2013 1610l-565 -1737l-447 1169l-458 -1169l-545 1737h270l305 -1053l443 1135l422 -1133l307 1051h268z" />
    <glyph glyph-name="X" unicode="X" horiz-adv-x="1478" 
d="M1458 0h-293l-430 666l-432 -666h-280l571 840l-524 770h278l387 -559l385 559h256l-497 -744z" />
    <glyph glyph-name="Y" unicode="Y" horiz-adv-x="1218" 
d="M1229 1610l-512 -858v-752h-246v750l-487 860h256l360 -639l375 639h254z" />
    <glyph glyph-name="Z" unicode="Z" horiz-adv-x="1425" 
d="M1374 1569l-919 -1356h907v-213h-1317v27l942 1366h-889v202h1276v-26z" />
    <glyph glyph-name="bracketleft" unicode="[" horiz-adv-x="876" 
d="M786 -385h-602v1993h596v-178h-377v-1637h383v-178z" />
    <glyph glyph-name="backslash" unicode="\" horiz-adv-x="1069" 
d="M950 0h-211l-622 1608h213z" />
    <glyph glyph-name="bracketright" unicode="]" horiz-adv-x="876" 
d="M688 -385h-602v178h383v1637h-377v178h596v-1993z" />
    <glyph glyph-name="asciicircum" unicode="^" horiz-adv-x="1638" 
d="M1524 788h-201l-483 621l-486 -623h-200l616 822h143z" />
    <glyph glyph-name="underscore" unicode="_" 
d="M1018 -279h-1018v173h1018v-173z" />
    <glyph glyph-name="grave" unicode="`" 
d="M709 1106h-205l-203 375h205z" />
    <glyph glyph-name="a" unicode="a" horiz-adv-x="1126" 
d="M965 0h-213v80q-46 -28 -52 -31q-135 -78 -272 -78q-149 0 -244.5 85.5t-95.5 219.5q0 152 136 251.5t343 99.5q75 0 185 -15v19q0 90 -57 129t-173 39q-64 0 -121.5 -17t-134.5 -63l-80 172q166 86 385 86q88 0 158 -17.5t124 -53.5t83 -97t29 -143v-666zM752 240v225
q-37 8 -148 8q-55 0 -107.5 -10.5t-96.5 -30.5t-70.5 -53.5t-26.5 -75.5q0 -66 48 -105.5t130 -39.5q147 0 271 82z" />
    <glyph glyph-name="b" unicode="b" horiz-adv-x="1181" 
d="M1116 477q0 -216 -121 -360t-299 -144q-210 0 -323 115v-88h-199v1610h213v-750q111 111 311 111q188 0 303 -135t115 -359zM907 485q0 132 -72.5 212.5t-187.5 80.5q-121 0 -196.5 -83.5t-75.5 -219.5q0 -144 75.5 -230.5t200.5 -86.5q121 0 188.5 89.5t67.5 237.5z" />
    <glyph glyph-name="c" unicode="c" horiz-adv-x="1056" 
d="M1006 172q-112 -113 -205 -156t-223 -43q-229 0 -370.5 137.5t-141.5 364.5t133.5 361.5t380.5 134.5q126 0 233.5 -48.5t177.5 -150.5l-160 -133q-115 139 -276 139q-124 0 -201.5 -84.5t-77.5 -224.5q0 -136 87 -219.5t210 -83.5q86 0 167.5 42t131.5 111z" />
    <glyph glyph-name="d" unicode="d" horiz-adv-x="1191" 
d="M1018 0h-199v96q-49 -59 -138.5 -91t-172.5 -32q-183 0 -309.5 140.5t-126.5 351.5q0 215 132 359.5t322 144.5q81 0 148 -20t131 -75v736h213v-1610zM817 475q0 136 -75.5 219.5t-194.5 83.5q-115 0 -188.5 -84.5t-73.5 -220.5t75 -223.5t191 -87.5q121 0 193.5 85
t72.5 228z" />
    <glyph glyph-name="e" unicode="e" horiz-adv-x="1095" 
d="M1030 436h-747q3 -145 95.5 -220t231.5 -75q72 0 148 36t135 106l117 -148q-114 -101 -204.5 -133.5t-221.5 -32.5q-231 0 -371.5 130.5t-140.5 371.5q0 228 139.5 369t355.5 141q90 0 170.5 -29t147 -86t106 -153.5t39.5 -220.5v-56zM805 596q-9 96 -74.5 152.5
t-169.5 56.5q-102 0 -175 -54t-97 -155h516z" />
    <glyph glyph-name="f" unicode="f" horiz-adv-x="595" 
d="M582 748h-195v-748h-213v748h-160v184h160v332q0 180 76.5 267t234.5 87q55 0 88 -8v-180q-116 6 -141 -17q-25 -22 -35 -58t-10 -106v-317h195v-184z" />
    <glyph glyph-name="g" unicode="g" horiz-adv-x="1189" 
d="M1016 66q0 -114 -14.5 -174.5t-53.5 -120.5q-55 -84 -160.5 -129t-240.5 -45q-115 0 -225.5 33t-178.5 81l103 172q137 -96 284 -96q125 0 199 56.5t74 156.5v78q-49 -49 -131.5 -77t-179.5 -28q-80 0 -155.5 35.5t-134.5 97.5t-94.5 152.5t-35.5 192.5
q0 223 130.5 370.5t313.5 147.5q89 0 152.5 -18.5t132.5 -76.5v84h215v-892zM813 475q0 146 -76.5 224.5t-191.5 78.5q-122 0 -191 -87.5t-69 -227.5q0 -133 77.5 -218t182.5 -85q122 0 195 78.5t73 236.5z" />
    <glyph glyph-name="h" unicode="h" horiz-adv-x="1193" 
d="M1034 0h-213v578q0 98 -47.5 151t-136.5 53q-118 0 -185 -60.5t-67 -162.5v-559h-211v1610h213v-750q58 56 142 87.5t173 31.5q145 0 238.5 -84t93.5 -256v-639z" />
    <glyph glyph-name="i" unicode="i" horiz-adv-x="561" 
d="M387 1184h-213v239h213v-239zM387 0h-213v958h213v-958z" />
    <glyph glyph-name="j" unicode="j" horiz-adv-x="561" 
d="M397 1184h-213v239h213v-239zM397 -12q0 -92 -16 -157.5t-43.5 -105t-73.5 -61.5t-95.5 -29.5t-121.5 -7.5q-15 0 -34 3.5t-31 7.5l-11 4l-14 172h39q41 0 63.5 1.5t47.5 7.5t36.5 18.5t22.5 35t14.5 55t3.5 80.5v946h213v-970z" />
    <glyph glyph-name="k" unicode="k" horiz-adv-x="1032" 
d="M1061 0h-287l-313 420l-74 -72v-348h-213v1610h213v-1002l373 350h280l-417 -391z" />
    <glyph glyph-name="l" unicode="l" horiz-adv-x="561" 
d="M387 0h-213v1610h213v-1610z" />
    <glyph glyph-name="m" unicode="m" horiz-adv-x="1806" 
d="M1647 0h-213v596q0 89 -54.5 137.5t-150.5 48.5q-102 0 -161.5 -61.5t-59.5 -163.5v-557h-199v578q0 204 -182 204q-111 0 -175.5 -57.5t-64.5 -179.5v-545h-213v958h213v-108q33 41 81.5 69t97 40t81 16t58.5 4q192 0 270 -141q50 66 141.5 103.5t188.5 37.5
q160 0 251 -87t91 -253v-639z" />
    <glyph glyph-name="n" unicode="n" horiz-adv-x="1193" 
d="M1034 0h-213v578q0 204 -192 204q-107 0 -174.5 -58t-67.5 -167v-557h-213v958h213v-106q55 64 142 95.5t165 31.5q51 0 96.5 -9t91 -33t78.5 -61.5t53.5 -98t20.5 -138.5v-639z" />
    <glyph glyph-name="o" unicode="o" horiz-adv-x="1183" 
d="M1114 479q0 -227 -141.5 -365.5t-378.5 -138.5q-240 0 -381 138.5t-141 365.5q0 228 139.5 367t382.5 139q236 0 378 -137.5t142 -368.5zM899 479q0 149 -85.5 239.5t-219.5 90.5q-135 0 -221 -90.5t-86 -239.5t86 -239t223 -90q132 0 217.5 91t85.5 238z" />
    <glyph glyph-name="p" unicode="p" horiz-adv-x="1191" 
d="M1120 477q0 -215 -123 -359.5t-301 -144.5q-97 0 -168.5 18.5t-140.5 82.5v-459h-213v1343h213v-106q109 119 318 119q184 0 299.5 -136t115.5 -358zM907 485q0 132 -72.5 212.5t-187.5 80.5q-121 0 -196.5 -83.5t-75.5 -219.5q0 -142 73 -227.5t195 -85.5
q128 0 196 87.5t68 235.5z" />
    <glyph glyph-name="q" unicode="q" horiz-adv-x="1191" 
d="M1018 -385h-213v457q-55 -52 -141 -75.5t-168 -23.5q-175 0 -299.5 143.5t-124.5 352.5q0 215 130 356.5t324 141.5q89 0 158 -20t121 -75v86h213v-1343zM817 475q0 136 -75.5 219.5t-194.5 83.5q-113 0 -187.5 -84t-74.5 -217q0 -135 76.5 -227t187.5 -92
q119 0 193.5 88t74.5 229z" />
    <glyph glyph-name="r" unicode="r" horiz-adv-x="806" 
d="M852 893l-107 -199q-85 62 -151 62q-88 0 -147.5 -63t-59.5 -158v-535h-213v958h213v-137l49 53q92 95 209 95q53 0 98 -16t109 -60z" />
    <glyph glyph-name="s" unicode="s" horiz-adv-x="890" 
d="M811 262q0 -144 -99.5 -218.5t-271.5 -74.5q-182 0 -360 99l76 178q68 -43 146 -72t138 -29q162 0 162 101q0 31 -14 56t-40.5 42.5t-49 28t-56.5 22.5l-98 35q-235 72 -235 281q0 124 97.5 201t244.5 77q218 0 344 -94l-101 -152q-90 70 -237 70q-68 0 -105 -25t-37 -65
q0 -23 7.5 -40.5t15.5 -28.5t31 -23t35 -17t47 -18l98 -37q43 -16 75.5 -31.5t69.5 -42t61 -56t40 -73t16 -94.5z" />
    <glyph glyph-name="t" unicode="t" horiz-adv-x="643" 
d="M614 4q-50 -18 -114 -18q-113 0 -189 53q-74 49 -105.5 116t-31.5 191v402h-160v184h160v385h213v-385h201v-184h-201v-363q0 -102 37.5 -155.5t110.5 -53.5l79 4v-176z" />
    <glyph glyph-name="u" unicode="u" horiz-adv-x="1193" 
d="M1020 0h-199v119q-122 -142 -309 -142q-158 0 -255 91.5t-97 250.5v639h213v-579q0 -207 188 -207q111 0 178.5 68t67.5 186v532h213v-958z" />
    <glyph glyph-name="v" unicode="v" horiz-adv-x="890" 
d="M891 958l-477 -1024l-424 1024h223l225 -538l228 538h225z" />
    <glyph glyph-name="w" unicode="w" horiz-adv-x="1409" 
d="M1436 958l-465 -1038l-266 592l-267 -592l-465 1038h226l254 -587l266 626l252 -624l252 585h213z" />
    <glyph glyph-name="x" unicode="x" horiz-adv-x="931" 
d="M958 0h-253l-242 356l-250 -356h-240l369 516l-330 442h254l197 -270l203 270h245l-329 -430z" />
    <glyph glyph-name="y" unicode="y" horiz-adv-x="940" 
d="M932 958l-357 -1089q-46 -148 -120.5 -217.5t-188.5 -69.5q-97 0 -219 33l39 201q64 -37 141 -37q70 0 97.5 37.5t27.5 101.5q0 31 -8 55l-324 985h240l225 -757l226 757h221z" />
    <glyph glyph-name="z" unicode="z" horiz-adv-x="980" 
d="M950 934l-526 -721h500v-213h-904v10l549 735h-487v199h868v-10z" />
    <glyph glyph-name="braceleft" unicode="{" 
d="M840 -410h-105q-116 0 -192.5 23t-119.5 72t-60 113.5t-17 158.5v334q0 42 -1.5 67.5t-9.5 57.5t-22.5 49.5t-42 30t-67.5 12.5h-82v172h82q40 0 67.5 10.5t42 25t22.5 42.5t9.5 51.5t1.5 62.5v369q0 94 17 158.5t60 113.5t119.5 72t192.5 23h105v-158h-90
q-60 0 -99 -15.5t-57 -46.5t-23.5 -62.5t-5.5 -78.5v-323v-16.5t-2.5 -42t-7.5 -60.5t-17 -66t-29 -66t-45 -53t-63 -34q49 -17 83.5 -59.5t49.5 -91.5t23 -95.5t8 -77.5v-31v-280q-1 -47 5 -79t23.5 -62.5t56.5 -46t100 -15.5h90v-158z" />
    <glyph glyph-name="bar" unicode="|" 
d="M606 -440l-213 -2v2109h213v-2107z" />
    <glyph glyph-name="braceright" unicode="}" 
d="M899 508h-82q-40 0 -67.5 -12.5t-42 -30t-22.5 -49.5t-9.5 -57.5t-1.5 -67.5v-334q0 -94 -17 -158.5t-60 -113.5t-119.5 -72t-192.5 -23h-105v158h90q61 0 100 15.5t56.5 46t23.5 62.5t5 79v280q1 1 -0.5 16.5t2 43.5t7.5 61t16.5 69.5t29 68.5t44.5 58t64 38
q-48 13 -82.5 52.5t-49.5 87t-23 92.5t-8 76v30v323q0 47 -5.5 78.5t-23.5 62.5t-57 46.5t-99 15.5h-90v158h105q116 0 192.5 -23t119.5 -72t60 -113.5t17 -158.5v-369q0 -39 1.5 -62.5t9.5 -51.5t22.5 -42.5t42 -25t67.5 -10.5h82v-172z" />
    <glyph glyph-name="asciitilde" unicode="~" horiz-adv-x="1124" 
d="M1079 713q-5 -101 -70 -177.5t-159 -76.5q-60 0 -175 29.5t-213 59.5t-118 30q-62 0 -87 -14q-36 -22 -46 -75h-166q5 101 70 177.5t159 76.5q69 0 170.5 -29.5t194.5 -59t141 -29.5q61 0 85 12q38 20 48 76h166z" />
    <glyph glyph-name="nbspace" unicode="&#xa0;" horiz-adv-x="409" 
 />
    <glyph glyph-name="exclamdown" unicode="&#xa1;" horiz-adv-x="614" 
d="M416 987h-219v240h219v-240zM422 -383h-238v651l60 586h125l53 -586v-651z" />
    <glyph glyph-name="cent" unicode="&#xa2;" horiz-adv-x="1433" 
d="M1264 213q-129 -129 -236 -182.5t-248 -57.5v-215h-112v219q-245 23 -393 186t-148 417t140 413.5t401 180.5v212h112v-208q309 -14 465 -240l-192 -160q-118 139 -273 164v-733q94 9 180.5 58.5t141.5 123.5zM668 213v729q-129 -18 -208 -117t-79 -254q0 -144 81 -239
t206 -119z" />
    <glyph glyph-name="sterling" unicode="&#xa3;" horiz-adv-x="1433" 
d="M1358 285q0 -76 -34.5 -134.5t-93.5 -93.5t-131 -53t-153 -18q-106 0 -211 46t-174 107q-40 -66 -127 -111.5t-162 -45.5q-69 0 -123 23.5t-83.5 60t-44.5 74.5t-15 73q0 52 16.5 92.5t41 64t57.5 39.5t62.5 21.5t58.5 5.5q70 0 140 -19t103 -40q33 47 33 119v13.5v15
t-1 14t-3.5 16t-7 16.5t-10.5 19h-467v102h389l-107 117h-282v102h196q-94 127 -94 275q0 89 32 163.5t86.5 125t128 86t156 51.5t171.5 16q252 0 395 -98t143 -301v-33h-227v29q0 72 -46 120t-114.5 67.5t-155.5 19.5q-41 0 -81.5 -6.5t-84 -24.5t-75 -46t-50.5 -75.5
t-16 -108.5q2 -33 14.5 -65.5t42.5 -72t45 -57t58 -65.5h528v-102h-438q48 -62 72 -117h366v-102h-336q9 -61 9 -78q0 -104 -62 -197q75 -45 133 -65.5t125 -20.5q75 0 115.5 34t40.5 116q0 53 -8 84h229q31 -102 31 -178zM422 242q-58 43 -143 43q-70 0 -70 -62
q0 -25 16.5 -40t32.5 -17l16 -2q41 0 85.5 24.5t62.5 53.5z" />
    <glyph glyph-name="currency" unicode="&#xa4;" 
d="M967 1386l-174 -174q49 -81 49 -178q0 -108 -70 -194l174 -174l-84 -84l-180 180q-79 -45 -174 -45t-168 51l-178 -178l-84 84l176 176q-64 89 -64 201q0 86 46 157l-175 174l84 84l168 -170q94 72 211 72q107 0 191 -65l168 167zM725 1038q0 87 -59 150t-146 63
q-88 0 -150.5 -58.5t-62.5 -145.5t59 -150t146 -63q88 0 150.5 58.5t62.5 145.5z" />
    <glyph glyph-name="yen" unicode="&#xa5;" horiz-adv-x="1433" 
d="M1393 1610l-512 -858v-101h440v-104h-440v-113h440v-102h-440v-332h-246v332h-410v102h410v113h-410v104h410v99l-488 860h267l350 -639l375 639h254z" />
    <glyph glyph-name="brokenbar" unicode="&#xa6;" 
d="M606 877h-213v790h213v-790zM606 -440h-213v790h213v-790z" />
    <glyph glyph-name="section" unicode="&#xa7;" horiz-adv-x="1409" 
d="M1321 639q0 -57 -18 -107.5t-46.5 -87.5t-71 -70.5t-82.5 -56t-91 -45.5q72 -45 108.5 -95.5t36.5 -131.5q0 -94 -42 -166t-117.5 -115.5t-173 -65.5t-214.5 -22q-106 0 -209 25t-170 63l76 166q35 -32 128 -61t175 -29q48 0 90 4.5t86.5 17t76 33t51.5 54.5t20 78
q0 35 -22 65t-58 50.5t-65.5 32t-61.5 20.5l-238 79q-67 23 -116 43.5t-105.5 54t-91.5 71t-58.5 92t-23.5 118.5q0 84 48.5 162t115.5 130t150 93q-58 38 -103 98.5t-45 129.5q0 121 72.5 205.5t193.5 123.5t281 39q112 0 200 -21t179 -67l-76 -166q-41 35 -133.5 62.5
t-169.5 27.5q-338 0 -338 -186q0 -30 24.5 -59.5t62 -50.5t71.5 -35.5t63 -22.5l238 -80q36 -12 52 -18t54.5 -21t59.5 -26.5t56 -32.5t55 -40.5t45 -48t38.5 -59t23 -69.5t9.5 -82zM1108 612q0 26 -3 44.5t-16.5 44.5t-37.5 47t-69 45.5t-108 46.5l-307 98q-45 0 -105 -37
t-106.5 -99.5t-46.5 -123.5q0 -25 3 -42t16 -39.5t37.5 -41t69 -40.5t108.5 -44l307 -98q46 0 105.5 32t106 89.5t46.5 117.5z" />
    <glyph glyph-name="dieresis" unicode="&#xa8;" 
d="M799 1167h-199v219h199v-219zM410 1167h-199v219h199v-219z" />
    <glyph glyph-name="copyright" unicode="&#xa9;" horiz-adv-x="1253" 
d="M1169 1085q0 -110 -43 -210.5t-115.5 -173t-173 -115.5t-210.5 -43q-147 0 -272 72.5t-198 197.5t-73 272t73 272t198 198t272 73t272 -73t197.5 -198t72.5 -272zM1061 1085q0 180 -127 307.5t-307 127.5t-307 -127.5t-127 -307.5t127 -307t307 -127t307 127t127 307z
M903 887q-80 -158 -268 -158q-148 0 -234 96.5t-86 255.5q0 152 90 250.5t228 98.5q74 0 132 -24t114 -85l-82 -98q-67 80 -168 80q-82 0 -134.5 -61.5t-52.5 -160.5q0 -95 56 -161t145 -66q93 0 162 107z" />
    <glyph glyph-name="ordfeminine" unicode="&#xaa;" horiz-adv-x="741" 
d="M471 1182v121q-25 4 -80 4q-68 0 -119 -23.5t-51 -69.5q0 -35 26.5 -56t69.5 -21q78 0 154 45zM471 1413v-2v2zM471 1413q0 48 -32.5 68t-96.5 20q-68 0 -158 -49l-55 119q107 57 244 57q113 0 179 -47.5t66 -148.5v-410h-147v41l-16 -8q-80 -49 -168 -49
q-94 0 -154.5 53.5t-60.5 138.5q0 95 85 158t214 63q35 0 100 -6z" />
    <glyph glyph-name="guillemotleft" unicode="&#xab;" horiz-adv-x="921" 
d="M858 135l-373 281v151l373 281v-215l-203 -141l203 -142v-215zM414 135l-373 281v151l373 281v-215l-203 -141l203 -142v-215z" />
    <glyph glyph-name="logicalnot" unicode="&#xac;" horiz-adv-x="1124" 
d="M991 397h-225v316h-635v202h860v-518z" />
    <glyph glyph-name="registered" unicode="&#xae;" horiz-adv-x="1253" 
d="M1169 1085q0 -110 -43 -210.5t-115.5 -173t-173 -115.5t-210.5 -43q-147 0 -272 72.5t-198 197.5t-73 272t73 272t198 198t272 73t272 -73t197.5 -198t72.5 -272zM1061 1085q0 180 -127 307.5t-307 127.5t-307 -127.5t-127 -307.5t127 -307t307 -127t307 127t127 307z
M907 772h-166l-198 252v-252h-123v643h229q90 0 147.5 -48.5t57.5 -141.5q0 -80 -48 -135.5t-128 -55.5zM727 1231q0 17 -2.5 27.5t-12.5 24t-36 20t-68 6.5h-67v-193h71q38 0 63.5 11t35.5 30.5t13 35.5t3 38z" />
    <glyph glyph-name="macron" unicode="&#xaf;" 
d="M823 1174h-585v167h585v-167z" />
    <glyph glyph-name="degree" unicode="&#xb0;" horiz-adv-x="634" 
d="M565 1188q0 -101 -71.5 -168.5t-180.5 -67.5q-116 0 -179.5 65.5t-63.5 170.5q0 97 72.5 166t176.5 69q108 0 177 -66t69 -169zM463 1188q0 63 -41 105t-105 42t-105.5 -42.5t-41.5 -104.5q0 -68 41 -109t106 -41t105.5 42.5t40.5 107.5z" />
    <glyph glyph-name="plusminus" unicode="&#xb1;" horiz-adv-x="1124" 
d="M956 539h-342v-340h-112v340h-338v112h338v340h112v-340h342v-112zM963 0h-801v113h801v-113z" />
    <glyph glyph-name="twosuperior" unicode="&#xb2;" 
d="M815 958h-604l303 308l11.5 11.5l17.5 17.5t20 21t21.5 24.5t19.5 26t17.5 28t11 27t4.5 26.5q0 94 -119 94q-59 0 -91 -27t-32 -69v-45h-143v45q0 89 73 151t191 62q56 0 103 -11t86 -34t61 -64t22 -96q0 -99 -126 -225l-168 -150h321v-121z" />
    <glyph glyph-name="threesuperior" unicode="&#xb3;" 
d="M793 1147q0 -96 -75 -152.5t-210 -56.5q-144 0 -270 70l73 96q102 -55 197 -55q61 0 100 27t39 71q0 84 -139 84h-88v112h88q52 0 83.5 28t31.5 71q0 82 -117 82q-34 0 -73.5 -20.5t-65.5 -59.5l-95 74q91 118 252 118q65 0 114.5 -17t76.5 -45.5t40 -59.5t13 -64
q0 -84 -98 -147q52 -16 87.5 -58t35.5 -98z" />
    <glyph glyph-name="acute" unicode="&#xb4;" 
d="M723 1481l-203 -375h-211l203 375h211z" />
    <glyph glyph-name="mu" unicode="&#xb5;" horiz-adv-x="1107" 
d="M1087 139q-44 -182 -225 -182q-36 0 -63 13.5t-43.5 38.5t-25.5 48t-17 56q-25 -25 -61.5 -51.5t-104.5 -54t-133 -27.5q-117 0 -172 61v-57q0 -59 28.5 -152t28.5 -123q0 -64 -25.5 -94.5t-64.5 -30.5q-82 0 -82 125q0 31 24.5 123.5t24.5 151.5v669q0 111 -19 141.5
t-89 30.5h-15v45h25q24 0 60 -2t59 -2q21 0 51 2t51 2h27v-585q0 -94 42.5 -138.5t141.5 -44.5q111 0 203 58v493q0 111 -18.5 141.5t-88.5 30.5h-18v45h28q22 0 57 -2t58 -2q21 0 52 2t51 2h28v-591q0 -119 19.5 -160t66.5 -41q15 0 27.5 2.5t19 4t16.5 10.5t12.5 11
t14 16.5t13.5 16.5h36z" />
    <glyph glyph-name="paragraph" unicode="&#xb6;" horiz-adv-x="1560" 
d="M1462 1419h-602v-1235h600v-188h-614q-167 0 -319.5 61.5t-265 166.5t-179 255.5t-66.5 319.5q0 170 68 321.5t183 258t269.5 168t323.5 61.5h602v-189zM1274 307h-193v981h193v-981z" />
    <glyph glyph-name="periodcentered" unicode="&#xb7;" 
d="M739 641l-207 -244l-213 252l213 244z" />
    <glyph glyph-name="cedilla" unicode="&#xb8;" 
d="M754 -242q0 -71 -40.5 -116.5t-103.5 -63.5t-149 -18q-111 0 -203 45l66 96q64 -29 141 -29q25 0 38.5 0.5t36.5 5t35.5 13.5t22.5 26.5t10 42.5q0 62 -104 62q-42 0 -101 -21l-43 47l111 234l131 -47l-65 -125q17 3 32.5 4.5t43.5 1.5t50 -9t44 -25t34.5 -48t12.5 -76z
" />
    <glyph glyph-name="onesuperior" unicode="&#xb9;" 
d="M635 956h-146v490q-55 -55 -178 -60v113q57 5 122.5 38.5t94.5 82.5h107v-664z" />
    <glyph glyph-name="ordmasculine" unicode="&#xba;" horiz-adv-x="768" 
d="M707 1315q0 -141 -87.5 -227.5t-234.5 -86.5q-149 0 -236.5 86.5t-87.5 227.5t87 227t237 86q146 0 234 -84.5t88 -228.5zM557 1315q0 85 -48.5 136.5t-123.5 51.5q-77 0 -125.5 -51.5t-48.5 -136.5q0 -86 48.5 -137.5t125.5 -51.5q74 0 123 52.5t49 136.5z" />
    <glyph glyph-name="guillemotright" unicode="&#xbb;" horiz-adv-x="921" 
d="M881 416l-373 -281v215l203 142l-203 141v215l373 -281v-151zM436 416l-373 -281v215l203 142l-203 141v215l373 -281v-151z" />
    <glyph glyph-name="onequarter" unicode="&#xbc;" horiz-adv-x="1433" 
d="M799 956h-146v490q-55 -55 -178 -60v113q57 5 122.5 38.5t94.5 82.5h107v-664zM1212 766h-1009v90h1009v-90zM946 125h-123v-127h-135v129h-348l-2 100l387 455h98v-436h123v-121zM688 246v235l-199 -235h199z" />
    <glyph glyph-name="onehalf" unicode="&#xbd;" horiz-adv-x="1433" 
d="M799 956h-146v490q-55 -55 -178 -60v113q57 5 122.5 38.5t94.5 82.5h107v-664zM1212 766h-1009v90h1009v-90zM987 0h-604l303 307l11.5 11.5l17.5 17.5t20 21t21.5 24.5t19.5 26t17.5 28t11 27t4.5 26.5q0 95 -119 95q-59 0 -91 -27.5t-32 -69.5v-45h-143v45q0 89 73 151
t191 62q119 0 196 -49t77 -155q0 -99 -127 -226l-168 -149h321v-121z" />
    <glyph glyph-name="threequarters" unicode="&#xbe;" horiz-adv-x="1433" 
d="M954 1151q0 -96 -71.5 -152.5t-200.5 -56.5q-137 0 -258 70l70 96q99 -55 188 -55q58 0 95.5 27t37.5 71q0 88 -133 88h-82v113h82q50 0 79.5 27t29.5 71q0 82 -111 82q-33 0 -71 -21t-62 -59l-90 74q89 121 241 121q62 0 109.5 -17.5t73.5 -46.5t38.5 -60.5t12.5 -64.5
q0 -83 -94 -147q50 -16 83 -59t33 -101zM1212 766h-1009v90h1009v-90zM946 125h-123v-127h-135v129h-348l-2 100l387 455h98v-436h123v-121zM688 246v235l-199 -235h199z" />
    <glyph glyph-name="questiondown" unicode="&#xbf;" horiz-adv-x="1069" 
d="M692 985h-198v240h198v-240zM969 -219q-168 -168 -428 -168q-54 0 -105 10.5t-102.5 36.5t-89.5 65.5t-62 102.5t-24 143q0 172 188 406q149 183 146 475h200q0 -168 -19 -254.5t-65 -179.5q-24 -47 -87 -140t-103.5 -169.5t-40.5 -133.5q0 -83 61 -130.5t144 -47.5
q153 0 276 127z" />
    <glyph glyph-name="Agrave" unicode="&#xc0;" horiz-adv-x="1378" 
d="M1378 0h-260l-184 475h-490l-184 -475h-260l684 1683zM858 684l-182 444l-170 -444h352zM825 1741h-204l-203 375h205z" />
    <glyph glyph-name="Aacute" unicode="&#xc1;" horiz-adv-x="1378" 
d="M1378 0h-260l-184 475h-490l-184 -475h-260l684 1683zM858 684l-182 444l-170 -444h352zM942 2116l-203 -375h-211l203 375h211z" />
    <glyph glyph-name="Acircumflex" unicode="&#xc2;" horiz-adv-x="1378" 
d="M1378 0h-260l-184 475h-490l-184 -475h-260l684 1683zM858 684l-182 444l-170 -444h352zM1024 1739h-203l-137 159l-137 -159h-199l262 325h148z" />
    <glyph glyph-name="Atilde" unicode="&#xc3;" horiz-adv-x="1378" 
d="M1378 0h-260l-184 475h-490l-184 -475h-260l684 1683zM858 684l-182 444l-170 -444h352zM1018 1995q0 -116 -49.5 -179t-143.5 -63q-43 0 -130 41t-120 41q-27 0 -41 -15t-22 -73h-184q0 95 52 171.5t140 76.5q41 0 93.5 -21.5t96.5 -43t66 -21.5q29 0 45.5 27.5
t18.5 58.5h178z" />
    <glyph glyph-name="Adieresis" unicode="&#xc4;" horiz-adv-x="1378" 
d="M1378 0h-260l-184 475h-490l-184 -475h-260l684 1683zM858 684l-182 444l-170 -444h352zM979 1782h-199v219h199v-219zM590 1782h-199v219h199v-219z" />
    <glyph glyph-name="Aring" unicode="&#xc5;" horiz-adv-x="1378" 
d="M1378 0h-260l-184 475h-490l-184 -475h-260l684 1683zM858 684l-182 444l-170 -444h352zM932 1944q0 -107 -70 -184t-178 -77q-106 0 -183 71.5t-77 176.5q0 106 71.5 183t176.5 77q106 0 183 -71t77 -176zM782 1942q0 43 -31.5 71.5t-76.5 28.5q-44 0 -72.5 -32
t-28.5 -77q0 -43 32 -71.5t77 -28.5q43 0 71.5 32t28.5 77z" />
    <glyph glyph-name="AE" unicode="&#xc6;" horiz-adv-x="2105" 
d="M2056 -2l-983 2v506h-520l-354 -506h-281l1098 1608h987v-209h-684v-473h657v-209h-657v-510h737v-209zM1071 705v608l-418 -608h418z" />
    <glyph glyph-name="Ccedilla" unicode="&#xc7;" horiz-adv-x="1581" 
d="M1534 272q-238 -299 -631 -299h-18l-25 -67q43 4 89.5 -2t94.5 -24t78.5 -58.5t30.5 -97.5q0 -106 -94.5 -154.5t-251.5 -48.5q-129 0 -254 51l76 121q63 -51 184 -51q154 0 154 84q0 41 -38 59t-75 18q-70 0 -117 -14l-43 33l60 164q-147 23 -271.5 92.5t-213 174.5
t-138 247.5t-49.5 304.5q0 173 65.5 326.5t176 260t260.5 168.5t315 62q369 0 586 -242l-156 -157q-101 110 -197 146t-249 36q-111 0 -210.5 -43.5t-174 -120.5t-118.5 -190t-44 -246q0 -126 44 -240t120.5 -198.5t186.5 -134.5t235 -50q270 0 454 246z" />
    <glyph glyph-name="Egrave" unicode="&#xc8;" horiz-adv-x="1277" 
d="M1196 -2h-983v1610h930v-209h-684v-473h657v-209h-657v-510h737v-209zM862 1720h-205l-202 375h204z" />
    <glyph glyph-name="Eacute" unicode="&#xc9;" horiz-adv-x="1277" 
d="M1196 -2h-983v1610h930v-209h-684v-473h657v-209h-657v-510h737v-209zM938 2095l-203 -375h-211l203 375h211z" />
    <glyph glyph-name="Ecircumflex" unicode="&#xca;" horiz-adv-x="1277" 
d="M1196 -2h-983v1610h930v-209h-684v-473h657v-209h-657v-510h737v-209zM1042 1718h-202l-138 160l-137 -160h-198l262 326h147z" />
    <glyph glyph-name="Edieresis" unicode="&#xcb;" horiz-adv-x="1277" 
d="M1196 -2h-983v1610h930v-209h-684v-473h657v-209h-657v-510h737v-209zM981 1782h-199v219h199v-219zM592 1782h-199v219h199v-219z" />
    <glyph glyph-name="Igrave" unicode="&#xcc;" horiz-adv-x="647" 
d="M459 0h-246v1610h246v-1610zM504 1720h-205l-203 375h205z" />
    <glyph glyph-name="Iacute" unicode="&#xcd;" horiz-adv-x="647" 
d="M459 0h-246v1610h246v-1610zM588 2095l-203 -375h-211l203 375h211z" />
    <glyph glyph-name="Icircumflex" unicode="&#xce;" horiz-adv-x="647" 
d="M459 0h-246v1610h246v-1610zM662 1718h-203l-137 160l-138 -160h-198l262 326h147z" />
    <glyph glyph-name="Idieresis" unicode="&#xcf;" horiz-adv-x="647" 
d="M459 0h-246v1610h246v-1610zM621 1782h-199v219h199v-219zM231 1782h-198v219h198v-219z" />
    <glyph glyph-name="Eth" unicode="&#xd0;" horiz-adv-x="1665" 
d="M1583 774q0 -114 -34 -225t-104.5 -210.5t-169.5 -174.5t-238.5 -119.5t-301.5 -44.5h-522v745h-215v132h215v733h408q176 0 321.5 -29t265.5 -93t202.5 -161t127.5 -237t45 -316zM1329 799q0 127 -45 235t-131.5 190t-223 128.5t-308.5 46.5h-162v-522h229v-132h-229
v-538h254q266 0 441 167.5t175 424.5z" />
    <glyph glyph-name="Ntilde" unicode="&#xd1;" horiz-adv-x="1771" 
d="M1559 -47l-1100 1102v-1055h-246v1651l1100 -1102v1061h246v-1657zM1214 1974q0 -117 -49 -179t-143 -62q-42 0 -129 41t-121 41q-27 0 -41 -15.5t-22 -73.5h-185q0 95 52.5 171.5t140.5 76.5q41 0 93.5 -21.5t96.5 -43t66 -21.5q29 0 45 27.5t18 58.5h178z" />
    <glyph glyph-name="Ograve" unicode="&#xd2;" horiz-adv-x="1812" 
d="M1731 799q0 -232 -108.5 -423t-297.5 -300t-418 -109q-138 0 -264.5 41t-228 116.5t-176.5 177.5t-115.5 230t-40.5 267t40.5 266t115.5 228.5t176.5 177t228 116.5t264.5 41q172 0 324.5 -64t262 -174t173.5 -264t64 -327zM1475 799q0 174 -77.5 315t-207 219t-283.5 78
q-156 0 -286 -78t-206.5 -219t-76.5 -315q0 -162 76 -303.5t207.5 -226.5t285.5 -85q151 0 282.5 85t208.5 227t77 303zM1094 1720h-205l-203 375h205z" />
    <glyph glyph-name="Oacute" unicode="&#xd3;" horiz-adv-x="1812" 
d="M1731 799q0 -232 -108.5 -423t-297.5 -300t-418 -109q-138 0 -264.5 41t-228 116.5t-176.5 177.5t-115.5 230t-40.5 267t40.5 266t115.5 228.5t176.5 177t228 116.5t264.5 41q172 0 324.5 -64t262 -174t173.5 -264t64 -327zM1475 799q0 174 -77.5 315t-207 219t-283.5 78
q-156 0 -286 -78t-206.5 -219t-76.5 -315q0 -162 76 -303.5t207.5 -226.5t285.5 -85q151 0 282.5 85t208.5 227t77 303zM1174 2095l-203 -375h-211l203 375h211z" />
    <glyph glyph-name="Ocircumflex" unicode="&#xd4;" horiz-adv-x="1812" 
d="M1731 799q0 -232 -108.5 -423t-297.5 -300t-418 -109q-138 0 -264.5 41t-228 116.5t-176.5 177.5t-115.5 230t-40.5 267t40.5 266t115.5 228.5t176.5 177t228 116.5t264.5 41q172 0 324.5 -64t262 -174t173.5 -264t64 -327zM1475 799q0 174 -77.5 315t-207 219t-283.5 78
q-156 0 -286 -78t-206.5 -219t-76.5 -315q0 -162 76 -303.5t207.5 -226.5t285.5 -85q151 0 282.5 85t208.5 227t77 303zM1251 1718h-202l-138 160l-137 -160h-199l263 326h147z" />
    <glyph glyph-name="Otilde" unicode="&#xd5;" horiz-adv-x="1812" 
d="M1731 799q0 -232 -108.5 -423t-297.5 -300t-418 -109q-138 0 -264.5 41t-228 116.5t-176.5 177.5t-115.5 230t-40.5 267t40.5 266t115.5 228.5t176.5 177t228 116.5t264.5 41q172 0 324.5 -64t262 -174t173.5 -264t64 -327zM1475 799q0 174 -77.5 315t-207 219t-283.5 78
q-156 0 -286 -78t-206.5 -219t-76.5 -315q0 -162 76 -303.5t207.5 -226.5t285.5 -85q151 0 282.5 85t208.5 227t77 303zM1233 1974q0 -116 -49 -178.5t-144 -62.5q-42 0 -129 41t-120 41q-27 0 -41.5 -15.5t-22.5 -73.5h-184q0 95 52 171.5t140 76.5q41 0 93.5 -21.5
t96.5 -43t66 -21.5q29 0 45.5 27.5t18.5 58.5h178z" />
    <glyph glyph-name="Odieresis" unicode="&#xd6;" horiz-adv-x="1812" 
d="M1731 799q0 -232 -108.5 -423t-297.5 -300t-418 -109q-138 0 -264.5 41t-228 116.5t-176.5 177.5t-115.5 230t-40.5 267t40.5 266t115.5 228.5t176.5 177t228 116.5t264.5 41q172 0 324.5 -64t262 -174t173.5 -264t64 -327zM1475 799q0 174 -77.5 315t-207 219t-283.5 78
q-156 0 -286 -78t-206.5 -219t-76.5 -315q0 -162 76 -303.5t207.5 -226.5t285.5 -85q151 0 282.5 85t208.5 227t77 303zM1194 1782h-199v219h199v-219zM805 1782h-199v219h199v-219z" />
    <glyph glyph-name="multiply" unicode="&#xd7;" horiz-adv-x="1124" 
d="M1040 240l-129 -129l-348 348l-334 -334l-129 129l334 334l-334 334l129 129l334 -334l348 348l129 -129l-348 -348z" />
    <glyph glyph-name="Oslash" unicode="&#xd8;" horiz-adv-x="1820" 
d="M1731 799q0 -232 -108.5 -423t-297.5 -300t-418 -109q-293 0 -512 172l-221 -245l-100 96l219 243q-100 112 -155.5 257.5t-55.5 308.5q0 139 40.5 266t115.5 228.5t176.5 177t228 116.5t264.5 41q275 0 494 -160l172 193l102 -90l-172 -193q109 -112 168.5 -261
t59.5 -318zM1245 1296q-142 115 -338 115q-156 0 -286 -78t-206.5 -219t-76.5 -315q0 -210 123 -377zM1475 799q0 232 -132 399l-788 -881q148 -133 352 -133q151 0 282.5 85t208.5 227t77 303z" />
    <glyph glyph-name="Ugrave" unicode="&#xd9;" horiz-adv-x="1757" 
d="M1561 653q0 -102 -25 -198.5t-79.5 -183.5t-132.5 -152t-191.5 -103.5t-249.5 -38.5q-169 0 -304 55.5t-218.5 150.5t-127 215t-43.5 255v957h246v-883q0 -249 121.5 -389.5t327.5 -140.5q204 0 317 139t113 391v883h246v-957zM1071 1720h-205l-202 375h204z" />
    <glyph glyph-name="Uacute" unicode="&#xda;" horiz-adv-x="1757" 
d="M1561 653q0 -102 -25 -198.5t-79.5 -183.5t-132.5 -152t-191.5 -103.5t-249.5 -38.5q-169 0 -304 55.5t-218.5 150.5t-127 215t-43.5 255v957h246v-883q0 -249 121.5 -389.5t327.5 -140.5q204 0 317 139t113 391v883h246v-957zM1110 2095l-203 -375h-211l203 375h211z
" />
    <glyph glyph-name="Ucircumflex" unicode="&#xdb;" horiz-adv-x="1757" 
d="M1561 653q0 -102 -25 -198.5t-79.5 -183.5t-132.5 -152t-191.5 -103.5t-249.5 -38.5q-169 0 -304 55.5t-218.5 150.5t-127 215t-43.5 255v957h246v-883q0 -249 121.5 -389.5t327.5 -140.5q204 0 317 139t113 391v883h246v-957zM1217 1718h-203l-137 160l-138 -160h-198
l262 326h147z" />
    <glyph glyph-name="Udieresis" unicode="&#xdc;" horiz-adv-x="1757" 
d="M1561 653q0 -102 -25 -198.5t-79.5 -183.5t-132.5 -152t-191.5 -103.5t-249.5 -38.5q-169 0 -304 55.5t-218.5 150.5t-127 215t-43.5 255v957h246v-883q0 -249 121.5 -389.5t327.5 -140.5q204 0 317 139t113 391v883h246v-957zM1165 1759h-198v219h198v-219zM776 1759
h-198v219h198v-219z" />
    <glyph glyph-name="Yacute" unicode="&#xdd;" horiz-adv-x="1218" 
d="M897 2095l-203 -375h-211l203 375h211zM1229 1610l-512 -858v-752h-246v750l-487 860h256l360 -639l375 639h254z" />
    <glyph glyph-name="Thorn" unicode="&#xde;" horiz-adv-x="1331" 
d="M1290 862q0 -63 -15.5 -125.5t-55 -126.5t-99 -112.5t-155.5 -79.5t-217 -31h-285v-387h-246v1610h246v-287h258q274 0 421.5 -115t147.5 -346zM1049 856q0 34 -3.5 60.5t-14.5 58.5t-33.5 54.5t-57.5 42.5t-90.5 30t-128.5 10h-258v-518h219q84 0 146.5 11.5t114.5 39.5
t79 81t27 130z" />
    <glyph glyph-name="germandbls" unicode="&#xdf;" horiz-adv-x="1191" 
d="M1151 446q0 -114 -34 -205.5t-93.5 -150t-138 -90t-168.5 -31.5q-33 0 -60 2t-51.5 7t-37.5 8t-37.5 10.5t-32.5 9.5v197q64 -28 109 -37.5t110 -9.5q98 0 160.5 79t62.5 205q0 116 -65.5 222t-164.5 170.5t-202 74.5v125h74q61 0 107 23t70 60t35 75.5t11 77.5
q0 91 -54 137.5t-145 46.5q-104 0 -168.5 -72.5t-64.5 -232.5v-1147h-213v1182q0 96 26 172.5t69 125t102 80.5t121 45t130 13q196 0 303 -85.5t107 -260.5q0 -104 -61.5 -189t-143.5 -118q57 -18 116 -65t109 -114t81.5 -157t31.5 -183z" />
    <glyph glyph-name="agrave" unicode="&#xe0;" horiz-adv-x="1126" 
d="M965 0h-213v80q-46 -28 -52 -31q-135 -78 -272 -78q-149 0 -244.5 85.5t-95.5 219.5q0 152 136 251.5t343 99.5q75 0 185 -15v19q0 90 -57 129t-173 39q-64 0 -121.5 -17t-134.5 -63l-80 172q166 86 385 86q88 0 158 -17.5t124 -53.5t83 -97t29 -143v-666zM752 240v225
q-37 8 -148 8q-55 0 -107.5 -10.5t-96.5 -30.5t-70.5 -53.5t-26.5 -75.5q0 -66 48 -105.5t130 -39.5q147 0 271 82zM719 1106h-205l-203 375h205z" />
    <glyph glyph-name="aacute" unicode="&#xe1;" horiz-adv-x="1126" 
d="M965 0h-213v80q-46 -28 -52 -31q-135 -78 -272 -78q-149 0 -244.5 85.5t-95.5 219.5q0 152 136 251.5t343 99.5q75 0 185 -15v19q0 90 -57 129t-173 39q-64 0 -121.5 -17t-134.5 -63l-80 172q166 86 385 86q88 0 158 -17.5t124 -53.5t83 -97t29 -143v-666zM752 240v225
q-37 8 -148 8q-55 0 -107.5 -10.5t-96.5 -30.5t-70.5 -53.5t-26.5 -75.5q0 -66 48 -105.5t130 -39.5q147 0 271 82zM840 1481l-203 -375h-211l203 375h211z" />
    <glyph glyph-name="acircumflex" unicode="&#xe2;" horiz-adv-x="1126" 
d="M965 0h-213v80q-46 -28 -52 -31q-135 -78 -272 -78q-149 0 -244.5 85.5t-95.5 219.5q0 152 136 251.5t343 99.5q75 0 185 -15v19q0 90 -57 129t-173 39q-64 0 -121.5 -17t-134.5 -63l-80 172q166 86 385 86q88 0 158 -17.5t124 -53.5t83 -97t29 -143v-666zM752 240v225
q-37 8 -148 8q-55 0 -107.5 -10.5t-96.5 -30.5t-70.5 -53.5t-26.5 -75.5q0 -66 48 -105.5t130 -39.5q147 0 271 82zM909 1104h-202l-138 160l-137 -160h-199l263 326h147z" />
    <glyph glyph-name="atilde" unicode="&#xe3;" horiz-adv-x="1126" 
d="M965 0h-213v80q-46 -28 -52 -31q-135 -78 -272 -78q-149 0 -244.5 85.5t-95.5 219.5q0 152 136 251.5t343 99.5q75 0 185 -15v19q0 90 -57 129t-173 39q-64 0 -121.5 -17t-134.5 -63l-80 172q166 86 385 86q88 0 158 -17.5t124 -53.5t83 -97t29 -143v-666zM752 240v225
q-37 8 -148 8q-55 0 -107.5 -10.5t-96.5 -30.5t-70.5 -53.5t-26.5 -75.5q0 -66 48 -105.5t130 -39.5q147 0 271 82zM920 1360q0 -116 -49.5 -179t-143.5 -63q-43 0 -130 41t-120 41q-27 0 -41 -15t-22 -73h-185q0 95 52.5 171.5t140.5 76.5q41 0 93.5 -21.5t96.5 -43
t66 -21.5q29 0 45 27.5t18 58.5h179z" />
    <glyph glyph-name="adieresis" unicode="&#xe4;" horiz-adv-x="1126" 
d="M965 0h-213v80q-46 -28 -52 -31q-135 -78 -272 -78q-149 0 -244.5 85.5t-95.5 219.5q0 152 136 251.5t343 99.5q75 0 185 -15v19q0 90 -57 129t-173 39q-64 0 -121.5 -17t-134.5 -63l-80 172q166 86 385 86q88 0 158 -17.5t124 -53.5t83 -97t29 -143v-666zM752 240v225
q-37 8 -148 8q-55 0 -107.5 -10.5t-96.5 -30.5t-70.5 -53.5t-26.5 -75.5q0 -66 48 -105.5t130 -39.5q147 0 271 82zM848 1167h-199v219h199v-219zM459 1167h-199v219h199v-219z" />
    <glyph glyph-name="aring" unicode="&#xe5;" horiz-adv-x="1126" 
d="M965 0h-213v80q-46 -28 -52 -31q-135 -78 -272 -78q-149 0 -244.5 85.5t-95.5 219.5q0 152 136 251.5t343 99.5q75 0 185 -15v19q0 90 -57 129t-173 39q-64 0 -121.5 -17t-134.5 -63l-80 172q166 86 385 86q88 0 158 -17.5t124 -53.5t83 -97t29 -143v-666zM752 240v225
q-37 8 -148 8q-55 0 -107.5 -10.5t-96.5 -30.5t-70.5 -53.5t-26.5 -75.5q0 -66 48 -105.5t130 -39.5q147 0 271 82zM821 1329q0 -107 -70 -183.5t-178 -76.5q-106 0 -183 71.5t-77 176.5q0 106 71.5 183t176.5 77q106 0 183 -71.5t77 -176.5zM672 1327q0 43 -32 71.5
t-77 28.5q-43 0 -71.5 -31.5t-28.5 -76.5q0 -43 31.5 -71.5t76.5 -28.5q44 0 72.5 31.5t28.5 76.5z" />
    <glyph glyph-name="ae" unicode="&#xe6;" horiz-adv-x="1765" 
d="M1698 436h-735v-43q13 -127 103 -189.5t222 -62.5q72 0 148 36t135 106l117 -148q-114 -101 -204.5 -133.5t-221.5 -32.5q-133 0 -239 44.5t-173 131.5q-89 -84 -186.5 -129t-235.5 -45q-149 0 -244.5 85.5t-95.5 219.5q0 151 133 243.5t346 92.5h185v19
q0 83 -52.5 125.5t-177.5 42.5q-64 0 -121.5 -17t-134.5 -63l-80 172q166 86 385 86q238 0 334 -121q137 125 340 125q88 0 167 -28.5t144 -85t103.5 -153t38.5 -222.5v-56zM1466 596q-6 97 -65 153t-162 56q-104 0 -179 -54t-93 -155h499zM752 283v133q-2 16 -2 49h-105
q-180 0 -261 -39.5t-81 -122.5q0 -66 48 -105.5t130 -39.5q31 0 55.5 2t58 9t60 20t53 37t44.5 57z" />
    <glyph glyph-name="ccedilla" unicode="&#xe7;" horiz-adv-x="1056" 
d="M1006 172q-104 -104 -200.5 -150t-223.5 -47l-31 -69q34 1 71 0.5t73 -13.5t64.5 -32t46 -54.5t17.5 -82.5q0 -109 -77 -156t-228 -47q-129 0 -254 51l76 121q63 -51 184 -51q63 0 98 18t35 66q0 42 -29 59.5t-63 17.5q-69 0 -116 -14l-43 33l65 164q-178 20 -291.5 157
t-113.5 332q0 227 133.5 361.5t380.5 134.5q126 0 233.5 -48.5t177.5 -150.5l-160 -133q-115 139 -276 139q-124 0 -201.5 -84.5t-77.5 -224.5q0 -136 87 -219.5t210 -83.5q86 0 167.5 42t131.5 111z" />
    <glyph glyph-name="egrave" unicode="&#xe8;" horiz-adv-x="1095" 
d="M1030 436h-747q3 -145 95.5 -220t231.5 -75q72 0 148 36t135 106l117 -148q-114 -101 -204.5 -133.5t-221.5 -32.5q-231 0 -371.5 130.5t-140.5 371.5q0 228 139.5 369t355.5 141q90 0 170.5 -29t147 -86t106 -153.5t39.5 -220.5v-56zM805 596q-9 96 -74.5 152.5
t-169.5 56.5q-102 0 -175 -54t-97 -155h516zM702 1106h-204l-203 375h205z" />
    <glyph glyph-name="eacute" unicode="&#xe9;" horiz-adv-x="1095" 
d="M1030 436h-747q3 -145 95.5 -220t231.5 -75q72 0 148 36t135 106l117 -148q-114 -101 -204.5 -133.5t-221.5 -32.5q-231 0 -371.5 130.5t-140.5 371.5q0 228 139.5 369t355.5 141q90 0 170.5 -29t147 -86t106 -153.5t39.5 -220.5v-56zM805 596q-9 96 -74.5 152.5
t-169.5 56.5q-102 0 -175 -54t-97 -155h516zM848 1481l-203 -375h-211l203 375h211z" />
    <glyph glyph-name="ecircumflex" unicode="&#xea;" horiz-adv-x="1095" 
d="M1030 436h-747q3 -145 95.5 -220t231.5 -75q72 0 148 36t135 106l117 -148q-114 -101 -204.5 -133.5t-221.5 -32.5q-231 0 -371.5 130.5t-140.5 371.5q0 228 139.5 369t355.5 141q90 0 170.5 -29t147 -86t106 -153.5t39.5 -220.5v-56zM805 596q-9 96 -74.5 152.5
t-169.5 56.5q-102 0 -175 -54t-97 -155h516zM922 1104h-203l-137 160l-138 -160h-198l262 326h147z" />
    <glyph glyph-name="edieresis" unicode="&#xeb;" horiz-adv-x="1095" 
d="M1030 436h-747q3 -145 95.5 -220t231.5 -75q72 0 148 36t135 106l117 -148q-114 -101 -204.5 -133.5t-221.5 -32.5q-231 0 -371.5 130.5t-140.5 371.5q0 228 139.5 369t355.5 141q90 0 170.5 -29t147 -86t106 -153.5t39.5 -220.5v-56zM805 596q-9 96 -74.5 152.5
t-169.5 56.5q-102 0 -175 -54t-97 -155h516zM868 1167h-198v219h198v-219zM479 1167h-198v219h198v-219z" />
    <glyph glyph-name="igrave" unicode="&#xec;" horiz-adv-x="561" 
d="M387 0h-213v958h213v-958zM434 1106h-205l-202 375h204z" />
    <glyph glyph-name="iacute" unicode="&#xed;" horiz-adv-x="561" 
d="M387 0h-213v958h213v-958zM547 1481l-203 -375h-211l203 375h211z" />
    <glyph glyph-name="icircumflex" unicode="&#xee;" horiz-adv-x="561" 
d="M387 0h-213v958h213v-958zM629 1096h-203l-137 159l-137 -159h-199l262 325h147z" />
    <glyph glyph-name="idieresis" unicode="&#xef;" horiz-adv-x="561" 
d="M387 0h-213v958h213v-958zM571 1167h-198v219h198v-219zM182 1167h-198v219h198v-219z" />
    <glyph glyph-name="eth" unicode="&#xf0;" horiz-adv-x="1292" 
d="M1204 600q0 -98 -19 -187t-61 -169t-104 -138t-153 -92t-203 -34q-270 0 -409.5 155.5t-139.5 429.5q0 241 140 384t368 143q97 0 173 -30t113 -75q-31 95 -155 289l-246 -76l-39 125l205 64q-70 102 -180 221h270q54 -59 127 -156l237 74l39 -125q-196 -62 -198 -62
q235 -359 235 -741zM969 555q0 160 -91.5 254t-224.5 94q-144 0 -217.5 -93t-73.5 -253q0 -53 9 -103.5t31.5 -100t55.5 -86.5t85 -60t116 -23q82 0 144.5 33.5t97 89t51.5 118t17 130.5z" />
    <glyph glyph-name="ntilde" unicode="&#xf1;" horiz-adv-x="1193" 
d="M1034 0h-213v578q0 204 -192 204q-107 0 -174.5 -58t-67.5 -167v-557h-213v958h213v-106q55 64 142 95.5t165 31.5q51 0 96.5 -9t91 -33t78.5 -61.5t53.5 -98t20.5 -138.5v-639zM963 1360q0 -116 -49.5 -179t-143.5 -63q-42 0 -129 41t-121 41q-27 0 -41 -15t-22 -73
h-185q0 95 52.5 171.5t140.5 76.5q41 0 93.5 -21.5t96.5 -43t66 -21.5q29 0 45 27.5t18 58.5h179z" />
    <glyph glyph-name="ograve" unicode="&#xf2;" horiz-adv-x="1183" 
d="M1114 479q0 -227 -141.5 -365.5t-378.5 -138.5q-240 0 -381 138.5t-141 365.5q0 228 139.5 367t382.5 139q236 0 378 -137.5t142 -368.5zM899 479q0 149 -85.5 239.5t-219.5 90.5q-135 0 -221 -90.5t-86 -239.5t86 -239t223 -90q132 0 217.5 91t85.5 238zM760 1106h-205
l-203 375h205z" />
    <glyph glyph-name="oacute" unicode="&#xf3;" horiz-adv-x="1183" 
d="M1114 479q0 -227 -141.5 -365.5t-378.5 -138.5q-240 0 -381 138.5t-141 365.5q0 228 139.5 367t382.5 139q236 0 378 -137.5t142 -368.5zM899 479q0 149 -85.5 239.5t-219.5 90.5q-135 0 -221 -90.5t-86 -239.5t86 -239t223 -90q132 0 217.5 91t85.5 238zM819 1481
l-203 -375h-210l202 375h211z" />
    <glyph glyph-name="ocircumflex" unicode="&#xf4;" horiz-adv-x="1183" 
d="M1114 479q0 -227 -141.5 -365.5t-378.5 -138.5q-240 0 -381 138.5t-141 365.5q0 228 139.5 367t382.5 139q236 0 378 -137.5t142 -368.5zM899 479q0 149 -85.5 239.5t-219.5 90.5q-135 0 -221 -90.5t-86 -239.5t86 -239t223 -90q132 0 217.5 91t85.5 238zM950 1104h-202
l-138 160l-137 -160h-199l263 326h147z" />
    <glyph glyph-name="otilde" unicode="&#xf5;" horiz-adv-x="1183" 
d="M1114 479q0 -227 -141.5 -365.5t-378.5 -138.5q-240 0 -381 138.5t-141 365.5q0 228 139.5 367t382.5 139q236 0 378 -137.5t142 -368.5zM899 479q0 149 -85.5 239.5t-219.5 90.5q-135 0 -221 -90.5t-86 -239.5t86 -239t223 -90q132 0 217.5 91t85.5 238zM936 1360
q0 -116 -49.5 -179t-143.5 -63q-43 0 -129.5 41t-119.5 41q-19 0 -28.5 -4t-19.5 -24t-16 -60h-184q0 95 52 171.5t140 76.5q41 0 93.5 -21.5t96.5 -43t66 -21.5q29 0 45.5 27.5t18.5 58.5h178z" />
    <glyph glyph-name="odieresis" unicode="&#xf6;" horiz-adv-x="1183" 
d="M1114 479q0 -227 -141.5 -365.5t-378.5 -138.5q-240 0 -381 138.5t-141 365.5q0 228 139.5 367t382.5 139q236 0 378 -137.5t142 -368.5zM899 479q0 149 -85.5 239.5t-219.5 90.5q-135 0 -221 -90.5t-86 -239.5t86 -239t223 -90q132 0 217.5 91t85.5 238zM889 1167h-199
v219h199v-219zM500 1167h-199v219h199v-219z" />
    <glyph glyph-name="divide" unicode="&#xf7;" horiz-adv-x="1126" 
d="M672 760q0 -50 -33.5 -82.5t-85.5 -32.5q-44 0 -76.5 34t-32.5 81t34 80.5t81 33.5q48 0 80.5 -32.5t32.5 -81.5zM950 406h-776v112h776v-112zM672 166q0 -50 -33.5 -82.5t-85.5 -32.5q-44 0 -76.5 34t-32.5 81t34 81t81 34q48 0 80.5 -33t32.5 -82z" />
    <glyph glyph-name="oslash" unicode="&#xf8;" horiz-adv-x="1173" 
d="M1176 942l-160 -151q92 -128 92 -312q0 -227 -141.5 -365.5t-378.5 -138.5q-190 0 -328 95l-170 -162l-102 92l174 166q-96 125 -96 313q0 228 139.5 367t382.5 139q198 0 332 -98l153 145zM772 745q-77 58 -184 58q-136 0 -221.5 -88t-85.5 -236q0 -98 36 -166zM893 479
q0 90 -35 162l-452 -432q77 -53 184 -53q133 0 218 88t85 235z" />
    <glyph glyph-name="ugrave" unicode="&#xf9;" horiz-adv-x="1193" 
d="M1020 0h-199v119q-122 -142 -309 -142q-158 0 -255 91.5t-97 250.5v639h213v-579q0 -207 188 -207q111 0 178.5 68t67.5 186v532h213v-958zM754 1106h-205l-203 375h205z" />
    <glyph glyph-name="uacute" unicode="&#xfa;" horiz-adv-x="1193" 
d="M1020 0h-199v119q-122 -142 -309 -142q-158 0 -255 91.5t-97 250.5v639h213v-579q0 -207 188 -207q111 0 178.5 68t67.5 186v532h213v-958zM842 1481l-203 -375h-211l203 375h211z" />
    <glyph glyph-name="ucircumflex" unicode="&#xfb;" horiz-adv-x="1193" 
d="M1020 0h-199v119q-122 -142 -309 -142q-158 0 -255 91.5t-97 250.5v639h213v-579q0 -207 188 -207q111 0 178.5 68t67.5 186v532h213v-958zM932 1104h-203l-137 160l-137 -160h-199l262 326h148z" />
    <glyph glyph-name="udieresis" unicode="&#xfc;" horiz-adv-x="1193" 
d="M1020 0h-199v119q-122 -142 -309 -142q-158 0 -255 91.5t-97 250.5v639h213v-579q0 -207 188 -207q111 0 178.5 68t67.5 186v532h213v-958zM887 1167h-199v219h199v-219zM498 1167h-199v219h199v-219z" />
    <glyph glyph-name="yacute" unicode="&#xfd;" horiz-adv-x="940" 
d="M766 1481l-203 -375h-211l203 375h211zM932 958l-357 -1089q-46 -148 -120.5 -217.5t-188.5 -69.5q-97 0 -219 33l39 201q64 -37 141 -37q70 0 97.5 37.5t27.5 101.5q0 31 -8 55l-324 985h240l225 -757l226 757h221z" />
    <glyph glyph-name="thorn" unicode="&#xfe;" horiz-adv-x="1191" 
d="M1120 477q0 -215 -123 -359.5t-301 -144.5q-97 0 -168.5 18.5t-140.5 82.5v-459h-213v1995h213v-758q109 119 318 119q184 0 299.5 -136t115.5 -358zM907 485q0 132 -72.5 212.5t-187.5 80.5q-121 0 -196.5 -83.5t-75.5 -219.5q0 -142 73 -227.5t195 -85.5
q128 0 196 87.5t68 235.5z" />
    <glyph glyph-name="ydieresis" unicode="&#xff;" horiz-adv-x="940" 
d="M932 958l-357 -1089q-46 -148 -120.5 -217.5t-188.5 -69.5q-97 0 -219 33l39 201q64 -37 141 -37q70 0 97.5 37.5t27.5 101.5q0 31 -8 55l-324 985h240l225 -757l226 757h221zM784 1167h-198v219h198v-219zM395 1167h-198v219h198v-219z" />
    <glyph glyph-name="dotlessi" unicode="&#x131;" horiz-adv-x="561" 
d="M387 0h-213v958h213v-958z" />
    <glyph glyph-name="Lslash" unicode="&#x141;" horiz-adv-x="1101" 
d="M1077 -2h-864v680l-156 -72l-55 119l211 98v785h246v-672l170 80l55 -119l-225 -106v-586h618v-207z" />
    <glyph glyph-name="lslash" unicode="&#x142;" horiz-adv-x="561" 
d="M623 897l-236 -111v-786h-213v688l-178 -82l-55 119l233 109v776h213v-678l180 84z" />
    <glyph glyph-name="OE" unicode="&#x152;" horiz-adv-x="2502" 
d="M2466 -2h-985v197q-113 -108 -260.5 -168t-313.5 -60q-138 0 -264.5 41t-228 116.5t-176.5 177.5t-115.5 230t-40.5 267t40.5 266t115.5 228.5t176.5 177t228 116.5t264.5 41q166 0 314 -59.5t260 -167.5v207h932v-209h-684v-473h657v-209h-657v-510h737v-209zM1475 799
q0 154 -45 273.5t-123.5 193.5t-180 111.5t-219.5 37.5q-156 0 -286 -79t-206.5 -221t-76.5 -316q0 -121 45 -234.5t121 -198t182 -135.5t221 -51q126 0 229 38t179 113t118 194t42 274z" />
    <glyph glyph-name="oe" unicode="&#x153;" horiz-adv-x="1880" 
d="M1843 436h-737v-22q7 -137 98 -205t228 -68q72 0 147.5 36t134.5 106l117 -148q-114 -101 -204.5 -133.5t-221.5 -32.5q-133 0 -239.5 49t-172.5 146q-57 -88 -165 -138.5t-240 -50.5q-240 0 -381 138.5t-141 365.5q0 228 139.5 367t382.5 139q137 0 245.5 -51
t170.5 -148q55 91 159 143t226 52q69 0 132.5 -16t122.5 -53.5t103 -92.5t70 -139t26 -188v-56zM1610 596q-9 99 -67.5 154t-160.5 55q-104 0 -179 -54t-93 -155h500zM893 479q0 149 -85.5 239.5t-219.5 90.5q-135 0 -221 -90.5t-86 -239.5t86 -239t223 -90q132 0 217.5 91
t85.5 238z" />
    <glyph glyph-name="Scaron" unicode="&#x160;" horiz-adv-x="1155" 
d="M856 1919q-7 -15 -28.5 -38.5t-55.5 -50.5t-85 -46t-105 -19q-89 0 -166 56t-101 100v147q21 -29 40.5 -50t52.5 -48.5t77.5 -42t96.5 -14.5q93 0 169.5 50t104.5 101v-145zM1069 432q0 -89 -32 -168.5t-93.5 -143t-161.5 -101t-225 -37.5q-130 0 -239.5 33t-239.5 132
l133 172q105 -78 183.5 -102t183.5 -24q114 0 179.5 58t65.5 161q0 73 -43.5 134.5t-95.5 88.5l-291 151q-143 74 -218 175t-75 253q0 189 135.5 304.5t348.5 115.5q130 0 217 -27t203 -102l-119 -180q-116 107 -301 107q-104 0 -172 -51.5t-68 -151.5q0 -44 13 -82
t29 -61.5t43 -45t42.5 -30.5t40.5 -21q5 -3 8 -4l271 -137q123 -63 200.5 -166t77.5 -250z" />
    <glyph glyph-name="scaron" unicode="&#x161;" horiz-adv-x="890" 
d="M733 1305q-7 -15 -28.5 -38.5t-55.5 -50.5t-85 -46t-105 -19q-89 0 -165.5 56t-100.5 100v147q22 -30 40.5 -50.5t52 -48t77.5 -42.5t96 -15q93 0 169.5 50.5t104.5 101.5v-145zM811 262q0 -144 -99.5 -218.5t-271.5 -74.5q-182 0 -360 99l76 178q68 -43 146 -72t138 -29
q162 0 162 101q0 31 -14 56t-40.5 42.5t-49 28t-56.5 22.5l-98 35q-235 72 -235 281q0 124 97.5 201t244.5 77q218 0 344 -94l-101 -152q-90 70 -237 70q-68 0 -105 -25t-37 -65q0 -23 7.5 -40.5t15.5 -28.5t31 -23t35 -17t47 -18l98 -37q43 -16 75.5 -31.5t69.5 -42t61 -56
t40 -73t16 -94.5z" />
    <glyph glyph-name="Ydieresis" unicode="&#x178;" horiz-adv-x="1218" 
d="M1229 1610l-512 -858v-752h-246v750l-487 860h256l360 -639l375 639h254zM901 1782h-199v219h199v-219zM512 1782h-199v219h199v-219z" />
    <glyph glyph-name="Zcaron" unicode="&#x17d;" horiz-adv-x="1425" 
d="M1032 2042l-266 -326h-148l-262 326h199l137 -160l137 160h203zM1374 1569l-919 -1356h907v-213h-1317v27l942 1366h-889v202h1276v-26z" />
    <glyph glyph-name="zcaron" unicode="&#x17e;" horiz-adv-x="980" 
d="M827 1427l-266 -325h-147l-262 325h198l137 -159l138 159h202zM950 934l-526 -721h500v-213h-904v10l549 735h-487v199h868v-10z" />
    <glyph glyph-name="florin" unicode="&#x192;" horiz-adv-x="1433" 
d="M1374 1610l-51 -187h-131q-57 0 -105 -30q-28 -20 -44.5 -52.5t-36.5 -101.5l-86 -309h297l-54 -199h-297l-196 -723q-50 -183 -153 -271.5t-267 -88.5q-132 0 -184 12l47 182h133q53 0 104 35q27 21 43.5 49.5t34.5 89.5l195 715h-263l54 199h262l90 330q51 184 154 272
t268 88q141 0 186 -10z" />
    <glyph glyph-name="circumflex" unicode="&#x2c6;" 
d="M852 1104h-203l-137 160l-137 -160h-199l262 326h148z" />
    <glyph glyph-name="caron" unicode="&#x2c7;" 
d="M848 1427l-266 -325h-148l-262 325h199l137 -159l137 159h203z" />
    <glyph glyph-name="breve" unicode="&#x2d8;" 
d="M774 1305q-7 -15 -28.5 -38.5t-55.5 -50.5t-85 -46t-105 -19q-89 0 -166 56t-101 100v147q17 -23 30.5 -39.5t39.5 -40.5t52 -39t64.5 -26t80.5 -11q93 0 169.5 50.5t104.5 101.5v-145z" />
    <glyph glyph-name="dotaccent" unicode="&#x2d9;" 
d="M647 1272q0 -56 -39.5 -95.5t-95.5 -39.5t-95.5 39.5t-39.5 95.5t39.5 95.5t95.5 39.5t95.5 -39.5t39.5 -95.5z" />
    <glyph glyph-name="ring" unicode="&#x2da;" 
d="M776 1329q0 -107 -70 -183.5t-178 -76.5q-106 0 -183 71.5t-77 176.5q0 106 71.5 183t176.5 77q106 0 183 -71.5t77 -176.5zM627 1327q0 43 -32 71.5t-77 28.5q-43 0 -71.5 -31.5t-28.5 -76.5q0 -43 31.5 -71.5t76.5 -28.5q44 0 72.5 31.5t28.5 76.5z" />
    <glyph glyph-name="ogonek" unicode="&#x2db;" 
d="M713 -412q-52 0 -92 2t-90.5 7t-86.5 17t-68.5 29.5t-49.5 47t-17 67.5q0 146 217 322l107 -57q-92 -96 -116 -131q-38 -54 -38 -101q0 -21 9.5 -36t28 -24t37 -14.5t45 -7t43.5 -2t41.5 0.5t29.5 1v-121z" />
    <glyph glyph-name="tilde" unicode="&#x2dc;" 
d="M858 1360q0 -117 -49 -179.5t-143 -62.5q-42 0 -129 41t-121 41q-19 0 -28.5 -4t-19.5 -24t-16 -60h-184q0 95 52 171.5t140 76.5q41 0 93.5 -21.5t96.5 -43t66 -21.5q29 0 45.5 27.5t18.5 58.5h178z" />
    <glyph glyph-name="hungarumlaut" unicode="&#x2dd;" 
d="M1028 1499l-362 -399h-168l260 399h270zM557 1499l-362 -399h-168l260 399h270z" />
    <glyph glyph-name="pi" unicode="&#x3c0;" horiz-adv-x="1124" 
d="M1036 279q0 -133 -63 -217.5t-150 -84.5q-72 0 -111.5 57.5t-39.5 155.5l37 527h-269l-45 -357q-27 -218 -45 -279q-28 -95 -86 -106q-9 -2 -20 -2q-52 0 -79.5 24t-27.5 64q0 30 14 54t35 44.5t43 44t42 64t28 92.5l55 357h-110q-44 0 -89.5 -28.5t-68.5 -86.5h-31l5 16
q5 17 8 27.5t11.5 32t16.5 37t21.5 37t27.5 37t34 32.5t42 27t50 17t59 7h692v-155h-227q-25 -304 -25 -357q0 -39 2 -67.5t10 -58t21 -48.5t35.5 -31t54.5 -12q41 0 73.5 43t32.5 93h37z" />
    <glyph glyph-name="endash" unicode="&#x2013;" 
d="M1018 438h-1018v172h1018v-172z" />
    <glyph glyph-name="emdash" unicode="&#x2014;" horiz-adv-x="2048" 
d="M2042 438h-2042v172h2042v-172z" />
    <glyph glyph-name="quoteleft" unicode="&#x2018;" horiz-adv-x="512" 
d="M430 1610q-44 -81 -63 -128.5t-25 -90.5q-12 -86 -12 -191v-104h-224v114q0 167 46 252q13 24 22.5 40.5t24.5 37t22 29t33 41.5h176z" />
    <glyph glyph-name="quoteright" unicode="&#x2019;" horiz-adv-x="512" 
d="M389 1495q0 -169 -45 -252q-6 -11 -11 -20t-10.5 -18.5t-9 -15t-10.5 -15t-9.5 -13.5t-11 -14.5t-11.5 -14.5t-14 -17.5t-15 -18.5h-176q44 81 63 128.5t25 90.5q12 86 12 190v105h223v-115z" />
    <glyph glyph-name="quotesinglbase" unicode="&#x201a;" horiz-adv-x="512" 
d="M410 125q0 -169 -45 -252q-7 -14 -13.5 -25.5t-14 -22.5t-12 -18t-13.5 -19t-13.5 -17.5t-17.5 -21t-19 -23.5h-176q44 81 63 128.5t25 90.5q12 86 12 190v105h224v-115z" />
    <glyph glyph-name="quotedblleft" unicode="&#x201c;" horiz-adv-x="921" 
d="M819 1610q-44 -81 -63 -128.5t-25 -90.5q-12 -86 -12 -191v-104h-223v114q0 169 45 252q13 24 22.5 40.5t24.5 37t22 29t33 41.5h176zM410 1610q-44 -81 -63 -128.5t-25 -90.5q-13 -93 -13 -191v-104h-223v114q0 169 45 252q13 24 22.5 40.5t24.5 37t22 29t33 41.5h177z
" />
    <glyph glyph-name="quotedblright" unicode="&#x201d;" horiz-adv-x="921" 
d="M799 1495q0 -169 -45 -252q-7 -14 -13.5 -25.5t-14 -22.5t-12 -18t-13.5 -19t-13.5 -17.5t-17.5 -21t-19 -23.5h-176q44 81 63 128.5t25 90.5q12 86 12 190v105h224v-115zM389 1495q0 -169 -45 -252q-6 -11 -11 -20t-10.5 -18.5t-9 -15t-10.5 -15t-9.5 -13.5t-11 -14.5
t-11.5 -14.5t-14 -17.5t-15 -18.5h-176q44 81 63 128.5t25 90.5q12 86 12 190v105h223v-115z" />
    <glyph glyph-name="quotedblbase" unicode="&#x201e;" horiz-adv-x="921" 
d="M819 123q0 -169 -45 -252q-6 -11 -11 -20t-10.5 -18.5t-9 -15t-10.5 -15t-9.5 -13.5t-11 -14.5t-11.5 -14.5t-14 -17.5t-15 -18.5h-176q44 81 63 128.5t25 90.5q12 86 12 190v105h223v-115zM410 123q0 -169 -45 -252q-7 -14 -13.5 -25.5t-14 -22.5t-12 -18t-13.5 -19
t-13.5 -17.5t-17.5 -21t-19 -23.5h-176q44 81 63 128.5t25 90.5q12 86 12 190v105h224v-115z" />
    <glyph glyph-name="dagger" unicode="&#x2020;" horiz-adv-x="1044" 
d="M1042 956h-409v-1339h-225v1339h-410v203h410v451h225v-451h409v-203z" />
    <glyph glyph-name="daggerdbl" unicode="&#x2021;" horiz-adv-x="1044" 
d="M1042 199h-409v-582h-225v582h-410v202h410v555h-410v203h410v451h225v-451h409v-203h-409v-555h409v-202z" />
    <glyph glyph-name="bullet" unicode="&#x2022;" 
d="M881 635l-344 -406l-357 418l355 406z" />
    <glyph glyph-name="ellipsis" unicode="&#x2026;" horiz-adv-x="2048" 
d="M1745 0h-219v240h219v-240zM1151 0h-219v240h219v-240zM516 0h-219v240h219v-240z" />
    <glyph glyph-name="perthousand" unicode="&#x2030;" horiz-adv-x="2048" 
d="M909 1249q0 -165 -117 -282t-282 -117q-164 0 -280.5 116.5t-116.5 282.5q0 164 116.5 281t280.5 117t281.5 -117t117.5 -281zM1417 1608l-622 -1608l-170 -2l620 1610h172zM1937 369q0 -165 -117.5 -282.5t-281.5 -117.5t-280.5 117t-116.5 283q0 164 116.5 280.5
t280.5 116.5t281.5 -116.5t117.5 -280.5zM750 1249q0 99 -71 173.5t-169 74.5q-97 0 -167.5 -74.5t-70.5 -173.5q0 -101 70 -175.5t168 -74.5t169 75t71 175zM1778 369q0 99 -71 173t-169 74q-97 0 -167.5 -74t-70.5 -173q0 -101 70 -175.5t168 -74.5t169 75t71 175z" />
    <glyph glyph-name="guilsinglleft" unicode="&#x2039;" horiz-adv-x="495" 
d="M414 135l-373 281v151l373 281v-215l-203 -141l203 -142v-215z" />
    <glyph glyph-name="guilsinglright" unicode="&#x203a;" horiz-adv-x="507" 
d="M467 416l-373 -281v215l203 142l-203 141v215l373 -281v-151z" />
    <glyph glyph-name="fraction" unicode="&#x2044;" horiz-adv-x="204" 
d="M473 1608l-623 -1608l-169 -2l620 1610h172z" />
    <glyph glyph-name="trademark" unicode="&#x2122;" horiz-adv-x="1720" 
d="M1559 803h-148v543l-221 -304h-78l-227 306v-545h-146v805h154l262 -379l248 379h156v-805zM614 1470h-211v-667h-153v667h-211v138h575v-138z" />
    <glyph glyph-name="Omega" unicode="&#x2126;" horiz-adv-x="1572" 
d="M1507 0h-604l33 287q44 17 84 42t82.5 69.5t73.5 101.5t51 141.5t20 185.5q0 89 -17 169t-53 149.5t-89 120t-130 79.5t-170 29q-118 0 -207.5 -42t-143.5 -117t-80.5 -172.5t-26.5 -215.5q0 -102 20.5 -188t51.5 -143t74 -101.5t83 -69t82 -38.5l33 -287h-604v307h51
q19 -76 45 -100.5t90 -24.5h303l-4 58q-107 25 -193 86t-138 142.5t-79.5 173t-27.5 185.5q0 184 86.5 324t238.5 214.5t346 74.5q306 0 489 -165.5t183 -447.5q0 -76 -14.5 -148.5t-48 -144t-83 -129t-124.5 -101.5t-168 -64l-6 -58h305q64 0 90 24.5t45 100.5h51v-307z
" />
    <glyph glyph-name="partialdiff" unicode="&#x2202;" horiz-adv-x="1011" 
d="M946 805q0 -128 -19 -247.5t-60 -227t-101 -187.5t-148 -127t-194 -47q-156 0 -248 96t-92 293q0 112 23 203.5t62 153t92 103.5t111.5 60.5t121.5 18.5q105 0 163.5 -29t124.5 -100q6 73 6 154q0 212 -81 319t-265 107q-35 0 -65 -3.5t-48 -6.5t-40 -12.5t-28.5 -12.5
t-26 -15.5t-21.5 -13.5l-80 102q114 58 275 58q129 0 233 -51t169.5 -139t100.5 -203t35 -246zM772 686q-25 28 -38 40t-43.5 35t-67 33.5t-80.5 10.5q-143 0 -216 -119.5t-73 -327.5q0 -179 46.5 -251t141.5 -72q279 0 330 651z" />
    <glyph glyph-name="Delta" unicode="&#x2206;" horiz-adv-x="1253" 
d="M1245 0h-1233l656 1409zM991 100l-397 959l-447 -959h844z" />
    <glyph glyph-name="product" unicode="&#x220f;" horiz-adv-x="1685" 
d="M1645 -207h-627v47q100 0 148 33t48 133v1419h-733v-1419q0 -100 48.5 -133t150.5 -33v-47h-629v47q103 0 151 33t48 133v1282q0 54 -15.5 94t-36.5 60t-50.5 32t-50 14.5t-42.5 2.5v47h1583v-47q-22 0 -42 -2.5t-49.5 -14.5t-50 -32t-35.5 -60t-15 -94v-1282
q0 -100 48.5 -133t150.5 -33v-47z" />
    <glyph glyph-name="summation" unicode="&#x2211;" horiz-adv-x="1460" 
d="M1423 250q-41 -167 -55 -238.5t-33 -220.5q-17 3 -50 9.5t-58.5 10t-48.5 3.5h-1031q-21 0 -59 -3.5t-59 -3.5l714 816l-710 929q16 -1 94 -7.5t119 -6.5h1018l12 -326h-41q-30 96 -40 117q-36 75 -121 100q-59 17 -152 17h-539l559 -733l-602 -695h760q103 0 163 49
t113 183h47z" />
    <glyph glyph-name="minus" unicode="&#x2212;" horiz-adv-x="1124" 
d="M1073 500h-1024v202h1024v-202z" />
    <glyph glyph-name="radical" unicode="&#x221a;" horiz-adv-x="1124" 
d="M1055 1868l-307 -1946l-498 1028l-197 -96l-33 68l299 147l404 -825l260 1634z" />
    <glyph glyph-name="infinity" unicode="&#x221e;" horiz-adv-x="1460" 
d="M1407 551q0 -127 -80 -212t-197 -85q-98 0 -176.5 44.5t-222.5 174.5q-126 -121 -212 -169t-204 -48q-119 0 -189.5 72.5t-70.5 201.5q0 127 80 212t197 85q98 0 176.5 -44.5t222.5 -174.5q130 121 215 169t201 48q119 0 189.5 -72.5t70.5 -201.5zM1296 549q0 90 -53 134
t-133 44q-72 0 -138 -41t-173 -145q122 -103 190.5 -142t128.5 -39q91 0 134.5 50.5t43.5 138.5zM664 541q-121 102 -190.5 141t-129.5 39q-91 0 -134.5 -50.5t-43.5 -138.5q0 -90 53 -134t133 -44q72 0 138.5 41.5t173.5 145.5z" />
    <glyph glyph-name="integral" unicode="&#x222b;" horiz-adv-x="561" 
d="M596 1683q0 -40 -30.5 -67t-76.5 -27q-29 0 -60 26.5t-42 26.5q-18 0 -27.5 -16t-9.5 -33q-1 -26 19 -271t20 -404l-2 -443q-3 -412 -78 -604q-67 -172 -190 -172q-54 0 -86.5 30.5t-32.5 69.5q0 37 24 70t70 33q36 0 56 -12.5t33 -24.5t32 -12q12 0 22.5 28t16.5 79
t4 110q-1 22 -5 141.5t-6 234t-1 267.5v295q0 254 11 391.5t42 242.5q16 54 63.5 103t106.5 49q127 0 127 -111z" />
    <glyph glyph-name="approxequal" unicode="&#x2248;" horiz-adv-x="1124" 
d="M981 635q-37 -69 -101 -108.5t-128 -39.5q-31 0 -68 11l-246 80q-39 9 -69 12q-25 0 -48 -6.5t-38 -15.5t-30 -24t-22 -24.5t-17 -24t-11 -16.5l-74 76q101 145 240 145q49 0 86 -12l247 -78q14 -4 50 -4q39 0 88 23.5t80 75.5zM981 369q-37 -69 -100.5 -107.5
t-128.5 -38.5q-41 0 -68 8l-246 80q-48 11 -69 13q-25 0 -48 -6.5t-38 -15.5t-30 -24t-22 -24.5t-17 -24t-11 -16.5l-74 76q101 145 240 145q49 0 86 -12l247 -78q28 -4 50 -4q39 0 88 23t80 75z" />
    <glyph glyph-name="notequal" unicode="&#x2260;" horiz-adv-x="1124" 
d="M950 264h-413l-86 -219h-101l86 219h-262v113h305l62 168h-367v112h406l75 213h101l-74 -213h268v-112h-309l-61 -168h370v-113z" />
    <glyph glyph-name="lessequal" unicode="&#x2264;" horiz-adv-x="1124" 
d="M932 207l-801 334v114l801 357v-117l-658 -293l658 -266v-129zM934 0h-801v113h801v-113z" />
    <glyph glyph-name="greaterequal" unicode="&#x2265;" horiz-adv-x="1124" 
d="M987 543l-801 -336v117l658 272l-658 287v129l801 -355v-114zM991 0h-801v113h801v-113z" />
    <glyph glyph-name="lozenge" unicode="&#x25ca;" horiz-adv-x="1011" 
d="M954 772l-397 -772h-123l-397 772l397 754h123zM831 772l-335 643l-336 -643l336 -661z" />
    <glyph glyph-name="fi" unicode="&#xfb01;" horiz-adv-x="1091" 
d="M932 1184h-213v239h213v-239zM932 0h-213v748h-346v-748h-213v748h-160v184h160v332q0 180 76.5 267t234.5 87q55 0 88 -8v-180q-116 6 -141 -17q-25 -22 -35 -58t-10 -106v-317h559v-932z" />
    <glyph glyph-name="fl" unicode="&#xfb02;" horiz-adv-x="1183" 
d="M567 748h-194v-748h-213v748h-160v184h160v332q0 180 76.5 267t234.5 87q55 0 88 -8v-180q-116 6 -141 -17q-25 -22 -35 -58t-10 -106v-317h194v-184zM1030 0h-213v1610h213v-1610z" />
    <glyph glyph-name="percent" horiz-adv-x="2048" 
d="M909 1249q0 -165 -117 -282t-282 -117q-164 0 -280.5 116.5t-116.5 282.5q0 164 116.5 281t280.5 117t281.5 -117t117.5 -281zM1417 1608l-622 -1608l-170 -2l620 1610h172zM1937 369q0 -165 -117.5 -282.5t-281.5 -117.5t-280.5 117t-116.5 283q0 164 116.5 280.5
t280.5 116.5t281.5 -116.5t117.5 -280.5zM750 1249q0 99 -71 173.5t-169 74.5q-97 0 -167.5 -74.5t-70.5 -173.5q0 -101 70 -175.5t168 -74.5t169 75t71 175zM1778 369q0 99 -71 173t-169 74q-97 0 -167.5 -74t-70.5 -173q0 -101 70 -175.5t168 -74.5t169 75t71 175z" />
    <glyph glyph-name="apple" horiz-adv-x="1646" 
d="M1376 557q0 -123 -38 -232.5t-98 -183t-133.5 -116.5t-145.5 -43q-35 0 -56.5 5.5t-28.5 11.5t-16.5 11.5t-21.5 5.5q-13 0 -23 -5.5t-17.5 -11.5t-33.5 -11.5t-66 -5.5q-35 0 -84.5 16.5t-111.5 60t-113.5 107t-87 169.5t-35.5 236q0 336 277 336q67 0 109.5 -13.5
t64 -26.5t39.5 -13q19 0 28.5 13t10.5 38t-1 49.5t-6 60.5t-4 58q-4 216 111 299q31 23 88.5 40t102.5 27t79.5 39t34.5 78h6q8 -22 15 -57t7 -97t-14 -120q-14 -61 -58 -103.5t-96 -63.5t-102.5 -39t-84 -44t-33.5 -63q0 -121 59 -121q12 0 26.5 9t31 20.5t58.5 20.5t101 9
q51 0 91 -11.5t67 -29t46.5 -46t30 -56.5t16.5 -66.5t7.5 -69t1.5 -71.5zM1192 1452q-11 -26 -27 -48t-40 -42.5t-41 -33t-51 -34t-50 -32.5q-68 -47 -103.5 -95t-60.5 -118q27 51 56.5 85.5t49.5 49.5t60 40t64 42q136 97 143 186zM639 281q-38 82 -47 143t2 91.5t25 69.5
t14 72q0 24 -3 40t-17.5 30t-41.5 14q-57 0 -81.5 -38t-24.5 -89q0 -111 174 -333z" />
    </font>
</defs>
</svg>
