<?xml version="1.0" encoding="UTF-8" standalone="no"?>
<!-- Created with Inkscape (http://www.inkscape.org/) -->

<svg
   xmlns:dc="http://purl.org/dc/elements/1.1/"
   xmlns:cc="http://creativecommons.org/ns#"
   xmlns:rdf="http://www.w3.org/1999/02/22-rdf-syntax-ns#"
   xmlns:svg="http://www.w3.org/2000/svg"
   xmlns="http://www.w3.org/2000/svg"
   xmlns:sodipodi="http://sodipodi.sourceforge.net/DTD/sodipodi-0.dtd"
   xmlns:inkscape="http://www.inkscape.org/namespaces/inkscape"
   width="210mm"
   height="297mm"
   viewBox="0 0 210 297"
   version="1.1"
   id="svg8"
   inkscape:version="0.92.5 (2060ec1f9f, 2020-04-08)"
   sodipodi:docname="dark-logosvg.svg">
  <defs
     id="defs2" />
  <sodipodi:namedview
     id="base"
     pagecolor="#ffffff"
     bordercolor="#666666"
     borderopacity="1.0"
     inkscape:pageopacity="0.0"
     inkscape:pageshadow="2"
     inkscape:zoom="0.35"
     inkscape:cx="410.33246"
     inkscape:cy="723.91284"
     inkscape:document-units="mm"
     inkscape:current-layer="layer1"
     showgrid="false"
     inkscape:window-width="1848"
     inkscape:window-height="1136"
     inkscape:window-x="1992"
     inkscape:window-y="27"
     inkscape:window-maximized="1" />
  <metadata
     id="metadata5">
    <rdf:RDF>
      <cc:Work
         rdf:about="">
        <dc:format>image/svg+xml</dc:format>
        <dc:type
           rdf:resource="http://purl.org/dc/dcmitype/StillImage" />
        <dc:title></dc:title>
      </cc:Work>
    </rdf:RDF>
  </metadata>
  <g
     inkscape:label="Layer 1"
     inkscape:groupmode="layer"
     id="layer1">
    <g
       style="fill:#000000"
       id="g829"
       transform="matrix(4.3465894,0,0,4.3465894,7.6545593,65.099761)"
       inkscape:export-xdpi="96"
       inkscape:export-ydpi="96">
      <path
         id="path815"
         d="M 44.9959,4.41085 25.9528,30.9587 c -0.4691,0.6566 -1.3133,1.1257 -2.1576,1.1257 h -4.409 L 39.3674,4.9737 39.2736,4.87989 H 6.72201 c -1.03189,0 -1.96998,-0.56285 -2.34522,-1.50093 L 3.06347,0.939926 c -0.0938,-0.187617 0,-0.375229 0.18762,-0.375229 H 42.8383 c 0.0938,0 0.1877,0.093807 0.1877,0.093807 l 1.8761,3.564726 c 0.0938,0 0.0938,0.09381 0.0938,0.18762 z"
         inkscape:connector-curvature="0"
         style="fill:#000000" />
      <path
         id="path817"
         d="M 0.0616186,39.5891 19.1986,12.9475 c 0.469,-0.6567 1.3133,-1.1257 2.1576,-1.1257 h 4.409 L 5.69014,39.1201 5.78394,39.2139 H 38.3355 c 1.0319,0 1.97,0.5628 2.3453,1.5009 l 1.3133,2.4391 c 0.0938,0.1876 0,0.3752 -0.1876,0.3752 H 2.21922 c -0.09381,0 -0.18762,-0.0938 -0.18762,-0.0938 L 0.155427,39.8706 C -0.03219,39.7767 -0.03219,39.6829 0.0616186,39.5891 Z"
         inkscape:connector-curvature="0"
         style="fill:#000000" />
    </g>
  </g>
</svg>
