<svg width="45" height="44" viewBox="0 0 45 44" fill="none" xmlns="http://www.w3.org/2000/svg">
<path d="M44.9959 4.41085L25.9528 30.9587C25.4837 31.6153 24.6395 32.0844 23.7952 32.0844H19.3862L39.3674 4.9737L39.2736 4.87989H6.72201C5.69012 4.87989 4.75203 4.31704 4.37679 3.37896L3.06347 0.939926C2.96967 0.752309 3.06347 0.564697 3.25109 0.564697H42.8383C42.9321 0.564697 43.026 0.658504 43.026 0.658504L44.9021 4.22323C44.9959 4.22323 44.9959 4.31704 44.9959 4.41085Z" fill="white"/>
<path d="M0.0616186 39.5891L19.1986 12.9475C19.6676 12.2908 20.5119 11.8218 21.3562 11.8218H25.7652L5.69014 39.1201L5.78394 39.2139H38.3355C39.3674 39.2139 40.3055 39.7767 40.6808 40.7148L41.9941 43.1539C42.0879 43.3415 41.9941 43.5291 41.8065 43.5291H2.21922C2.12541 43.5291 2.0316 43.4353 2.0316 43.4353L0.155427 39.8706C-0.03219 39.7767 -0.03219 39.6829 0.0616186 39.5891Z" fill="white"/>
</svg>
