<svg width="15" height="25" viewBox="0 0 15 25" fill="none" xmlns="http://www.w3.org/2000/svg">
<path fill-rule="evenodd" clip-rule="evenodd" d="M14 7.5V17.5C14 21.0899 11.0899 24 7.5 24C3.91015 24 1 21.0899 1 17.5V7.5C1 4.07839 3.64378 1.27426 7 1.01894L7 9.5C7 9.77614 7.22386 10 7.5 10C7.77614 10 8 9.77614 8 9.5L8 1.01894C11.3562 1.27426 14 4.07839 14 7.5ZM7.5 0C3.35786 0 0 3.35786 0 7.5V17.5C0 21.6421 3.35786 25 7.5 25C11.6421 25 15 21.6421 15 17.5V7.5C15 3.35786 11.6421 0 7.5 0Z" fill="#BDBDBD"/>
</svg>
