<svg width="116" height="40" viewBox="0 0 116 40" fill="none" xmlns="http://www.w3.org/2000/svg">
<path d="M35.9968 5.92873L20.7623 27.167C20.387 27.6923 19.7116 28.0676 19.0362 28.0676H15.509L31.494 6.37901L31.4189 6.30396H5.37766C4.55214 6.30396 3.80167 5.85368 3.50148 5.10321L2.45083 3.15199C2.37578 3.0019 2.45083 2.85181 2.60092 2.85181H34.2707C34.3458 2.85181 34.4208 2.92685 34.4208 2.92685L35.9217 5.77863C35.9968 5.77863 35.9968 5.85368 35.9968 5.92873Z" fill="white"/>
<path d="M0.0492949 34.0713L15.3589 12.758C15.7341 12.2327 16.4095 11.8574 17.0849 11.8574H20.6121L4.55211 33.6961L4.62716 33.7711H30.6684C31.4939 33.7711 32.2444 34.2214 32.5446 34.9719L33.5953 36.9231C33.6703 37.0732 33.5953 37.2233 33.4452 37.2233H1.77537C1.70033 37.2233 1.62528 37.1482 1.62528 37.1482L0.124342 34.2964C-0.025752 34.2214 -0.025752 34.1463 0.0492949 34.0713Z" fill="white"/>
<path d="M63.7642 26.1913V24.9155L70.7435 15.1594H63.7642V13.8086H72.7698V15.0844L65.7904 24.8405H72.9199V26.1913H63.7642Z" fill="white"/>
<path d="M75.6963 26.1914V13.7336H83.8764V15.0845H77.2723V19.062H83.7263V20.4128H77.2723V24.6905H83.8764V26.0413H75.6963V26.1914Z" fill="white"/>
<path d="M95.5841 26.1914L88.3045 16.2852V26.1914H86.7285V13.7336H88.3045L95.509 23.4897V13.7336H97.085V26.1914H95.5841Z" fill="white"/>
<path d="M106.391 26.4916C105.49 26.4916 104.665 26.3415 103.914 26.0413C103.164 25.7411 102.413 25.2909 101.888 24.7655C101.288 24.2402 100.837 23.4897 100.537 22.7393C100.162 21.9138 100.012 21.0882 100.012 20.1126C100.012 19.137 100.162 18.2365 100.537 17.486C100.912 16.6605 101.363 15.985 101.888 15.4597C102.488 14.9344 103.164 14.4841 103.914 14.1839C104.665 13.8837 105.49 13.7336 106.391 13.7336C107.516 13.7336 108.417 13.9588 109.242 14.4091C109.993 14.8593 110.668 15.3847 111.269 16.0601L110.068 16.8106C109.693 16.2852 109.167 15.91 108.492 15.5348C107.817 15.1595 107.216 15.0845 106.466 15.0845C105.79 15.0845 105.19 15.2346 104.59 15.4597C103.989 15.6849 103.464 16.0601 103.089 16.5104C102.638 16.9607 102.338 17.486 102.038 18.0864C101.813 18.6867 101.663 19.3622 101.663 20.1126C101.663 20.8631 101.813 21.5385 102.038 22.1389C102.263 22.7393 102.638 23.2646 103.089 23.7149C103.539 24.1652 103.989 24.5404 104.59 24.7655C105.19 25.0657 105.79 25.1408 106.466 25.1408C106.841 25.1408 107.216 25.0657 107.516 24.9907C107.892 24.9156 108.192 24.8406 108.417 24.6905C108.642 24.5404 108.942 24.3903 109.167 24.2402C109.393 24.0901 109.618 23.94 109.693 23.7899V21.2383H105.415V19.8875H111.194V24.3903C110.593 25.0657 109.918 25.591 109.092 25.9663C108.342 26.2665 107.366 26.4916 106.391 26.4916Z" fill="white"/>
<path d="M114.271 26.1914V13.7336H115.846V26.1914H114.271Z" fill="white"/>
<path d="M50.5559 0H49.2051V40H50.5559V0Z" fill="white"/>
</svg>
